<svg xmlns="http://www.w3.org/2000/svg" xmlns:xlink="http://www.w3.org/1999/xlink" width="108" height="108" viewBox="0 0 108 108">
  <defs>
    <filter id="Path_904820" x="0" y="0" width="108" height="108" filterUnits="userSpaceOnUse">
      <feOffset dy="3" input="SourceAlpha"/>
      <feGaussianBlur stdDeviation="3" result="blur"/>
      <feFlood flood-opacity="0.161"/>
      <feComposite operator="in" in2="blur"/>
      <feComposite in="SourceGraphic"/>
    </filter>
  </defs>
  <g id="Icono" transform="translate(-615.101 -5000)">
    <g transform="matrix(1, 0, 0, 1, 615.1, 5000)" filter="url(#Path_904820)">
      <g id="Path_904820-2" data-name="Path 904820" transform="translate(9 6)" fill="#ecf4fa">
        <path d="M 45 88.5 C 39.12687683105469 88.5 33.43022537231445 87.35007476806641 28.06830024719238 85.08217620849609 C 22.88852500915527 82.89131164550781 18.23629951477051 79.75458526611328 14.2408504486084 75.75914764404297 C 10.24541282653809 71.76370239257812 7.108687400817871 67.11147308349609 4.917825222015381 61.93170166015625 C 2.649924993515015 56.56977462768555 1.5 50.87312316894531 1.5 45 C 1.5 39.12687683105469 2.649924993515015 33.43022537231445 4.917825222015381 28.06830024719238 C 7.108687400817871 22.88852500915527 10.24541282653809 18.23629951477051 14.2408504486084 14.2408504486084 C 18.23629951477051 10.24541282653809 22.88852500915527 7.108687400817871 28.06830024719238 4.917825222015381 C 33.43022537231445 2.649924993515015 39.12687683105469 1.5 45 1.5 C 50.87312316894531 1.5 56.56977462768555 2.649924993515015 61.93170166015625 4.917825222015381 C 67.11147308349609 7.108687400817871 71.76370239257812 10.24541282653809 75.75914764404297 14.2408504486084 C 79.75458526611328 18.23629951477051 82.89131164550781 22.88852500915527 85.08217620849609 28.06830024719238 C 87.35007476806641 33.43022537231445 88.5 39.12687683105469 88.5 45 C 88.5 50.87312316894531 87.35007476806641 56.56977462768555 85.08217620849609 61.93170166015625 C 82.89131164550781 67.11147308349609 79.75458526611328 71.76370239257812 75.75914764404297 75.75914764404297 C 71.76370239257812 79.75458526611328 67.11147308349609 82.89131164550781 61.93170166015625 85.08217620849609 C 56.56977462768555 87.35007476806641 50.87312316894531 88.5 45 88.5 Z" stroke="none"/>
        <path d="M 45 3 C 39.32871246337891 3 33.82865524291992 4.110054016113281 28.65262985229492 6.299339294433594 C 23.65165710449219 8.414573669433594 19.15968322753906 11.44334411621094 15.301513671875 15.301513671875 C 11.44334411621094 19.15968322753906 8.414573669433594 23.65165710449219 6.299339294433594 28.65262985229492 C 4.110054016113281 33.82865524291992 3 39.32871246337891 3 45 C 3 50.67128753662109 4.110054016113281 56.17134475708008 6.299339294433594 61.34737396240234 C 8.414573669433594 66.34834289550781 11.44334411621094 70.84031677246094 15.301513671875 74.698486328125 C 19.15968322753906 78.55665588378906 23.65165710449219 81.58542633056641 28.65262985229492 83.70066070556641 C 33.82865524291992 85.88994598388672 39.32871246337891 87 45 87 C 50.67128753662109 87 56.17134475708008 85.88994598388672 61.34737396240234 83.70066070556641 C 66.34834289550781 81.58542633056641 70.84031677246094 78.55665588378906 74.698486328125 74.698486328125 C 78.55665588378906 70.84031677246094 81.58542633056641 66.34834289550781 83.70066070556641 61.34737396240234 C 85.88994598388672 56.17134475708008 87 50.67128753662109 87 45 C 87 39.32871246337891 85.88994598388672 33.82865524291992 83.70066070556641 28.65262985229492 C 81.58542633056641 23.65165710449219 78.55665588378906 19.15968322753906 74.698486328125 15.301513671875 C 70.84031677246094 11.44334411621094 66.34834289550781 8.414573669433594 61.34737396240234 6.299339294433594 C 56.17134475708008 4.110054016113281 50.67128753662109 3 45 3 M 45 0 C 69.85281372070312 0 90 20.14718627929688 90 45 C 90 69.85281372070312 69.85281372070312 90 45 90 C 20.14718627929688 90 0 69.85281372070312 0 45 C 0 20.14718627929688 20.14718627929688 0 45 0 Z" stroke="none" fill="#2a5673"/>
      </g>
    </g>
    <g id="Group_1145324" data-name="Group 1145324" transform="translate(639.101 5020.999)">
      <path id="Path_979476" data-name="Path 979476" d="M160.182,163.941H139.516a3.758,3.758,0,0,1-3.758-3.758V139.517a3.758,3.758,0,0,1,3.758-3.758h20.667a3.758,3.758,0,0,1,3.758,3.758v20.667A3.758,3.758,0,0,1,160.182,163.941Z" transform="translate(-119.849 -119.849)" fill="#4bd7c8"/>
      <path id="Path_979477" data-name="Path 979477" d="M181.413,182.353H160.746a.939.939,0,0,1-.939-.939V160.747a.939.939,0,0,1,.939-.939h20.666a.939.939,0,0,1,.939.939v20.667A.939.939,0,0,1,181.413,182.353Z" transform="translate(-141.08 -141.08)" fill="#99e9df"/>
      <g id="Group_1145318" data-name="Group 1145318" transform="translate(2.758 20.607)">
        <circle id="Ellipse_11596" data-name="Ellipse 11596" cx="1.879" cy="1.879" r="1.879" fill="#4bd7c8"/>
        <circle id="Ellipse_11597" data-name="Ellipse 11597" cx="1.879" cy="1.879" r="1.879" transform="translate(50.727 15.03)" fill="#4bd7c8"/>
      </g>
      <g id="Group_1145319" data-name="Group 1145319" transform="translate(0.879 12.153)">
        <circle id="Ellipse_11598" data-name="Ellipse 11598" cx="1.879" cy="1.879" r="1.879" transform="translate(0 31.938)" fill="#99e9df"/>
        <circle id="Ellipse_11599" data-name="Ellipse 11599" cx="1.879" cy="1.879" r="1.879" transform="translate(54.485)" fill="#99e9df"/>
      </g>
      <g id="Group_1145320" data-name="Group 1145320" transform="translate(20.606 2.759)">
        <circle id="Ellipse_11600" data-name="Ellipse 11600" cx="1.879" cy="1.879" r="1.879" transform="translate(15.03)" fill="#4bd7c8"/>
        <circle id="Ellipse_11601" data-name="Ellipse 11601" cx="1.879" cy="1.879" r="1.879" transform="translate(0 50.727)" fill="#4bd7c8"/>
      </g>
      <g id="Group_1145321" data-name="Group 1145321" transform="translate(12.152 0.88)">
        <circle id="Ellipse_11602" data-name="Ellipse 11602" cx="1.879" cy="1.879" r="1.879" fill="#99e9df"/>
        <circle id="Ellipse_11603" data-name="Ellipse 11603" cx="1.879" cy="1.879" r="1.879" transform="translate(31.938 54.485)" fill="#99e9df"/>
      </g>
      <path id="Path_979478" data-name="Path 979478" d="M192.31,193.231a.939.939,0,0,1,.7.314,3.3,3.3,0,0,0,2.47,1.082,3.042,3.042,0,0,0,3.143-2.62.941.941,0,0,1,.463-.736,3.253,3.253,0,0,0,1.678-2.751,3.068,3.068,0,0,0-.926-2.157.94.94,0,0,1,0-1.322,3.068,3.068,0,0,0,.926-2.157,3.342,3.342,0,0,0-2.577-3.112.94.94,0,0,1-.656-1.114,2.093,2.093,0,0,0,.062-.471,2.511,2.511,0,0,0-2.642-2.348,2.8,2.8,0,0,0-1.976.794.968.968,0,0,1-1.332,0,2.8,2.8,0,0,0-1.976-.794,2.511,2.511,0,0,0-2.642,2.348,2.181,2.181,0,0,0,.051.463.939.939,0,0,1-.658,1.1,3.346,3.346,0,0,0-2.563,3.129,2.984,2.984,0,0,0,.711,1.908.94.94,0,0,1,.023,1.165,3.463,3.463,0,0,0-.734,2.094,3.656,3.656,0,0,0,1.7,3.005.94.94,0,0,1,.418.774,3.019,3.019,0,0,0,3.167,2.8,3.3,3.3,0,0,0,2.47-1.082A.939.939,0,0,1,192.31,193.231Z" transform="translate(-162.311 -155.233)" fill="#ccf4ef"/>
      <path id="Path_979479" data-name="Path 979479" d="M144.052,29.122H129.9v-2h3.818a.879.879,0,1,0,0-1.758H129.9v-2h2.651a3.673,3.673,0,0,0,2.614-1.083l5.78-5.78a2.756,2.756,0,1,0-1.243-1.243l-5.78,5.78a1.927,1.927,0,0,1-1.371.568H129.9V19.668a4.642,4.642,0,0,0-4.636-4.636h-1.939V7.251a2.758,2.758,0,1,0-1.758,0v7.781h-2V11.213a.879.879,0,0,0-1.758,0v3.818h-2V.88a.879.879,0,1,0-1.758,0V15.031h-2V11.213a.879.879,0,1,0-1.758,0v3.818h-2V12.381a3.673,3.673,0,0,0-1.083-2.614L101.43,3.984a2.759,2.759,0,1,0-1.243,1.243l5.782,5.782a1.926,1.926,0,0,1,.568,1.371v2.651H104.6a4.656,4.656,0,0,0-1.159.146.879.879,0,0,0,.438,1.7,2.9,2.9,0,0,1,.72-.091h20.666a2.882,2.882,0,0,1,2.879,2.879V40.334a2.9,2.9,0,0,1-.09.72.879.879,0,1,0,1.7.438,4.651,4.651,0,0,0,.146-1.158V38.395h7.78a2.758,2.758,0,1,0,0-1.758H129.9v-2h3.818a.879.879,0,1,0,0-1.758H129.9v-2h14.151a.879.879,0,1,0,0-1.758Zm-2.586-15.8a1,1,0,1,1,0,1.414h0a1,1,0,0,1,0-1.414Zm-19.02-9.687a1,1,0,1,1-1,1A1,1,0,0,1,122.447,3.638ZM98.255,3.466a1,1,0,1,1,1.414,0h0A1,1,0,0,1,98.255,3.466Zm42.04,33.05a1,1,0,1,1-1,1A1,1,0,0,1,140.3,36.516Z" transform="translate(-84.932)"/>
      <path id="Path_979480" data-name="Path 979480" d="M44.744,189.232l-5.782-5.782a1.926,1.926,0,0,1-.568-1.371v-2.651h1.939a4.654,4.654,0,0,0,1.159-.146.879.879,0,0,0-.438-1.7,2.893,2.893,0,0,1-.72.091H19.667a2.882,2.882,0,0,1-2.879-2.879V154.125a2.891,2.891,0,0,1,.091-.72.879.879,0,0,0-1.7-.438,4.647,4.647,0,0,0-.146,1.159v1.939H7.25a2.758,2.758,0,1,0,0,1.758H15.03v2H11.212a.879.879,0,0,0,0,1.758H15.03v2H.879a.879.879,0,0,0,0,1.758H15.03v2H11.212a.879.879,0,0,0,0,1.758H15.03v2H12.379a3.672,3.672,0,0,0-2.614,1.083l-5.78,5.78A2.755,2.755,0,1,0,5.228,179.2l5.78-5.78a1.927,1.927,0,0,1,1.371-.568h2.651v1.939a4.642,4.642,0,0,0,4.636,4.636h1.939v7.78a2.758,2.758,0,1,0,1.758,0v-7.78h2v3.818a.879.879,0,1,0,1.758,0v-3.818h2v14.151a.879.879,0,0,0,1.758,0V179.428h2v3.818a.879.879,0,1,0,1.758,0v-3.818h2v2.651a3.673,3.673,0,0,0,1.083,2.614l5.782,5.782a2.758,2.758,0,1,0,1.243-1.243ZM4.636,157.943a1,1,0,1,1,1-1A1,1,0,0,1,4.636,157.943ZM3.465,181.134a1,1,0,1,1,0-1.414h0a1,1,0,0,1,0,1.414Zm19.02,9.687a1,1,0,1,1,1-1A1,1,0,0,1,22.485,190.821Zm24.192,1.586a1,1,0,1,1,0-1.414A1,1,0,0,1,46.676,192.407Z" transform="translate(0 -134.457)"/>
      <path id="Path_979481" data-name="Path 979481" d="M178.47,185.186v0a3.89,3.89,0,0,0,4.049,3.7,4.193,4.193,0,0,0,3.17-1.4,4.193,4.193,0,0,0,3.17,1.4,3.917,3.917,0,0,0,4.041-3.469,4.108,4.108,0,0,0,2.122-3.516,3.962,3.962,0,0,0-1.222-2.818,3.962,3.962,0,0,0,1.222-2.818,4.245,4.245,0,0,0-3.257-3.989,3,3,0,0,0,.087-.708,3.388,3.388,0,0,0-3.521-3.227,3.656,3.656,0,0,0-2.642,1.1,3.656,3.656,0,0,0-2.642-1.1,3.388,3.388,0,0,0-3.521,3.227,3,3,0,0,0,.087.708,4.245,4.245,0,0,0-3.257,3.989,3.86,3.86,0,0,0,.926,2.5,4.346,4.346,0,0,0-.926,2.666A4.526,4.526,0,0,0,178.47,185.186Zm2.442-11.331h.023a.878.878,0,0,0,.746-1.341c-.007-.011-.013-.022-.02-.032l-.012-.016c-.014-.019-.028-.038-.043-.056v0a1.3,1.3,0,0,1-.322-.843,1.792,1.792,0,0,1,3.526,0,.879.879,0,1,0,1.758,0,1.792,1.792,0,0,1,3.526,0,1.236,1.236,0,0,1-.132.553,4.881,4.881,0,0,0-1.442.362.879.879,0,0,0,.683,1.62,3.173,3.173,0,0,1,1.215-.246h.049a2.638,2.638,0,0,1,2.8,2.408,2.345,2.345,0,0,1-1.352,2.041.879.879,0,0,0,0,1.555,2.345,2.345,0,0,1,1.352,2.041,2.248,2.248,0,0,1-.774,1.652,3.946,3.946,0,0,0-2.311-1.861.879.879,0,0,0-.527,1.677,1.994,1.994,0,0,1,1.5,1.819,2.324,2.324,0,0,1-4.583,0v-5.636a2.14,2.14,0,0,1,2.291-1.939.879.879,0,0,0,0-1.758,4.3,4.3,0,0,0-2.291.651v-1.123a.879.879,0,0,0-1.758,0v4.879a4.187,4.187,0,0,0-.971-.45.879.879,0,0,0-.527,1.677,1.994,1.994,0,0,1,1.5,1.819v1.879a2.323,2.323,0,0,1-4.583,0,1.772,1.772,0,0,1,.547-1.254.879.879,0,0,0-1.239-1.247,3.739,3.739,0,0,0-.543.681,2.681,2.681,0,0,1-.879-1.938,2.993,2.993,0,0,1,2.485-2.782.879.879,0,0,0-.393-1.713,5.354,5.354,0,0,0-1.612.657,2.121,2.121,0,0,1-.48-1.328A2.639,2.639,0,0,1,180.913,173.856Z" transform="translate(-155.69 -148.612)"/>
    </g>
  </g>
</svg>
