<svg xmlns="http://www.w3.org/2000/svg" width="34.711" height="35.816" viewBox="0 0 34.711 35.816">
  <g id="correccion" transform="translate(-7.893)">
    <g id="Group_1145413" data-name="Group 1145413" transform="translate(7.893 0)">
      <path id="Path_979640" data-name="Path 979640" d="M41.5,29.31l-3.525-3.532.99-1.715a3.123,3.123,0,0,0-.475-3.739h0l-1.082-1.1a.975.975,0,0,1-.278-.8,13.763,13.763,0,0,0,0-3.108.977.977,0,0,1,.279-.8l1.082-1.1a3.122,3.122,0,0,0,.476-3.739L37.53,7.192a3.124,3.124,0,0,0-3.478-1.457l-1.492.387a.978.978,0,0,1-.832-.159,13.574,13.574,0,0,0-2.693-1.558.976.976,0,0,1-.551-.64l-.41-1.483a3.124,3.124,0,0,0-3-2.282H22.2a3.12,3.12,0,0,0-3,2.283L18.79,3.766a.972.972,0,0,1-.55.639,13.588,13.588,0,0,0-2.695,1.559.977.977,0,0,1-.832.159l-1.493-.387A3.123,3.123,0,0,0,9.745,7.192L8.308,9.679a3.12,3.12,0,0,0,.478,3.74l1.08,1.1a.98.98,0,0,1,.279.8,13.607,13.607,0,0,0,0,3.111.98.98,0,0,1-.278.8l-1.08,1.1a3.12,3.12,0,0,0-.478,3.74l1.436,2.487a3.126,3.126,0,0,0,3.477,1.457l1.492-.388a.976.976,0,0,1,.832.159,13.586,13.586,0,0,0,2.695,1.559.972.972,0,0,1,.55.639l.411,1.482a3.12,3.12,0,0,0,3,2.284h2.872a3.125,3.125,0,0,0,3-2.284l.409-1.481a.978.978,0,0,1,.551-.641c.388-.168.767-.356,1.137-.559L36.1,34.713a3.821,3.821,0,0,0,5.4-5.4Zm-10.214-3-1.633-1.633a10,10,0,0,0,1.835-1.849l1.64,1.641Zm-2.809,1.742A2.373,2.373,0,0,0,27.134,29.6l-.409,1.481a1.721,1.721,0,0,1-1.652,1.258H22.2a1.717,1.717,0,0,1-1.652-1.257L20.139,29.6a2.366,2.366,0,0,0-1.343-1.55,12.182,12.182,0,0,1-2.416-1.4,2.361,2.361,0,0,0-1.412-.468,2.411,2.411,0,0,0-.607.078l-1.491.387a1.721,1.721,0,0,1-1.914-.8L9.52,23.362A1.717,1.717,0,0,1,9.784,21.3l1.081-1.1a2.375,2.375,0,0,0,.67-1.939,12.211,12.211,0,0,1,0-2.792,2.375,2.375,0,0,0-.671-1.939l-1.081-1.1a1.717,1.717,0,0,1-.263-2.058l1.436-2.487a1.72,1.72,0,0,1,1.913-.8l1.492.387a2.369,2.369,0,0,0,2.019-.39,12.186,12.186,0,0,1,2.416-1.4,2.365,2.365,0,0,0,1.343-1.55l.411-1.484A1.717,1.717,0,0,1,22.2,1.4h2.872a1.72,1.72,0,0,1,1.651,1.256l.409,1.483a2.369,2.369,0,0,0,1.343,1.551,12.171,12.171,0,0,1,2.416,1.4,2.37,2.37,0,0,0,2.018.39L34.4,7.09a1.72,1.72,0,0,1,1.915.8l1.436,2.488a1.719,1.719,0,0,1-.262,2.058l-1.081,1.1a2.37,2.37,0,0,0-.672,1.939,12.366,12.366,0,0,1,0,2.792,2.368,2.368,0,0,0,.672,1.939l1.081,1.1a1.719,1.719,0,0,1,.262,2.058l-.8,1.389-1.366-1.368a.882.882,0,0,0-1.3-.07l-.165.165-1.852-1.852A9.852,9.852,0,0,0,26.887,7.565a.7.7,0,1,0-.461,1.321,8.455,8.455,0,1,1-5.583,0,.7.7,0,1,0-.462-1.321,9.855,9.855,0,1,0,8.078,17.9l1.7,1.7a12.142,12.142,0,0,1-1.68.891ZM40.51,33.723a2.447,2.447,0,0,1-3.424,0L31.474,28.1,34.9,24.676,40.51,30.3A2.445,2.445,0,0,1,40.51,33.723Z" transform="translate(-7.893 0)" fill="#7f35ab"/>
      <path id="Path_979641" data-name="Path 979641" d="M146.652,178.217a2.271,2.271,0,0,0,0,3.182l2.333,2.333a2.333,2.333,0,0,0,3.258,0l5.032-5.032a2.25,2.25,0,1,0-3.182-3.182L150.613,179l-.779-.78a2.271,2.271,0,0,0-3.182,0Zm3.467,2.264a.711.711,0,0,0,.99,0l3.974-3.974a.85.85,0,1,1,1.2,1.2l-5.032,5.032a.884.884,0,0,1-.757.249.914.914,0,0,1-.522-.249l-2.333-2.333a.85.85,0,0,1,1.2-1.2Z" transform="translate(-136.336 -162.622)" fill="#7f35ab"/>
      <path id="Path_979642" data-name="Path 979642" d="M222.919,101.232a.7.7,0,1,0,.379-.914A.706.706,0,0,0,222.919,101.232Z" transform="translate(-207.822 -93.249)" fill="#7f35ab"/>
    </g>
  </g>
</svg>
