<svg xmlns="http://www.w3.org/2000/svg" width="90" height="90" viewBox="0 0 90 90">
  <g id="Group_1145372" data-name="Group 1145372" transform="translate(-912 -10367)">
    <g id="Fondo" transform="translate(912 10367)" fill="#fffbe8" stroke="#bca724" stroke-width="3">
      <circle cx="45" cy="45" r="45" stroke="none"/>
      <circle cx="45" cy="45" r="43.5" fill="none"/>
    </g>
    <g id="_x30_8_Chart" transform="translate(914.075 10370.424)">
      <g id="Group_1145371" data-name="Group 1145371" transform="translate(17.441 17.816)">
        <path id="Path_979579" data-name="Path 979579" d="M92.487,231.493V245.52H86.475V227.412h6.012Z" transform="translate(-78.956 -204.582)" fill="#fec961"/>
        <path id="Path_979580" data-name="Path 979580" d="M187.509,289.285v7.732H181.5V285.2h6.012Z" transform="translate(-163.628 -256.079)" fill="#78c750"/>
        <path id="Path_979581" data-name="Path 979581" d="M282.531,183.5v19.254H276.52V179.419h6.011Z" transform="translate(-248.301 -161.817)" fill="#fec961"/>
        <path id="Path_979582" data-name="Path 979582" d="M377.554,212.229v16.125h-6.012V208.148h6.012Z" transform="translate(-332.973 -187.417)" fill="#78c750"/>
        <g id="Group_1145370" data-name="Group 1145370" transform="translate(0 0)">
          <path id="Path_979583" data-name="Path 979583" d="M18.249,64.989h3.175V68.9a.808.808,0,0,0,1.616,0V64.989H26.4V68.9a.808.808,0,0,0,1.616,0V64.989h3.362V68.9A.808.808,0,0,0,33,68.9V64.989h3.363V68.9a.808.808,0,0,0,1.616,0V64.989h3.362V68.9a.808.808,0,0,0,1.616,0V64.989h3.363V68.9a.808.808,0,0,0,1.616,0V64.989h3.363V68.9a.808.808,0,0,0,1.616,0V64.989H56.27V68.9a.808.808,0,1,0,1.616,0V64.989H68.6a.808.808,0,0,0,0-1.616H19.056V18.624a.808.808,0,0,0-1.616,0V64.181a.807.807,0,0,0,.808.808Z" transform="translate(-17.441 -17.816)"/>
          <path id="Path_979584" data-name="Path 979584" d="M79.865,220a.808.808,0,0,0-.808.808v18.108a.808.808,0,0,0,.808.808h6.012a.808.808,0,0,0,.808-.808V220.8a.808.808,0,0,0-.808-.808H79.865Zm5.2,18.108h-4.4V221.612h4.4V238.1Z" transform="translate(-72.346 -197.974)"/>
          <path id="Path_979585" data-name="Path 979585" d="M174.89,277.787a.808.808,0,0,0-.808.808v11.813a.808.808,0,0,0,.808.808H180.9a.808.808,0,0,0,.808-.808V278.595a.808.808,0,0,0-.808-.808Zm5.2,11.813h-4.4V279.4h4.4Z" transform="translate(-157.02 -249.47)"/>
          <path id="Path_979586" data-name="Path 979586" d="M269.912,172a.808.808,0,0,0-.808.808v23.335a.808.808,0,0,0,.808.808h6.012a.808.808,0,0,0,.808-.808V172.812a.808.808,0,0,0-.808-.808Zm5.2,23.335h-4.4V173.62h4.4Z" transform="translate(-241.692 -155.21)"/>
          <path id="Path_979587" data-name="Path 979587" d="M364.934,200.733a.808.808,0,0,0-.808.808v20.206a.808.808,0,0,0,.808.808h6.012a.808.808,0,0,0,.808-.808V201.541a.808.808,0,0,0-.808-.808Zm5.2,20.206h-4.4V202.349h4.4Z" transform="translate(-326.364 -180.809)"/>
          <path id="Path_979588" data-name="Path 979588" d="M99.759,42.175h.009a.808.808,0,0,0,.808-.8l.062-5.322a.811.811,0,0,0-1.166-.734L94.7,37.681a.808.808,0,0,0,.716,1.448l2.138-1.058-6.11,9.439-9.475-8.495a.807.807,0,0,0-1.21.151L70.819,53.96l-9.954-8.947a.808.808,0,0,0-1.135.054l-5.513,6.008a.808.808,0,0,0,1.19,1.092l4.973-5.42,10.051,9.035a.808.808,0,0,0,1.21-.15l9.943-14.794,9.488,8.505a.809.809,0,0,0,1.218-.163l6.7-10.352-.03,2.528a.808.808,0,0,0,.8.817Z" transform="translate(-50.022 -33.339)"/>
        </g>
      </g>
    </g>
  </g>
</svg>
