<svg xmlns="http://www.w3.org/2000/svg" xmlns:xlink="http://www.w3.org/1999/xlink" width="108" height="108" viewBox="0 0 108 108">
  <defs>
    <filter id="Path_904820" x="0" y="0" width="108" height="108" filterUnits="userSpaceOnUse">
      <feOffset dy="3" input="SourceAlpha"/>
      <feGaussianBlur stdDeviation="3" result="blur"/>
      <feFlood flood-opacity="0.161"/>
      <feComposite operator="in" in2="blur"/>
      <feComposite in="SourceGraphic"/>
    </filter>
  </defs>
  <g id="Icono" transform="translate(-615.101 -5000)">
    <g transform="matrix(1, 0, 0, 1, 615.1, 5000)" filter="url(#Path_904820)">
      <g id="Path_904820-2" data-name="Path 904820" transform="translate(9 6)" fill="#ecf4fa">
        <path d="M 45 88.5 C 39.12687683105469 88.5 33.43022537231445 87.35007476806641 28.06830024719238 85.08217620849609 C 22.88852500915527 82.89131164550781 18.23629951477051 79.75458526611328 14.2408504486084 75.75914764404297 C 10.24541282653809 71.76370239257812 7.108687400817871 67.11147308349609 4.917825222015381 61.93170166015625 C 2.649924993515015 56.56977462768555 1.5 50.87312316894531 1.5 45 C 1.5 39.12687683105469 2.649924993515015 33.43022537231445 4.917825222015381 28.06830024719238 C 7.108687400817871 22.88852500915527 10.24541282653809 18.23629951477051 14.2408504486084 14.2408504486084 C 18.23629951477051 10.24541282653809 22.88852500915527 7.108687400817871 28.06830024719238 4.917825222015381 C 33.43022537231445 2.649924993515015 39.12687683105469 1.5 45 1.5 C 50.87312316894531 1.5 56.56977462768555 2.649924993515015 61.93170166015625 4.917825222015381 C 67.11147308349609 7.108687400817871 71.76370239257812 10.24541282653809 75.75914764404297 14.2408504486084 C 79.75458526611328 18.23629951477051 82.89131164550781 22.88852500915527 85.08217620849609 28.06830024719238 C 87.35007476806641 33.43022537231445 88.5 39.12687683105469 88.5 45 C 88.5 50.87312316894531 87.35007476806641 56.56977462768555 85.08217620849609 61.93170166015625 C 82.89131164550781 67.11147308349609 79.75458526611328 71.76370239257812 75.75914764404297 75.75914764404297 C 71.76370239257812 79.75458526611328 67.11147308349609 82.89131164550781 61.93170166015625 85.08217620849609 C 56.56977462768555 87.35007476806641 50.87312316894531 88.5 45 88.5 Z" stroke="none"/>
        <path d="M 45 3 C 39.32871246337891 3 33.82865524291992 4.110054016113281 28.65262985229492 6.299339294433594 C 23.65165710449219 8.414573669433594 19.15968322753906 11.44334411621094 15.301513671875 15.301513671875 C 11.44334411621094 19.15968322753906 8.414573669433594 23.65165710449219 6.299339294433594 28.65262985229492 C 4.110054016113281 33.82865524291992 3 39.32871246337891 3 45 C 3 50.67128753662109 4.110054016113281 56.17134475708008 6.299339294433594 61.34737396240234 C 8.414573669433594 66.34834289550781 11.44334411621094 70.84031677246094 15.301513671875 74.698486328125 C 19.15968322753906 78.55665588378906 23.65165710449219 81.58542633056641 28.65262985229492 83.70066070556641 C 33.82865524291992 85.88994598388672 39.32871246337891 87 45 87 C 50.67128753662109 87 56.17134475708008 85.88994598388672 61.34737396240234 83.70066070556641 C 66.34834289550781 81.58542633056641 70.84031677246094 78.55665588378906 74.698486328125 74.698486328125 C 78.55665588378906 70.84031677246094 81.58542633056641 66.34834289550781 83.70066070556641 61.34737396240234 C 85.88994598388672 56.17134475708008 87 50.67128753662109 87 45 C 87 39.32871246337891 85.88994598388672 33.82865524291992 83.70066070556641 28.65262985229492 C 81.58542633056641 23.65165710449219 78.55665588378906 19.15968322753906 74.698486328125 15.301513671875 C 70.84031677246094 11.44334411621094 66.34834289550781 8.414573669433594 61.34737396240234 6.299339294433594 C 56.17134475708008 4.110054016113281 50.67128753662109 3 45 3 M 45 0 C 69.85281372070312 0 90 20.14718627929688 90 45 C 90 69.85281372070312 69.85281372070312 90 45 90 C 20.14718627929688 90 0 69.85281372070312 0 45 C 0 20.14718627929688 20.14718627929688 0 45 0 Z" stroke="none" fill="#2a5673"/>
      </g>
    </g>
    <g id="Group_1145323" data-name="Group 1145323" transform="translate(644.459 5026.358)">
      <path id="Path_979482" data-name="Path 979482" d="M11.82,8.533H52.89a3.286,3.286,0,0,1,3.286,3.286v41.07a3.286,3.286,0,0,1-3.286,3.286H11.82a3.286,3.286,0,0,1-3.286-3.286V11.819A3.286,3.286,0,0,1,11.82,8.533Z" transform="translate(-7.713 -7.712)" fill="#607d8b"/>
      <path id="Path_979483" data-name="Path 979483" d="M11.82,8.533H49.6a3.286,3.286,0,0,1,3.286,3.286v41.07A3.286,3.286,0,0,1,49.6,56.174H11.82a3.286,3.286,0,0,1-3.286-3.286V11.819A3.286,3.286,0,0,1,11.82,8.533Z" transform="translate(-7.713 -7.712)" fill="#cfd8dc"/>
      <path id="Path_979484" data-name="Path 979484" d="M52.021,71.735a.822.822,0,0,1-.821-.821A19.713,19.713,0,0,1,70.914,51.2a.821.821,0,0,1,0,1.643A18.071,18.071,0,0,0,52.843,70.914.822.822,0,0,1,52.021,71.735Z" transform="translate(-46.272 -46.272)"/>
      <path id="Path_979485" data-name="Path 979485" d="M267.181,71.628a.822.822,0,0,1-.821-.821v-.821A.822.822,0,0,1,268,69.9v.821a.822.822,0,0,1-.821.821v.082Zm-.468-4.107a.821.821,0,0,1-.821-.641q-.09-.386-.189-.756a.822.822,0,0,1,1.585-.435q.115.41.205.821a.822.822,0,0,1-.624.978Zm-1.339-3.836a.821.821,0,0,1-.747-.468c-.109-.236-.228-.468-.353-.7a.821.821,0,0,1,1.436-.8c.007.011.012.022.018.034q.2.378.386.764a.822.822,0,0,1-.388,1.095.809.809,0,0,1-.351.08v-.008Zm-2.136-3.491a.823.823,0,0,1-.649-.32q-.238-.312-.493-.608a.822.822,0,0,1,1.257-1.06l.542.665a.821.821,0,0,1-.649,1.322ZM260.4,57.245a.823.823,0,0,1-.526-.189l-.616-.493a.823.823,0,1,1,1-1.306l.673.534a.821.821,0,0,1-.526,1.454Zm-3.409-2.275a.815.815,0,0,1-.378-.09l-.715-.394a.821.821,0,0,1,.7-1.487l.731.419a.821.821,0,0,1-.378,1.552Zm-3.828-1.487a.844.844,0,0,1-.214,0l-.764-.189a.84.84,0,1,1,.353-1.643l.821.205a.828.828,0,1,1-.214,1.643Zm-4.05-.641h-.821a.821.821,0,0,1,0-1.643h.821a.821.821,0,0,1,0,1.643Z" transform="translate(-223.646 -46.272)"/>
      <path id="Path_979486" data-name="Path 979486" d="M138.972,124.9a13.964,13.964,0,0,1-13.964,13.964h0a13.4,13.4,0,0,1-1.643-.1,13.964,13.964,0,0,1,0-27.73,13.394,13.394,0,0,1,1.643-.1A13.964,13.964,0,0,1,138.972,124.9Z" transform="translate(-100.366 -100.256)" fill="#00838f"/>
      <path id="Path_979487" data-name="Path 979487" d="M135.687,125.823a13.964,13.964,0,0,1-12.321,13.865,13.964,13.964,0,0,1,0-27.73A13.963,13.963,0,0,1,135.687,125.823Z" transform="translate(-100.367 -101.181)" fill="#00bcd4"/>
      <path id="Path_979488" data-name="Path 979488" d="M117.185,131.97a14.785,14.785,0,1,1,14.785-14.785A14.785,14.785,0,0,1,117.185,131.97Zm0-27.928a13.142,13.142,0,1,0,13.142,13.142A13.142,13.142,0,0,0,117.185,104.043Z" transform="translate(-92.543 -92.543)"/>
      <circle id="Ellipse_11604" data-name="Ellipse 11604" cx="5.75" cy="5.75" r="5.75" transform="translate(18.892 18.892)" fill="#00838f"/>
      <path id="Path_979489" data-name="Path 979489" d="M194.3,200.875a6.571,6.571,0,1,1,6.571-6.571A6.572,6.572,0,0,1,194.3,200.875Zm0-11.5a4.928,4.928,0,1,0,4.928,4.928A4.928,4.928,0,0,0,194.3,189.376Z" transform="translate(-169.662 -169.662)"/>
      <path id="Path_979490" data-name="Path 979490" d="M248.288,158.529a.822.822,0,0,1-.821-.821v-3.286a.821.821,0,1,1,1.643,0v3.286A.822.822,0,0,1,248.288,158.529Z" transform="translate(-223.646 -138.816)"/>
      <path id="Path_979491" data-name="Path 979491" d="M248.288,105.686a.822.822,0,0,1-.821-.821v-1.643a.821.821,0,0,1,1.643,0v1.643A.822.822,0,0,1,248.288,105.686Z" transform="translate(-223.646 -92.543)"/>
      <path id="Path_979492" data-name="Path 979492" d="M248.288,378.753a.822.822,0,0,1-.821-.821v-1.643a.821.821,0,0,1,1.643,0v1.643A.822.822,0,0,1,248.288,378.753Z" transform="translate(-223.646 -339.325)"/>
      <path id="Path_979493" data-name="Path 979493" d="M199.341,114.58a.821.821,0,0,1-.772-.542l-.559-1.544a.821.821,0,0,1,1.544-.559l.559,1.544a.821.821,0,0,1-.493,1.051A.81.81,0,0,1,199.341,114.58Z" transform="translate(-178.912 -100.69)"/>
      <path id="Path_979494" data-name="Path 979494" d="M292.7,371.348a.821.821,0,0,1-.772-.542l-.559-1.544a.821.821,0,0,1,1.544-.559l.559,1.544a.821.821,0,0,1-.493,1.051A.811.811,0,0,1,292.7,371.348Z" transform="translate(-263.281 -332.743)"/>
      <path id="Path_979495" data-name="Path 979495" d="M156.037,139.22a.822.822,0,0,1-.633-.3l-1.06-1.257a.822.822,0,0,1,1.257-1.06l1.06,1.257a.821.821,0,0,1-.624,1.347Z" transform="translate(-139.313 -123.195)"/>
      <path id="Path_979496" data-name="Path 979496" d="M331.567,348.2a.822.822,0,0,1-.633-.3l-1.06-1.257a.822.822,0,1,1,1.257-1.06l1.06,1.257a.821.821,0,0,1-.624,1.355Z" transform="translate(-297.947 -312.061)"/>
      <path id="Path_979497" data-name="Path 979497" d="M123.728,177.267a.825.825,0,0,1-.411-.107l-1.421-.821a.822.822,0,0,1,.761-1.456c.021.011.04.022.06.034l1.421.821a.822.822,0,0,1-.411,1.529Z" transform="translate(-109.764 -157.964)"/>
      <path id="Path_979498" data-name="Path 979498" d="M360.837,314.135a.826.826,0,0,1-.411-.107l-1.421-.821a.821.821,0,0,1,.821-1.421l1.421.821a.821.821,0,0,1-.411,1.536v-.008Z" transform="translate(-324.104 -281.689)"/>
      <path id="Path_979499" data-name="Path 979499" d="M106.746,224.1h-.14l-1.643-.288a.834.834,0,1,1,.288-1.643l1.643.288a.824.824,0,1,1-.14,1.643Z" transform="translate(-94.236 -200.776)"/>
      <path id="Path_979500" data-name="Path 979500" d="M375.631,271.89h-.14l-1.643-.288a.834.834,0,1,1,.287-1.643l1.643.288a.824.824,0,0,1-.14,1.643Z" transform="translate(-337.239 -243.963)"/>
      <path id="Path_979501" data-name="Path 979501" d="M104.756,271.89a.824.824,0,0,1-.14-1.643l1.643-.288a.834.834,0,1,1,.288,1.643l-1.643.288Z" transform="translate(-93.864 -243.963)"/>
      <path id="Path_979502" data-name="Path 979502" d="M373.641,224.1a.824.824,0,1,1-.14-1.643l1.643-.288a.834.834,0,1,1,.288,1.643l-1.643.288Z" transform="translate(-336.867 -200.776)"/>
      <path id="Path_979503" data-name="Path 979503" d="M122.623,314.053a.821.821,0,0,1-.411-1.536l1.421-.821a.821.821,0,0,1,.821,1.421l-1.421.821A.821.821,0,0,1,122.623,314.053Z" transform="translate(-110.072 -281.608)"/>
      <path id="Path_979504" data-name="Path 979504" d="M359.167,177.195a.821.821,0,0,1-.411-1.536l1.421-.821a.821.821,0,1,1,.881,1.386c-.02.012-.039.024-.06.034l-1.421.821A.814.814,0,0,1,359.167,177.195Z" transform="translate(-323.847 -157.892)"/>
      <path id="Path_979505" data-name="Path 979505" d="M155.081,348.279a.821.821,0,0,1-.624-1.347l1.06-1.257a.822.822,0,1,1,1.257,1.06h0l-1.06,1.257A.82.82,0,0,1,155.081,348.279Z" transform="translate(-139.417 -312.137)"/>
      <path id="Path_979506" data-name="Path 979506" d="M330.611,139.3a.821.821,0,0,1-.624-1.347l1.06-1.257a.822.822,0,0,1,1.257,1.06l-1.06,1.257A.82.82,0,0,1,330.611,139.3Z" transform="translate(-298.05 -123.272)"/>
      <path id="Path_979507" data-name="Path 979507" d="M198.71,371.347a.811.811,0,0,1-.279-.049.821.821,0,0,1-.493-1.051l.559-1.544a.821.821,0,0,1,1.544.558l-.559,1.544A.821.821,0,0,1,198.71,371.347Z" transform="translate(-178.84 -332.741)"/>
      <path id="Path_979508" data-name="Path 979508" d="M292.065,114.579a.811.811,0,0,1-.279-.049.821.821,0,0,1-.493-1.051l.559-1.544a.821.821,0,0,1,1.544.558l-.559,1.544A.821.821,0,0,1,292.065,114.579Z" transform="translate(-263.209 -100.689)"/>
      <path id="Path_979509" data-name="Path 979509" d="M45.177,49.284H4.107A4.107,4.107,0,0,1,0,45.177V4.107A4.107,4.107,0,0,1,4.107,0h41.07a4.107,4.107,0,0,1,4.107,4.107v41.07A4.107,4.107,0,0,1,45.177,49.284ZM4.107,1.643A2.464,2.464,0,0,0,1.643,4.107v41.07a2.464,2.464,0,0,0,2.464,2.464h41.07a2.464,2.464,0,0,0,2.464-2.464h0V4.107a2.464,2.464,0,0,0-2.464-2.464Z"/>
      <circle id="Ellipse_11605" data-name="Ellipse 11605" cx="2.464" cy="2.464" r="2.464" transform="translate(40.249 40.249)" fill="#f44335"/>
      <path id="Path_979510" data-name="Path 979510" d="M412.886,416.172a3.286,3.286,0,1,1,3.286-3.286A3.286,3.286,0,0,1,412.886,416.172Zm0-4.928a1.643,1.643,0,1,0,1.643,1.643A1.642,1.642,0,0,0,412.886,411.244Z" transform="translate(-370.173 -370.174)"/>
      <path id="Path_979511" data-name="Path 979511" d="M43.487,462.269h-.164l-.148-.049a.624.624,0,0,1-.148-.074l-.123-.1a.955.955,0,0,1-.172-.271.84.84,0,0,1,.172-.912l.123-.1a.625.625,0,0,1,.148-.074.508.508,0,0,1,.148-.066.7.7,0,0,1,.32,0,.5.5,0,0,1,.156.049.459.459,0,0,1,.14.074l.131.1a.866.866,0,0,1,.238.6.829.829,0,0,1-.066.312.956.956,0,0,1-.172.271l-.131.1a.458.458,0,0,1-.14.074.523.523,0,0,1-.156.049Z" transform="translate(-38.559 -416.271)"/>
      <path id="Path_979512" data-name="Path 979512" d="M79.767,462.444H69.088a.821.821,0,1,1,0-1.643H79.767a.821.821,0,1,1,0,1.643Z" transform="translate(-61.696 -416.445)"/>
    </g>
  </g>
</svg>
