<svg xmlns="http://www.w3.org/2000/svg" xmlns:xlink="http://www.w3.org/1999/xlink" width="108" height="108" viewBox="0 0 108 108">
  <defs>
    <filter id="Fondo" x="0" y="0" width="108" height="108" filterUnits="userSpaceOnUse">
      <feOffset dy="3" input="SourceAlpha"/>
      <feGaussianBlur stdDeviation="3" result="blur"/>
      <feFlood flood-opacity="0.161"/>
      <feComposite operator="in" in2="blur"/>
      <feComposite in="SourceGraphic"/>
    </filter>
  </defs>
  <g id="Icono" transform="translate(9.166 -689)">
    <g transform="matrix(1, 0, 0, 1, -9.17, 689)" filter="url(#Fondo)">
      <g id="Fondo-2" data-name="Fondo" transform="translate(9 6)" fill="#fffbe8">
        <path d="M 45 88.5 C 39.12687683105469 88.5 33.43022537231445 87.35007476806641 28.06830024719238 85.08217620849609 C 22.88852500915527 82.89131164550781 18.23629951477051 79.75458526611328 14.2408504486084 75.75914764404297 C 10.24541282653809 71.76370239257812 7.108687400817871 67.11147308349609 4.917825222015381 61.93170166015625 C 2.649924993515015 56.56977462768555 1.5 50.87312316894531 1.5 45 C 1.5 39.12687683105469 2.649924993515015 33.43022537231445 4.917825222015381 28.06830024719238 C 7.108687400817871 22.88852500915527 10.24541282653809 18.23629951477051 14.2408504486084 14.2408504486084 C 18.23629951477051 10.24541282653809 22.88852500915527 7.108687400817871 28.06830024719238 4.917825222015381 C 33.43022537231445 2.649924993515015 39.12687683105469 1.5 45 1.5 C 50.87312316894531 1.5 56.56977462768555 2.649924993515015 61.93170166015625 4.917825222015381 C 67.11147308349609 7.108687400817871 71.76370239257812 10.24541282653809 75.75914764404297 14.2408504486084 C 79.75458526611328 18.23629951477051 82.89131164550781 22.88852500915527 85.08217620849609 28.06830024719238 C 87.35007476806641 33.43022537231445 88.5 39.12687683105469 88.5 45 C 88.5 50.87312316894531 87.35007476806641 56.56977462768555 85.08217620849609 61.93170166015625 C 82.89131164550781 67.11147308349609 79.75458526611328 71.76370239257812 75.75914764404297 75.75914764404297 C 71.76370239257812 79.75458526611328 67.11147308349609 82.89131164550781 61.93170166015625 85.08217620849609 C 56.56977462768555 87.35007476806641 50.87312316894531 88.5 45 88.5 Z" stroke="none"/>
        <path d="M 45 3 C 39.32871246337891 3 33.82865524291992 4.110054016113281 28.65262985229492 6.299339294433594 C 23.65165710449219 8.414573669433594 19.15968322753906 11.44334411621094 15.301513671875 15.301513671875 C 11.44334411621094 19.15968322753906 8.414573669433594 23.65165710449219 6.299339294433594 28.65262985229492 C 4.110054016113281 33.82865524291992 3 39.32871246337891 3 45 C 3 50.67128753662109 4.110054016113281 56.17134475708008 6.299339294433594 61.34737396240234 C 8.414573669433594 66.34834289550781 11.44334411621094 70.84031677246094 15.301513671875 74.698486328125 C 19.15968322753906 78.55665588378906 23.65165710449219 81.58542633056641 28.65262985229492 83.70066070556641 C 33.82865524291992 85.88994598388672 39.32871246337891 87 45 87 C 50.67128753662109 87 56.17134475708008 85.88994598388672 61.34737396240234 83.70066070556641 C 66.34834289550781 81.58542633056641 70.84031677246094 78.55665588378906 74.698486328125 74.698486328125 C 78.55665588378906 70.84031677246094 81.58542633056641 66.34834289550781 83.70066070556641 61.34737396240234 C 85.88994598388672 56.17134475708008 87 50.67128753662109 87 45 C 87 39.32871246337891 85.88994598388672 33.82865524291992 83.70066070556641 28.65262985229492 C 81.58542633056641 23.65165710449219 78.55665588378906 19.15968322753906 74.698486328125 15.301513671875 C 70.84031677246094 11.44334411621094 66.34834289550781 8.414573669433594 61.34737396240234 6.299339294433594 C 56.17134475708008 4.110054016113281 50.67128753662109 3 45 3 M 45 0 C 69.85281372070312 0 90 20.14718627929688 90 45 C 90 69.85281372070312 69.85281372070312 90 45 90 C 20.14718627929688 90 0 69.85281372070312 0 45 C 0 20.14718627929688 20.14718627929688 0 45 0 Z" stroke="none" fill="#bca724"/>
      </g>
    </g>
    <g id="Group_1145355" data-name="Group 1145355" transform="translate(17.886 713.55)">
      <g id="Group_1145354" data-name="Group 1145354" transform="translate(18.864 0.898)">
        <path id="Path_979538" data-name="Path 979538" d="M168,8h16.169v5.39H168Zm0,0" transform="translate(-168 -8)" fill="#cf71fb"/>
        <path id="Path_979539" data-name="Path 979539" d="M168,96h16.169v5.39H168Zm0,0" transform="translate(-168 -86.119)" fill="#cf71fb"/>
        <path id="Path_979540" data-name="Path 979540" d="M168,320h16.169v5.39H168Zm0,0" transform="translate(-168 -284.967)" fill="#cf71fb"/>
      </g>
      <path id="Path_979541" data-name="Path 979541" d="M183.43,181.785l6.352-6.352,6.352,6.352-6.352,6.352Zm0,0" transform="translate(-162.833 -155.735)" fill="#f96437"/>
      <path id="Path_979542" data-name="Path 979542" d="M202.779,413.39a5.39,5.39,0,1,1-5.39-5.39A5.39,5.39,0,0,1,202.779,413.39Zm0,0" transform="translate(-170.441 -362.187)" fill="#fddf81"/>
      <path id="Path_979543" data-name="Path 979543" d="M15.186,203.593A3.593,3.593,0,1,1,11.593,200,3.593,3.593,0,0,1,15.186,203.593Zm0,0" transform="translate(-7.102 -177.543)" fill="#fddf81"/>
      <path id="Path_979544" data-name="Path 979544" d="M415.186,91.593A3.593,3.593,0,1,1,411.593,88,3.593,3.593,0,0,1,415.186,91.593Zm0,0" transform="translate(-362.187 -78.119)" fill="#fddf81"/>
      <path id="Path_979545" data-name="Path 979545" d="M96,224h1.8v1.8H96Zm0,0" transform="translate(-85.221 -198.848)"/>
      <path id="Path_979546" data-name="Path 979546" d="M128,224h1.8v1.8H128Zm0,0" transform="translate(-113.627 -198.848)"/>
      <path id="Path_979547" data-name="Path 979547" d="M50.3,9.074V3.593a.9.9,0,0,0-.9-.9H35.931V.9a.9.9,0,0,0-.9-.9H18.864a.9.9,0,0,0-.9.9v1.8H11.678a.9.9,0,0,0-.9.9v8.983H4.491a.9.9,0,0,0-.9.9V21.65a4.491,4.491,0,0,0,0,8.8v8.175a.9.9,0,0,0,.9.9H17.966v1.8a.9.9,0,0,0,.9.9H26.05v2.767A6.284,6.284,0,1,0,33.165,52.1h9.953a.9.9,0,0,0,.9-.9V26.949h5.39a.9.9,0,0,0,.9-.9V17.875a4.491,4.491,0,0,0,0-8.8ZM19.762,1.8H34.135V5.39H19.762ZM12.576,4.491h5.39v1.8a.9.9,0,0,0,.9.9H26.05V9.881H18.864a.9.9,0,0,0-.9.9v1.8h-5.39Zm21.559,7.186v3.593H19.762V11.678ZM1.8,26.05a2.695,2.695,0,1,1,2.695,2.695A2.7,2.7,0,0,1,1.8,26.05Zm16.169,9.881v1.8H5.39V30.451a4.491,4.491,0,0,0,0-8.8V14.373H17.966v1.8a.9.9,0,0,0,.9.9H26.05v2.259l-5.825,5.825H17.966v1.8h2.259l5.825,5.825v2.259H18.864A.9.9,0,0,0,17.966,35.931Zm8.983-14.963L32.03,26.05l-5.082,5.082L21.867,26.05ZM19.762,36.83H34.135v3.593H19.762Zm7.186,18.864A4.491,4.491,0,1,1,31.44,51.2,4.5,4.5,0,0,1,26.949,55.694ZM42.219,50.3H33.165a6.3,6.3,0,0,0-5.318-5.319V42.219h7.186a.9.9,0,0,0,.9-.9v-5.39a.9.9,0,0,0-.9-.9H27.847V32.774l5.825-5.825h8.547Zm6.288-25.152H33.672l-5.825-5.825V17.067h7.186a.9.9,0,0,0,.9-.9v-5.39a.9.9,0,0,0-.9-.9H27.847V7.186h7.186a.9.9,0,0,0,.9-.9v-1.8H48.508V9.074a4.491,4.491,0,0,0,0,8.8Zm.9-8.983A2.695,2.695,0,1,1,52.1,13.474,2.7,2.7,0,0,1,49.406,16.169Zm0,0"/>
    </g>
  </g>
</svg>
