<svg xmlns="http://www.w3.org/2000/svg" width="38.113" height="35.816" viewBox="0 0 38.113 35.816">
  <g id="Group_1145414" data-name="Group 1145414" transform="translate(-270.442 -2476.395)">
    <g id="_09_robot_arm" data-name="09 robot arm" transform="translate(266.94 2471.177)">
      <path id="Path_979635" data-name="Path 979635" d="M37.116,32.035H19.97V28.871a1.436,1.436,0,0,0-1.438-1.431h-.481V20.868a5.216,5.216,0,0,0,.741-2.221l4.739-4.578a4.474,4.474,0,0,0,1.131.15c.047,0,.092-.005.138-.007l2.258,2.258v1.147L23.46,20.7a.669.669,0,0,0-.233.508V27.3a.669.669,0,0,0,.963.6l3.126-1.533a.669.669,0,0,0,.374-.614l-.055-2.7,2.39-1.912,2.389,1.912-.055,2.7a.669.669,0,0,0,.374.614L35.861,27.9a.669.669,0,0,0,.962-.6V21.21a.669.669,0,0,0-.233-.508l-3.6-3.085v-.966a3.359,3.359,0,0,0-.449-4.172L29.1,9.04a4.493,4.493,0,0,0-8.814-.37l-6.9,4.219a5.25,5.25,0,0,0-4.338,7.979V27.44H8.569a1.432,1.432,0,0,0-1.431,1.431v3.25A4.5,4.5,0,0,0,8,41.034H37.116a4.5,4.5,0,0,0,0-9ZM26.543,22.221a.669.669,0,0,0-.251.535l.053,2.6-1.78.873V21.522l2.493-2.14v.3a1.433,1.433,0,0,0,.974,1.352Zm5.112-2.541a.1.1,0,0,1-.1.1H28.493a.1.1,0,0,1-.1-.1v-2a3.281,3.281,0,0,0,3.26.154Zm1.337,0v-.3l2.493,2.14v4.711l-1.78-.869.053-2.6a.669.669,0,0,0-.251-.535l-1.488-1.19a1.434,1.434,0,0,0,.97-1.36Zm-3.978-8.84L31.6,13.424a2.013,2.013,0,1,1-2.847,2.847l-2.389-2.389a4.516,4.516,0,0,0,2.653-3.042ZM24.662,6.556A3.162,3.162,0,1,1,21.5,9.718,3.162,3.162,0,0,1,24.662,6.556ZM20.2,10.288a4.5,4.5,0,0,0,2.006,3.195l-3.544,3.424A5.283,5.283,0,0,0,15.4,13.224Zm-6.651,3.927a3.928,3.928,0,1,1-3.928,3.928,3.928,3.928,0,0,1,3.928-3.928Zm3.162,8.132V27.44H10.388V22.347a5.226,5.226,0,0,0,6.324,0ZM8.476,28.871a.094.094,0,0,1,.094-.094h9.963a.1.1,0,0,1,.1.094v3.165H8.476ZM37.116,39.7H8a3.162,3.162,0,1,1,0-6.324H37.116a3.162,3.162,0,1,1,0,6.324Z" transform="translate(0 0)" fill="#7f35ab"/>
      <path id="Path_979636" data-name="Path 979636" d="M37.007,48.677a2.251,2.251,0,0,0-2.14,1.585H31.056a2.24,2.24,0,0,0-4.285,0H22.949a2.24,2.24,0,0,0-4.285,0h-3.8c-.006,0-.011,0-.017,0a2.255,2.255,0,1,0,0,1.331h3.812a2.241,2.241,0,0,0,4.287,0h3.811a2.241,2.241,0,0,0,4.287,0h3.811A2.251,2.251,0,1,0,37,48.674Zm-24.3,3.174a.918.918,0,1,1,.916-.918A.918.918,0,0,1,12.707,51.851Zm8.1,0a.918.918,0,1,1,.918-.918A.918.918,0,0,1,20.807,51.851Zm8.1,0a.918.918,0,1,1,.918-.918A.918.918,0,0,1,28.907,51.851Zm8.1,0a.918.918,0,0,1-.916-.913v-.013a.918.918,0,1,1,.917.925Z" transform="translate(-2.299 -14.398)" fill="#7f35ab"/>
      <path id="Path_979637" data-name="Path 979637" d="M17.232,25.875a2.623,2.623,0,1,0-2.623-2.623,2.623,2.623,0,0,0,2.623,2.623Zm0-3.908a1.285,1.285,0,1,1-1.285,1.285,1.285,1.285,0,0,1,1.285-1.285Z" transform="translate(-3.68 -5.106)" fill="#7f35ab"/>
      <path id="Path_979638" data-name="Path 979638" d="M34.09,13.023a2.131,2.131,0,1,0-2.131-2.131A2.131,2.131,0,0,0,34.09,13.023Zm0-2.925a.794.794,0,1,1-.794.794A.794.794,0,0,1,34.09,10.1Z" transform="translate(-9.428 -1.174)" fill="#7f35ab"/>
    </g>
  </g>
</svg>
