<svg xmlns="http://www.w3.org/2000/svg" width="90" height="90" viewBox="0 0 90 90">
  <g id="Group_1145369" data-name="Group 1145369" transform="translate(-282 -10367)">
    <g id="Fondo" transform="translate(282 10367)" fill="#fffbe8" stroke="#bca724" stroke-width="3">
      <circle cx="45" cy="45" r="45" stroke="none"/>
      <circle cx="45" cy="45" r="43.5" fill="none"/>
    </g>
    <g id="Group_1145368" data-name="Group 1145368" transform="translate(302.445 10386.945)">
      <g id="Group_1145365" data-name="Group 1145365" transform="translate(3.29 0.734)">
        <g id="Group_1145359" data-name="Group 1145359" transform="translate(6.684 29.036)">
          <circle id="Ellipse_11626" data-name="Ellipse 11626" cx="1.869" cy="1.869" r="1.869" fill="#c8effe"/>
        </g>
        <g id="Group_1145360" data-name="Group 1145360" transform="translate(7.923 9.708)">
          <circle id="Ellipse_11627" data-name="Ellipse 11627" cx="1.869" cy="1.869" r="1.869" transform="translate(0 7.211)" fill="#c8effe"/>
          <circle id="Ellipse_11628" data-name="Ellipse 11628" cx="1.869" cy="1.869" r="1.869" transform="translate(8.339 10.089)" fill="#c8effe"/>
          <circle id="Ellipse_11629" data-name="Ellipse 11629" cx="1.869" cy="1.869" r="1.869" transform="translate(25.089 10.948)" fill="#c8effe"/>
          <circle id="Ellipse_11630" data-name="Ellipse 11630" cx="1.869" cy="1.869" r="1.869" transform="translate(21.352 18.824)" fill="#c8effe"/>
          <circle id="Ellipse_11631" data-name="Ellipse 11631" cx="1.869" cy="1.869" r="1.869" transform="translate(28.826 19.857)" fill="#c8effe"/>
          <circle id="Ellipse_11632" data-name="Ellipse 11632" cx="1.869" cy="1.869" r="1.869" transform="translate(12.775 23.786)" fill="#c8effe"/>
          <circle id="Ellipse_11633" data-name="Ellipse 11633" cx="1.869" cy="1.869" r="1.869" transform="translate(9.038 29.343)" fill="#c8effe"/>
          <circle id="Ellipse_11634" data-name="Ellipse 11634" cx="1.869" cy="1.869" r="1.869" transform="translate(10.106 1.869)" fill="#c8effe"/>
          <circle id="Ellipse_11635" data-name="Ellipse 11635" cx="1.869" cy="1.869" r="1.869" transform="translate(16.854)" fill="#c8effe"/>
        </g>
        <path id="Path_979564" data-name="Path 979564" d="M87.065,97.866A1.487,1.487,0,0,0,85.6,96.543H81.413a1.468,1.468,0,0,0,0,2.936h.647L49.043,132.5a1.468,1.468,0,1,0,2.076,2.076l33.017-33.017v.743a1.468,1.468,0,0,0,2.936,0V98.012A1.442,1.442,0,0,0,87.065,97.866Z" transform="translate(-47.145 -87.828)" fill="#d2cfe9"/>
        <g id="Group_1145361" data-name="Group 1145361" transform="translate(35.572 8.715)">
          <path id="Path_979565" data-name="Path 979565" d="M401.419,97.866a1.487,1.487,0,0,0-1.461-1.323h-2.887a1.486,1.486,0,0,1,1.461,1.323q.007.073.007.146l-.049,3.544v.743a1.468,1.468,0,0,0,2.936,0V98.012C401.426,97.963,401.424,97.914,401.419,97.866Z" transform="translate(-397.071 -96.543)" fill="#c2bce0"/>
        </g>
        <g id="Group_1145364" data-name="Group 1145364">
          <g id="Group_1145363" data-name="Group 1145363">
            <path id="Path_979566" data-name="Path 979566" d="M78.231,53.206H36.549V8.968a1.468,1.468,0,1,0-2.936,0V54.632a1.53,1.53,0,0,0,1.517,1.51H78.19a1.5,1.5,0,0,0,1.508-1.4,1.468,1.468,0,0,0-1.466-1.539Z" transform="translate(-33.613 -7.5)" fill="#fd8087"/>
            <g id="Group_1145362" data-name="Group 1145362" transform="translate(40.662 45.706)">
              <path id="Path_979567" data-name="Path 979567" d="M453.032,474.5h-3.915a1.468,1.468,0,0,1,1.466,1.539,1.5,1.5,0,0,1-1.508,1.4h3.915a1.5,1.5,0,0,0,1.508-1.4A1.468,1.468,0,0,0,453.032,474.5Z" transform="translate(-449.076 -474.5)" fill="#fe646f"/>
            </g>
          </g>
        </g>
      </g>
      <g id="Group_1145367" data-name="Group 1145367" transform="translate(0)">
        <g id="Group_1145366" data-name="Group 1145366" transform="translate(0)">
          <path id="Path_979568" data-name="Path 979568" d="M97.01,301.88a2.6,2.6,0,1,0-2.6-2.6A2.606,2.606,0,0,0,97.01,301.88Zm0-3.737a1.135,1.135,0,1,1-1.135,1.135A1.136,1.136,0,0,1,97.01,298.143Z" transform="translate(-85.167 -267.639)"/>
          <path id="Path_979569" data-name="Path 979569" d="M109.664,178.072a2.6,2.6,0,1,0-2.6-2.6A2.606,2.606,0,0,0,109.664,178.072Zm0-3.737a1.135,1.135,0,1,1-1.135,1.135A1.136,1.136,0,0,1,109.664,174.335Z" transform="translate(-96.583 -155.948)"/>
          <path id="Path_979570" data-name="Path 979570" d="M194.872,207.476a2.6,2.6,0,1,0-2.6-2.6A2.606,2.606,0,0,0,194.872,207.476Zm0-3.737a1.135,1.135,0,1,1-1.135,1.135A1.136,1.136,0,0,1,194.872,203.739Z" transform="translate(-173.451 -182.474)"/>
          <path id="Path_979571" data-name="Path 979571" d="M368.612,213.656a2.6,2.6,0,1,0-2.6,2.6A2.606,2.606,0,0,0,368.612,213.656Zm-3.737,0a1.135,1.135,0,1,1,1.135,1.135A1.136,1.136,0,0,1,364.875,213.656Z" transform="translate(-327.84 -190.397)"/>
          <path id="Path_979572" data-name="Path 979572" d="M327.826,291.526a2.6,2.6,0,1,0,2.6,2.6A2.606,2.606,0,0,0,327.826,291.526Zm0,3.737a1.135,1.135,0,1,1,1.135-1.135A1.136,1.136,0,0,1,327.826,295.263Z" transform="translate(-293.393 -262.994)"/>
          <path id="Path_979573" data-name="Path 979573" d="M404.2,307.289a2.6,2.6,0,1,0-2.6-2.6A2.606,2.606,0,0,0,404.2,307.289Zm0-3.737a1.135,1.135,0,1,1-1.135,1.135A1.136,1.136,0,0,1,404.2,303.552Z" transform="translate(-362.289 -272.519)"/>
          <path id="Path_979574" data-name="Path 979574" d="M242.8,344.827a2.6,2.6,0,1,0-2.6,2.6A2.606,2.606,0,0,0,242.8,344.827Zm-3.737,0a1.135,1.135,0,1,1,1.135,1.135A1.136,1.136,0,0,1,239.06,344.827Z" transform="translate(-214.339 -308.73)"/>
          <path id="Path_979575" data-name="Path 979575" d="M202.01,399a2.6,2.6,0,1,0,2.6,2.6A2.606,2.606,0,0,0,202.01,399Zm0,3.737a1.135,1.135,0,1,1,1.135-1.135A1.136,1.136,0,0,1,202.01,402.737Z" transform="translate(-179.891 -359.949)"/>
          <path id="Path_979576" data-name="Path 979576" d="M212.918,123.488a2.6,2.6,0,1,0-2.6-2.6A2.606,2.606,0,0,0,212.918,123.488Zm0-3.737a1.135,1.135,0,1,1-1.135,1.135A1.136,1.136,0,0,1,212.918,119.751Z" transform="translate(-189.731 -106.706)"/>
          <path id="Path_979577" data-name="Path 979577" d="M281.872,104.4a2.6,2.6,0,1,0-2.6-2.6A2.606,2.606,0,0,0,281.872,104.4Zm0-3.737a1.135,1.135,0,1,1-1.135,1.135A1.136,1.136,0,0,1,281.872,100.658Z" transform="translate(-251.937 -89.482)"/>
          <path id="Path_979578" data-name="Path 979578" d="M49.5,46.388a2.212,2.212,0,0,0-1.593-.682H10.074L29.032,26.748a.734.734,0,0,0-1.038-1.038l-20,20H6.96V44.668L38.724,12.9a.74.74,0,0,0-.519-1.253h-.647a.734.734,0,0,1,0-1.468h4.192a.8.8,0,0,1,.734.735V15.2a.734.734,0,0,1-1.468,0v-.743a.74.74,0,0,0-1.253-.519l-9.746,9.746a.734.734,0,0,0,1.038,1.038L39.72,16.06a2.2,2.2,0,0,0,4.231-.856V10.917a2.249,2.249,0,0,0-2.2-2.2H37.557a2.2,2.2,0,0,0-.922,4.2L6.96,42.592V13.307a.734.734,0,0,0-1.468,0V46.44a.734.734,0,0,0,.734.734H47.908a.734.734,0,0,1,.733.771.764.764,0,0,1-.775.7H4.807a.8.8,0,0,1-.783-.776V2.2a.734.734,0,1,1,1.468,0v8.175a.734.734,0,0,0,1.468,0V2.2a2.2,2.2,0,1,0-4.4,0V4.194H.734a.734.734,0,1,0,0,1.468H2.556v2.9H.734a.734.734,0,0,0,0,1.468H2.556v2.9H.734a.734.734,0,1,0,0,1.468H2.556v2.9H.734a.734.734,0,0,0,0,1.468H2.556v2.9H.734a.734.734,0,0,0,0,1.468H2.556v2.9H.734a.734.734,0,1,0,0,1.468H2.556v2.9H.734a.734.734,0,1,0,0,1.468H2.556v2.9H.734a.734.734,0,0,0,0,1.468H2.556v2.9H.734a.734.734,0,0,0,0,1.468H2.556v2.9H.734a.734.734,0,0,0,0,1.468H2.556v2.895A2.277,2.277,0,0,0,4.807,50.11h43.06a2.22,2.22,0,0,0,2.241-2.1,2.183,2.183,0,0,0-.606-1.625Z" transform="translate(0)"/>
        </g>
      </g>
    </g>
  </g>
</svg>
