<svg xmlns="http://www.w3.org/2000/svg" xmlns:xlink="http://www.w3.org/1999/xlink" width="108" height="108" viewBox="0 0 108 108">
  <defs>
    <filter id="Path_904820" x="0" y="0" width="108" height="108" filterUnits="userSpaceOnUse">
      <feOffset dy="3" input="SourceAlpha"/>
      <feGaussianBlur stdDeviation="3" result="blur"/>
      <feFlood flood-opacity="0.161"/>
      <feComposite operator="in" in2="blur"/>
      <feComposite in="SourceGraphic"/>
    </filter>
  </defs>
  <g id="Icono" transform="translate(-615.101 -5000)">
    <g transform="matrix(1, 0, 0, 1, 615.1, 5000)" filter="url(#Path_904820)">
      <g id="Path_904820-2" data-name="Path 904820" transform="translate(9 6)" fill="#ecf4fa">
        <path d="M 45 88.5 C 39.12687683105469 88.5 33.43022537231445 87.35007476806641 28.06830024719238 85.08217620849609 C 22.88852500915527 82.89131164550781 18.23629951477051 79.75458526611328 14.2408504486084 75.75914764404297 C 10.24541282653809 71.76370239257812 7.108687400817871 67.11147308349609 4.917825222015381 61.93170166015625 C 2.649924993515015 56.56977462768555 1.5 50.87312316894531 1.5 45 C 1.5 39.12687683105469 2.649924993515015 33.43022537231445 4.917825222015381 28.06830024719238 C 7.108687400817871 22.88852500915527 10.24541282653809 18.23629951477051 14.2408504486084 14.2408504486084 C 18.23629951477051 10.24541282653809 22.88852500915527 7.108687400817871 28.06830024719238 4.917825222015381 C 33.43022537231445 2.649924993515015 39.12687683105469 1.5 45 1.5 C 50.87312316894531 1.5 56.56977462768555 2.649924993515015 61.93170166015625 4.917825222015381 C 67.11147308349609 7.108687400817871 71.76370239257812 10.24541282653809 75.75914764404297 14.2408504486084 C 79.75458526611328 18.23629951477051 82.89131164550781 22.88852500915527 85.08217620849609 28.06830024719238 C 87.35007476806641 33.43022537231445 88.5 39.12687683105469 88.5 45 C 88.5 50.87312316894531 87.35007476806641 56.56977462768555 85.08217620849609 61.93170166015625 C 82.89131164550781 67.11147308349609 79.75458526611328 71.76370239257812 75.75914764404297 75.75914764404297 C 71.76370239257812 79.75458526611328 67.11147308349609 82.89131164550781 61.93170166015625 85.08217620849609 C 56.56977462768555 87.35007476806641 50.87312316894531 88.5 45 88.5 Z" stroke="none"/>
        <path d="M 45 3 C 39.32871246337891 3 33.82865524291992 4.110054016113281 28.65262985229492 6.299339294433594 C 23.65165710449219 8.414573669433594 19.15968322753906 11.44334411621094 15.301513671875 15.301513671875 C 11.44334411621094 19.15968322753906 8.414573669433594 23.65165710449219 6.299339294433594 28.65262985229492 C 4.110054016113281 33.82865524291992 3 39.32871246337891 3 45 C 3 50.67128753662109 4.110054016113281 56.17134475708008 6.299339294433594 61.34737396240234 C 8.414573669433594 66.34834289550781 11.44334411621094 70.84031677246094 15.301513671875 74.698486328125 C 19.15968322753906 78.55665588378906 23.65165710449219 81.58542633056641 28.65262985229492 83.70066070556641 C 33.82865524291992 85.88994598388672 39.32871246337891 87 45 87 C 50.67128753662109 87 56.17134475708008 85.88994598388672 61.34737396240234 83.70066070556641 C 66.34834289550781 81.58542633056641 70.84031677246094 78.55665588378906 74.698486328125 74.698486328125 C 78.55665588378906 70.84031677246094 81.58542633056641 66.34834289550781 83.70066070556641 61.34737396240234 C 85.88994598388672 56.17134475708008 87 50.67128753662109 87 45 C 87 39.32871246337891 85.88994598388672 33.82865524291992 83.70066070556641 28.65262985229492 C 81.58542633056641 23.65165710449219 78.55665588378906 19.15968322753906 74.698486328125 15.301513671875 C 70.84031677246094 11.44334411621094 66.34834289550781 8.414573669433594 61.34737396240234 6.299339294433594 C 56.17134475708008 4.110054016113281 50.67128753662109 3 45 3 M 45 0 C 69.85281372070312 0 90 20.14718627929688 90 45 C 90 69.85281372070312 69.85281372070312 90 45 90 C 20.14718627929688 90 0 69.85281372070312 0 45 C 0 20.14718627929688 20.14718627929688 0 45 0 Z" stroke="none" fill="#2a5673"/>
      </g>
    </g>
    <g id="Group_1145352" data-name="Group 1145352" transform="translate(634.037 4997.987)">
      <g id="Group_1145325" data-name="Group 1145325" transform="translate(31.594 22.855)">
        <circle id="Ellipse_11606" data-name="Ellipse 11606" cx="2.469" cy="2.469" r="2.469" transform="translate(0 0)" fill="#60b7ff"/>
      </g>
      <g id="Group_1145326" data-name="Group 1145326" transform="translate(31.594 78.231)">
        <circle id="Ellipse_11607" data-name="Ellipse 11607" cx="2.469" cy="2.469" r="2.469" fill="#60b7ff"/>
      </g>
      <g id="Group_1145327" data-name="Group 1145327" transform="translate(0.998 49.867)">
        <circle id="Ellipse_11608" data-name="Ellipse 11608" cx="2.469" cy="2.469" r="2.469" fill="#60b7ff"/>
      </g>
      <g id="Group_1145328" data-name="Group 1145328" transform="translate(62.191 49.867)">
        <circle id="Ellipse_11609" data-name="Ellipse 11609" cx="2.469" cy="2.469" r="2.469" fill="#60b7ff"/>
      </g>
      <g id="Group_1145329" data-name="Group 1145329" transform="translate(59.995 40.495)">
        <circle id="Ellipse_11610" data-name="Ellipse 11610" cx="2.469" cy="2.469" r="2.469" fill="#60b7ff"/>
      </g>
      <g id="Group_1145330" data-name="Group 1145330" transform="translate(7.832 40.495)">
        <circle id="Ellipse_11611" data-name="Ellipse 11611" cx="2.469" cy="2.469" r="2.469" fill="#60b7ff"/>
      </g>
      <g id="Group_1145333" data-name="Group 1145333" transform="translate(16.119 28.71)">
        <g id="Group_1145331" data-name="Group 1145331" transform="translate(30.951)">
          <circle id="Ellipse_11612" data-name="Ellipse 11612" cx="2.469" cy="2.469" r="2.469" transform="translate(0)" fill="#60b7ff"/>
        </g>
        <g id="Group_1145332" data-name="Group 1145332">
          <circle id="Ellipse_11613" data-name="Ellipse 11613" cx="2.469" cy="2.469" r="2.469" fill="#60b7ff"/>
        </g>
      </g>
      <g id="Group_1145336" data-name="Group 1145336" transform="translate(16.119 73.622)">
        <g id="Group_1145334" data-name="Group 1145334">
          <circle id="Ellipse_11614" data-name="Ellipse 11614" cx="2.469" cy="2.469" r="2.469" fill="#60b7ff"/>
        </g>
        <g id="Group_1145335" data-name="Group 1145335" transform="translate(30.951)">
          <circle id="Ellipse_11615" data-name="Ellipse 11615" cx="2.469" cy="2.469" r="2.469" transform="translate(0)" fill="#60b7ff"/>
        </g>
      </g>
      <g id="Group_1145337" data-name="Group 1145337" transform="translate(12.654 34.849)">
        <path id="Path_979513" data-name="Path 979513" d="M101.775,140.091a.536.536,0,0,1,.376.156l2.281,2.281a.529.529,0,0,1,.156.376v2.79h4.144V136.36a1.2,1.2,0,0,1,1.2-1.2h13.154a1.2,1.2,0,0,1,1.2,1.2v9.333h4.144v-5.07a.533.533,0,0,1,.532-.532h7.794a.529.529,0,0,1,.376.156l.457.457a7.074,7.074,0,0,0,.333-2.147,7.16,7.16,0,0,0-6.521-7.108,10.117,10.117,0,0,0-19.229-5.862,7.451,7.451,0,0,0-10.672,5.872,7.127,7.127,0,0,0-6.23,8.632h6.51Z" transform="translate(-95.096 -119.499)" fill="#c8effe"/>
      </g>
      <g id="Group_1145339" data-name="Group 1145339" transform="translate(33.858 34.85)">
        <g id="Group_1145338" data-name="Group 1145338">
          <path id="Path_979514" data-name="Path 979514" d="M269.545,131.449A10.111,10.111,0,0,0,259.6,119.5a10.063,10.063,0,0,0-5.147,1.408,10.116,10.116,0,0,1,9.688,10.106v.019a2.275,2.275,0,0,0,1.521,2.171,7.162,7.162,0,0,1,4.832,6.75c0,.046,0,.091,0,.137H274.9a.532.532,0,0,1,.376.156l.457.457a7.074,7.074,0,0,0,.333-2.147A7.159,7.159,0,0,0,269.545,131.449Z" transform="translate(-254.45 -119.5)" fill="#99e6fc"/>
        </g>
      </g>
      <g id="Group_1145340" data-name="Group 1145340" transform="translate(26.156 50.38)">
        <path id="Path_979515" data-name="Path 979515" d="M211.057,252.029H197.9a1.331,1.331,0,0,1-1.331-1.331V237.545a1.331,1.331,0,0,1,1.331-1.331h13.154a1.331,1.331,0,0,1,1.331,1.331V250.7A1.331,1.331,0,0,1,211.057,252.029Z" transform="translate(-196.572 -236.214)" fill="#bfbfbf"/>
      </g>
      <g id="Group_1145341" data-name="Group 1145341" transform="translate(36.459 50.38)">
        <path id="Path_979516" data-name="Path 979516" d="M278.182,236.214H274a1.331,1.331,0,0,1,1.331,1.331V250.7A1.331,1.331,0,0,1,274,252.029h4.182a1.331,1.331,0,0,0,1.331-1.331V237.545A1.331,1.331,0,0,0,278.182,236.214Z" transform="translate(-274 -236.214)" fill="#acacac"/>
      </g>
      <g id="Group_1145342" data-name="Group 1145342" transform="translate(30.566 54.79)">
        <path id="Path_979517" data-name="Path 979517" d="M236.311,276.353h-6.2a.4.4,0,0,1-.4-.4v-6.2a.4.4,0,0,1,.4-.4h6.2a.4.4,0,0,1,.4.4v6.2A.4.4,0,0,1,236.311,276.353Z" transform="translate(-229.715 -269.358)" fill="#f9f3f1"/>
      </g>
      <g id="Group_1145343" data-name="Group 1145343" transform="translate(34.406 54.79)">
        <path id="Path_979518" data-name="Path 979518" d="M261.328,269.357h-2.756a.4.4,0,0,1,.4.4v6.2a.4.4,0,0,1-.4.4h2.756a.4.4,0,0,0,.4-.4v-6.2A.4.4,0,0,0,261.328,269.357Z" transform="translate(-258.572 -269.357)" fill="#f3eae6"/>
      </g>
      <g id="Group_1145350" data-name="Group 1145350" transform="translate(10.873 55.308)">
        <g id="Group_1145346" data-name="Group 1145346" transform="translate(34.976)">
          <g id="Group_1145344" data-name="Group 1145344">
            <path id="Path_979519" data-name="Path 979519" d="M353.031,273.252h-7.794a.665.665,0,0,0-.665.665v13.539a.665.665,0,0,0,.665.665h10.075a.665.665,0,0,0,.665-.665V276.2a.666.666,0,0,0-.195-.471l-2.281-2.281A.666.666,0,0,0,353.031,273.252Z" transform="translate(-344.572 -273.252)" fill="#ffd15b"/>
          </g>
          <g id="Group_1145345" data-name="Group 1145345" transform="translate(4.296)">
            <path id="Path_979520" data-name="Path 979520" d="M383.774,275.727l-2.281-2.281a.665.665,0,0,0-.47-.195H376.86a.666.666,0,0,1,.471.195l2.281,2.281a.665.665,0,0,1,.195.471v11.258a.665.665,0,0,1-.665.665H383.3a.665.665,0,0,0,.665-.665V276.2a.665.665,0,0,0-.2-.471Z" transform="translate(-376.86 -273.252)" fill="#ffc344"/>
          </g>
        </g>
        <g id="Group_1145349" data-name="Group 1145349">
          <g id="Group_1145347" data-name="Group 1145347">
            <path id="Path_979521" data-name="Path 979521" d="M90.173,273.252H82.379a.665.665,0,0,0-.665.665v13.539a.665.665,0,0,0,.665.665H92.454a.665.665,0,0,0,.665-.665V276.2a.666.666,0,0,0-.195-.471l-2.281-2.281A.665.665,0,0,0,90.173,273.252Z" transform="translate(-81.714 -273.252)" fill="#ffd15b"/>
          </g>
          <g id="Group_1145348" data-name="Group 1145348" transform="translate(4.277)">
            <path id="Path_979522" data-name="Path 979522" d="M120.793,275.727l-2.281-2.281a.665.665,0,0,0-.47-.195H113.86a.666.666,0,0,1,.471.195l2.281,2.281a.665.665,0,0,1,.195.471v11.258a.665.665,0,0,1-.665.665h4.182a.665.665,0,0,0,.665-.665V276.2a.665.665,0,0,0-.195-.471Z" transform="translate(-113.86 -273.252)" fill="#ffc344"/>
          </g>
        </g>
      </g>
      <g id="Group_1145351" data-name="Group 1145351" transform="translate(0 21.857)">
        <path id="Path_979523" data-name="Path 979523" d="M222.214,263.254v6.2a1.4,1.4,0,0,0,1.4,1.4h6.2a1.4,1.4,0,0,0,1.4-1.4v-6.2a1.4,1.4,0,0,0-1.4-1.4h-6.2A1.4,1.4,0,0,0,222.214,263.254Zm2,.6h5v5h-5Z" transform="translate(-192.646 -229.922)"/>
        <path id="Path_979524" data-name="Path 979524" d="M365.5,300.639H369.6a1,1,0,0,0,0-2H365.5a1,1,0,0,0,0,2Z" transform="translate(-315.999 -261.813)"/>
        <path id="Path_979525" data-name="Path 979525" d="M365.5,325.671H369.6a1,1,0,0,0,0-2H365.5a1,1,0,0,0,0,2Z" transform="translate(-315.999 -283.514)"/>
        <path id="Path_979526" data-name="Path 979526" d="M365.5,350.7h1.965a1,1,0,0,0,0-2H365.5a1,1,0,0,0,0,2Z" transform="translate(-315.999 -305.216)"/>
        <path id="Path_979527" data-name="Path 979527" d="M102.641,300.639h4.106a1,1,0,1,0,0-2h-4.106a1,1,0,0,0,0,2Z" transform="translate(-88.118 -261.813)"/>
        <path id="Path_979528" data-name="Path 979528" d="M102.641,325.671h4.106a1,1,0,1,0,0-2h-4.106a1,1,0,0,0,0,2Z" transform="translate(-88.118 -283.514)"/>
        <path id="Path_979529" data-name="Path 979529" d="M102.641,350.7h1.965a1,1,0,0,0,0-2h-1.965a1,1,0,0,0,0,2Z" transform="translate(-88.118 -305.216)"/>
        <path id="Path_979530" data-name="Path 979530" d="M64.66,48.869a3.473,3.473,0,0,0-3.32,2.469H56.046a8.223,8.223,0,0,0-5.973-5.375c.03-.334.046-.667.046-1s-.018-.673-.048-1h9.072a3.467,3.467,0,1,0,0-2H49.7a11.149,11.149,0,0,0-8.561-7.906V32.51a.333.333,0,0,1,.333-.333h4.743a3.467,3.467,0,1,0,0-2H41.476a2.331,2.331,0,0,0-2.329,2.329v1.346c-.048,0-.1,0-.143,0a11.1,11.1,0,0,0-3.943.724V28.645a3.467,3.467,0,1,0-2,0v6.927a11.113,11.113,0,0,0-3.825,4.082c-.086-.03-.174-.058-.261-.085V32.51a2.331,2.331,0,0,0-2.329-2.329H21.908a3.467,3.467,0,1,0,0,2h4.743a.333.333,0,0,1,.333.333V39.2c-.175-.011-.35-.018-.527-.018a8.432,8.432,0,0,0-6.271,2.782H13.621a3.467,3.467,0,1,0,0,2h5.223a8.406,8.406,0,0,0-.664,1.971,8.183,8.183,0,0,0-6.106,5.4H6.788a3.467,3.467,0,1,0,0,2h4.89c-.013.19-.022.381-.022.573q0,.2.011.4h-.128a1.665,1.665,0,0,0-1.663,1.663v2.1a1,1,0,0,0,2,0V56.306h7.324l2.086,2.086V69.179h-9.41V62.726a1,1,0,1,0-2,0v6.786a1.665,1.665,0,0,0,1.663,1.663H21.613a1.665,1.665,0,0,0,1.663-1.663v-7.47h1.882v2.823a2.332,2.332,0,0,0,1.826,2.272V74.76a.333.333,0,0,1-.333.333H21.908a3.467,3.467,0,1,0,0,2h4.743A2.331,2.331,0,0,0,28.98,74.76V67.193h4.086V77.38a3.467,3.467,0,1,0,2,0V67.193h4.086V74.76a2.331,2.331,0,0,0,2.329,2.329h4.743a3.467,3.467,0,1,0,0-2H41.476a.333.333,0,0,1-.333-.333V67.137a2.332,2.332,0,0,0,1.826-2.272V62.042h1.882v1.483a1,1,0,0,0,2,0V56.306h7.324l2.086,2.086V69.179H46.847v-1a1,1,0,1,0-2,0v1.331a1.665,1.665,0,0,0,1.663,1.663H56.589a1.665,1.665,0,0,0,1.663-1.663V58.254a1.652,1.652,0,0,0-.487-1.176L56.291,55.6a8.057,8.057,0,0,0,.181-1.7c0-.193-.009-.383-.022-.573h4.89a3.467,3.467,0,1,0,3.32-4.465Zm-2.2-7.375a1.471,1.471,0,1,1-1.471,1.471A1.473,1.473,0,0,1,62.465,41.493ZM49.54,29.708a1.472,1.472,0,1,1-1.472,1.472A1.473,1.473,0,0,1,49.54,29.708ZM32.592,25.324A1.472,1.472,0,1,1,34.064,26.8,1.473,1.473,0,0,1,32.592,25.324Zm-14,7.326a1.472,1.472,0,1,1,1.471-1.472h0A1.473,1.473,0,0,1,18.588,32.651ZM10.3,44.436a1.471,1.471,0,1,1,1.472-1.472A1.473,1.473,0,0,1,10.3,44.436ZM3.467,53.807a1.472,1.472,0,1,1,1.471-1.472A1.473,1.473,0,0,1,3.467,53.807ZM18.588,77.562a1.471,1.471,0,1,1,1.471-1.472h0A1.473,1.473,0,0,1,18.588,77.562ZM35.535,80.7a1.472,1.472,0,1,1-1.472-1.472A1.473,1.473,0,0,1,35.535,80.7Zm14-6.081a1.471,1.471,0,1,1-1.472,1.471A1.473,1.473,0,0,1,49.54,74.619ZM46.515,54.31a1.665,1.665,0,0,0-1.663,1.663v4.072H42.969V51.71a2.331,2.331,0,0,0-2.329-2.329H33a1,1,0,1,0,0,2h7.642a.333.333,0,0,1,.333.333V64.864a.333.333,0,0,1-.333.333H27.487a.333.333,0,0,1-.333-.333V51.71a.333.333,0,0,1,.333-.333h.855a1,1,0,1,0,0-2h-.855a2.331,2.331,0,0,0-2.329,2.329v8.335H23.276V58.254a1.651,1.651,0,0,0-.487-1.176L20.508,54.8a1.652,1.652,0,0,0-1.176-.487H13.667c-.009-.135-.016-.27-.016-.4a6.2,6.2,0,0,1,5.5-6.106,1,1,0,0,0,.889-.883,6.448,6.448,0,0,1,7.707-5.605l.063.013a6.387,6.387,0,0,1,1.471.508,1,1,0,0,0,1.354-.5,9.118,9.118,0,0,1,17.332,5.285,1,1,0,0,0,.9,1.174,6.178,6.178,0,0,1,5.609,6.114c0,.137-.006.274-.016.41-.05,0-.1-.007-.152-.007H46.515Zm18.146-.5a1.472,1.472,0,1,1,1.472-1.471A1.473,1.473,0,0,1,64.66,53.807Z" transform="translate(0 -21.857)"/>
      </g>
    </g>
  </g>
</svg>
