<svg xmlns="http://www.w3.org/2000/svg" xmlns:xlink="http://www.w3.org/1999/xlink" width="108" height="108" viewBox="0 0 108 108">
  <defs>
    <filter id="Path_904820" x="0" y="0" width="108" height="108" filterUnits="userSpaceOnUse">
      <feOffset dy="3" input="SourceAlpha"/>
      <feGaussianBlur stdDeviation="3" result="blur"/>
      <feFlood flood-opacity="0.161"/>
      <feComposite operator="in" in2="blur"/>
      <feComposite in="SourceGraphic"/>
    </filter>
  </defs>
  <g id="Icono" transform="translate(-615.101 -5000)">
    <g transform="matrix(1, 0, 0, 1, 615.1, 5000)" filter="url(#Path_904820)">
      <g id="Path_904820-2" data-name="Path 904820" transform="translate(9 6)" fill="#ecf4fa">
        <path d="M 45 88.5 C 39.12687683105469 88.5 33.43022537231445 87.35007476806641 28.06830024719238 85.08217620849609 C 22.88852500915527 82.89131164550781 18.23629951477051 79.75458526611328 14.2408504486084 75.75914764404297 C 10.24541282653809 71.76370239257812 7.108687400817871 67.11147308349609 4.917825222015381 61.93170166015625 C 2.649924993515015 56.56977462768555 1.5 50.87312316894531 1.5 45 C 1.5 39.12687683105469 2.649924993515015 33.43022537231445 4.917825222015381 28.06830024719238 C 7.108687400817871 22.88852500915527 10.24541282653809 18.23629951477051 14.2408504486084 14.2408504486084 C 18.23629951477051 10.24541282653809 22.88852500915527 7.108687400817871 28.06830024719238 4.917825222015381 C 33.43022537231445 2.649924993515015 39.12687683105469 1.5 45 1.5 C 50.87312316894531 1.5 56.56977462768555 2.649924993515015 61.93170166015625 4.917825222015381 C 67.11147308349609 7.108687400817871 71.76370239257812 10.24541282653809 75.75914764404297 14.2408504486084 C 79.75458526611328 18.23629951477051 82.89131164550781 22.88852500915527 85.08217620849609 28.06830024719238 C 87.35007476806641 33.43022537231445 88.5 39.12687683105469 88.5 45 C 88.5 50.87312316894531 87.35007476806641 56.56977462768555 85.08217620849609 61.93170166015625 C 82.89131164550781 67.11147308349609 79.75458526611328 71.76370239257812 75.75914764404297 75.75914764404297 C 71.76370239257812 79.75458526611328 67.11147308349609 82.89131164550781 61.93170166015625 85.08217620849609 C 56.56977462768555 87.35007476806641 50.87312316894531 88.5 45 88.5 Z" stroke="none"/>
        <path d="M 45 3 C 39.32871246337891 3 33.82865524291992 4.110054016113281 28.65262985229492 6.299339294433594 C 23.65165710449219 8.414573669433594 19.15968322753906 11.44334411621094 15.301513671875 15.301513671875 C 11.44334411621094 19.15968322753906 8.414573669433594 23.65165710449219 6.299339294433594 28.65262985229492 C 4.110054016113281 33.82865524291992 3 39.32871246337891 3 45 C 3 50.67128753662109 4.110054016113281 56.17134475708008 6.299339294433594 61.34737396240234 C 8.414573669433594 66.34834289550781 11.44334411621094 70.84031677246094 15.301513671875 74.698486328125 C 19.15968322753906 78.55665588378906 23.65165710449219 81.58542633056641 28.65262985229492 83.70066070556641 C 33.82865524291992 85.88994598388672 39.32871246337891 87 45 87 C 50.67128753662109 87 56.17134475708008 85.88994598388672 61.34737396240234 83.70066070556641 C 66.34834289550781 81.58542633056641 70.84031677246094 78.55665588378906 74.698486328125 74.698486328125 C 78.55665588378906 70.84031677246094 81.58542633056641 66.34834289550781 83.70066070556641 61.34737396240234 C 85.88994598388672 56.17134475708008 87 50.67128753662109 87 45 C 87 39.32871246337891 85.88994598388672 33.82865524291992 83.70066070556641 28.65262985229492 C 81.58542633056641 23.65165710449219 78.55665588378906 19.15968322753906 74.698486328125 15.301513671875 C 70.84031677246094 11.44334411621094 66.34834289550781 8.414573669433594 61.34737396240234 6.299339294433594 C 56.17134475708008 4.110054016113281 50.67128753662109 3 45 3 M 45 0 C 69.85281372070312 0 90 20.14718627929688 90 45 C 90 69.85281372070312 69.85281372070312 90 45 90 C 20.14718627929688 90 0 69.85281372070312 0 45 C 0 20.14718627929688 20.14718627929688 0 45 0 Z" stroke="none" fill="#2a5673"/>
      </g>
    </g>
    <g id="Group_1145358" data-name="Group 1145358" transform="translate(622.215 5007.662)">
      <path id="Path_979553" data-name="Path 979553" d="M46,36.233a6.579,6.579,0,1,0,6.577,6.581A6.586,6.586,0,0,0,46,36.233Zm0,11.195a4.616,4.616,0,1,1,4.614-4.614A4.619,4.619,0,0,1,46,47.427Zm26.246-8.253a3.641,3.641,0,0,0-3.5,2.657h-8v-.789a.981.981,0,0,0-.57-.891l-2.413-1.115-.649-1.565h5.905a.982.982,0,0,0,.85-.491l3.045-5.27a3.649,3.649,0,1,0-1.7-.984l-2.762,4.781H57.6l.31-.843a.981.981,0,0,0-.227-1.033l-2.5-2.5a.981.981,0,0,0-1.034-.227l-2.491.92-1.874-.777-1.115-2.413a.982.982,0,0,0-.891-.57h-.816v-.8h9.994a.981.981,0,0,0,.85-.491l3.128-5.416a3.648,3.648,0,1,0-1.7-.985L56.383,25.3H46.955V18.97c0-.052,0-.1,0-.156H49.5a3.638,3.638,0,1,0,0-1.963H46.565a5.861,5.861,0,0,0-4.144-3.614,8.869,8.869,0,0,0-10.03,4.771,11.039,11.039,0,0,0-9.08,10.468,10.661,10.661,0,0,0-3.93,15.884,8.365,8.365,0,0,0,3.981,13.535,11.036,11.036,0,0,0,9.029,9.722,8.87,8.87,0,0,0,10.028,4.771,5.863,5.863,0,0,0,4.147-3.615H49.5a3.635,3.635,0,1,0,0-1.963H46.952c0-.051,0-.1,0-.152V60.321h9.427l2.847,4.932a3.62,3.62,0,1,0,1.7-.984L57.8,58.849a.981.981,0,0,0-.85-.491H46.955v-.8h.816a.982.982,0,0,0,.891-.569l1.115-2.41,1.875-.777,2.491.918a.982.982,0,0,0,1.033-.227l2.5-2.5a.981.981,0,0,0,.227-1.033l-.309-.839h4.859L65.22,54.9a3.625,3.625,0,1,0,1.7-.983l-3.045-5.27a.981.981,0,0,0-.85-.491H57.119l.649-1.567,2.412-1.112a.982.982,0,0,0,.571-.891v-.789h8a3.637,3.637,0,1,0,3.5-4.62ZM67.821,26.511a1.675,1.675,0,1,1-1.675,1.675A1.676,1.676,0,0,1,67.821,26.511ZM61.829,16.157a1.675,1.675,0,1,1-1.672,1.675A1.677,1.677,0,0,1,61.829,16.157Zm-8.83,0a1.675,1.675,0,1,1-1.672,1.675A1.677,1.677,0,0,1,53,16.157Zm0,49.961a1.674,1.674,0,1,1-1.672,1.672A1.676,1.676,0,0,1,53,66.118ZM63.5,67.79a1.674,1.674,0,1,1-1.675-1.672A1.677,1.677,0,0,1,63.5,67.79Zm5.989-10.353a1.674,1.674,0,1,1-1.672-1.672A1.676,1.676,0,0,1,69.493,57.437ZM41.966,70.476a6.906,6.906,0,0,1-6.854-11.193.981.981,0,0,0-1.495-1.272,8.855,8.855,0,0,0-1.952,7.414,9.064,9.064,0,0,1-5.309-12.976.982.982,0,1,0-1.725-.936,11.025,11.025,0,0,0-1.287,4.3,6.42,6.42,0,0,1,1.866-12.371.982.982,0,0,0-.148-1.958,8.293,8.293,0,0,0-4.219,1.541,8.7,8.7,0,0,1,2.6-12.392,10.963,10.963,0,0,0,1.185,3.477.982.982,0,1,0,1.724-.938A9.063,9.063,0,0,1,31.665,20.2a8.855,8.855,0,0,0,1.952,7.413.981.981,0,1,0,1.495-1.272,6.907,6.907,0,0,1,6.856-11.192,3.864,3.864,0,0,1,3.024,3.823v3.475a7.505,7.505,0,0,0-5.56-2.461.982.982,0,1,0,0,1.963,5.566,5.566,0,0,1,5.56,5.56v.556h-.761a.981.981,0,0,0-.891.571l-1.112,2.412-1.877.777L37.86,30.9a.982.982,0,0,0-1.034.227l-2.5,2.5a.982.982,0,0,0-.227,1.033l.918,2.5-.777,1.875-2.413,1.115a.982.982,0,0,0-.57.891v3.54a.982.982,0,0,0,.571.891l2.412,1.112.777,1.878-.918,2.492a.981.981,0,0,0,.227,1.033l2.5,2.5a.981.981,0,0,0,1.033.227l2.492-.918,1.878.777L43.34,56.99a.982.982,0,0,0,.891.57h.761v.559a5.566,5.566,0,0,1-5.56,5.56.982.982,0,1,0,0,1.963,7.505,7.505,0,0,0,5.56-2.461v3.475a3.862,3.862,0,0,1-3.026,3.82ZM58.788,43.955,56.6,44.965a.982.982,0,0,0-.5.516l-1.071,2.588a.981.981,0,0,0-.014.715l.833,2.262-1.616,1.616-2.263-.833a.983.983,0,0,0-.715.014l-2.584,1.071a.982.982,0,0,0-.515.494L47.145,55.6H44.86l-1.01-2.188a.981.981,0,0,0-.516-.5l-2.587-1.071a.979.979,0,0,0-.715-.014l-2.263.833-1.616-1.616.833-2.262a.981.981,0,0,0-.014-.715L35.9,45.481a.982.982,0,0,0-.5-.516l-2.191-1.01V41.671l2.192-1.013a.982.982,0,0,0,.495-.515l1.071-2.584a.982.982,0,0,0,.014-.715l-.834-2.266,1.616-1.616,2.262.836a.982.982,0,0,0,.716-.014l2.587-1.071a.982.982,0,0,0,.516-.5l1.01-2.19h2.284l1.013,2.191a.981.981,0,0,0,.515.495l2.584,1.071a.982.982,0,0,0,.716.014l2.262-.836,1.616,1.616-.834,2.266a.982.982,0,0,0,.014.715L56.1,40.143a.981.981,0,0,0,.495.515l2.192,1.013v2.284Zm13.46.53a1.674,1.674,0,1,1,1.675-1.672A1.674,1.674,0,0,1,72.248,44.485Z"/>
      <path id="Path_979554" data-name="Path 979554" d="M56.006,29.186a6.906,6.906,0,0,0-6.856,11.192.981.981,0,0,1-1.495,1.272A8.855,8.855,0,0,1,45.7,34.238a9.063,9.063,0,0,0-5.309,12.974.982.982,0,1,1-1.724.938,10.964,10.964,0,0,1-1.185-3.477,8.7,8.7,0,0,0-2.6,12.392A8.293,8.293,0,0,1,39.1,55.526a.982.982,0,1,1,.148,1.958,6.42,6.42,0,0,0-1.866,12.371,11.025,11.025,0,0,1,1.287-4.3.982.982,0,0,1,1.725.936A9.064,9.064,0,0,0,45.7,79.464a8.855,8.855,0,0,1,1.952-7.414.981.981,0,0,1,1.495,1.272A6.907,6.907,0,0,0,56,84.515,3.862,3.862,0,0,0,59.03,80.7V77.22a7.505,7.505,0,0,1-5.56,2.461.982.982,0,0,1,0-1.963,5.566,5.566,0,0,0,5.56-5.56V71.6h-.761a.982.982,0,0,1-.891-.57l-1.112-2.409-1.878-.777-2.492.918a.981.981,0,0,1-1.033-.227l-2.5-2.5a.981.981,0,0,1-.227-1.033L49.05,62.5l-.777-1.878L45.86,59.513a.982.982,0,0,1-.571-.891v-3.54a.981.981,0,0,1,.57-.891l2.413-1.115L49.05,51.2l-.918-2.5a.981.981,0,0,1,.227-1.033l2.5-2.5a.982.982,0,0,1,1.034-.227l2.491.921,1.877-.777,1.112-2.412a.981.981,0,0,1,.891-.571h.761v-.556a5.566,5.566,0,0,0-5.56-5.56.982.982,0,1,1,0-1.963,7.505,7.505,0,0,1,5.56,2.461V33.009a3.864,3.864,0,0,0-3.024-3.823Z" transform="translate(-14.038 -14.039)" fill="#ff99c7"/>
      <path id="Path_979555" data-name="Path 979555" d="M297.847,447.637a1.674,1.674,0,1,0-1.675,1.675A1.676,1.676,0,0,0,297.847,447.637Z" transform="translate(-243.173 -379.847)" fill="#23e8bf"/>
      <path id="Path_979556" data-name="Path 979556" d="M169.512,156.346l-1.616-1.616-2.262.836a.982.982,0,0,1-.716-.014l-2.584-1.071a.982.982,0,0,1-.515-.495l-1.013-2.191h-2.284l-1.01,2.19a.982.982,0,0,1-.516.5l-2.587,1.071a.981.981,0,0,1-.716.014l-2.262-.836-1.616,1.616.834,2.266a.982.982,0,0,1-.014.715l-1.071,2.584a.981.981,0,0,1-.495.515l-2.192,1.013v2.284l2.191,1.01a.982.982,0,0,1,.5.516l1.071,2.588a.981.981,0,0,1,.014.715l-.833,2.262,1.616,1.616,2.263-.833a.98.98,0,0,1,.715.014L157,174.682a.982.982,0,0,1,.516.5l1.01,2.188h2.285l1.013-2.189a.982.982,0,0,1,.515-.494l2.584-1.071a.981.981,0,0,1,.715-.014l2.263.833,1.616-1.616-.833-2.262a.981.981,0,0,1,.014-.715l1.071-2.588a.982.982,0,0,1,.5-.516l2.191-1.01v-2.284l-2.192-1.013a.982.982,0,0,1-.495-.515l-1.071-2.584a.982.982,0,0,1-.014-.715l.834-2.266Zm-9.848,14.813a6.579,6.579,0,1,1,6.577-6.577A6.585,6.585,0,0,1,159.664,171.159Z" transform="translate(-113.662 -121.768)" fill="#ffbe00"/>
      <path id="Path_979557" data-name="Path 979557" d="M218.1,218.378A4.616,4.616,0,1,0,222.716,223,4.621,4.621,0,0,0,218.1,218.378Z" transform="translate(-172.1 -180.182)" fill="#d3effd"/>
      <path id="Path_979558" data-name="Path 979558" d="M297.847,40.426a1.674,1.674,0,1,0-1.675,1.675A1.677,1.677,0,0,0,297.847,40.426Z" transform="translate(-243.173 -22.593)" fill="#23e8bf"/>
      <path id="Path_979559" data-name="Path 979559" d="M369.817,40.426a1.674,1.674,0,1,0-1.675,1.675A1.677,1.677,0,0,0,369.817,40.426Z" transform="translate(-306.313 -22.593)" fill="#ff99c7"/>
      <path id="Path_979560" data-name="Path 979560" d="M418.629,124.811a1.674,1.674,0,1,0-1.672,1.675A1.676,1.676,0,0,0,418.629,124.811Z" transform="translate(-349.136 -96.625)" fill="#23e8bf"/>
      <path id="Path_979561" data-name="Path 979561" d="M369.817,447.637a1.674,1.674,0,1,0-1.675,1.675A1.676,1.676,0,0,0,369.817,447.637Z" transform="translate(-306.313 -379.847)" fill="#ff99c7"/>
      <path id="Path_979562" data-name="Path 979562" d="M418.629,363.252a1.674,1.674,0,1,0-1.672,1.675A1.674,1.674,0,0,0,418.629,363.252Z" transform="translate(-349.136 -305.815)" fill="#23e8bf"/>
      <path id="Path_979563" data-name="Path 979563" d="M454.74,244.034a1.674,1.674,0,1,0-1.675,1.672A1.677,1.677,0,0,0,454.74,244.034Z" transform="translate(-380.817 -201.221)" fill="#ff99c7"/>
    </g>
  </g>
</svg>
