<svg id="settings_707400" xmlns="http://www.w3.org/2000/svg" width="75.969" height="75.969" viewBox="0 0 75.969 75.969">
  <path id="Path_980181" data-name="Path 980181" d="M79.207,50.319a1.8,1.8,0,0,0,1.777-1.6,36.6,36.6,0,0,0,0-8.691,1.8,1.8,0,0,0-1.777-1.6H74.719a30.75,30.75,0,0,0-4.682-11.308l3.172-3.172a1.8,1.8,0,0,0,.124-2.389,36.59,36.59,0,0,0-6.146-6.146,1.8,1.8,0,0,0-2.389.124l-3.172,3.172a30.752,30.752,0,0,0-11.308-4.682V9.536a1.8,1.8,0,0,0-1.6-1.777,36.587,36.587,0,0,0-8.691,0,1.8,1.8,0,0,0-1.6,1.777v4.488a30.75,30.75,0,0,0-11.308,4.682l-3.172-3.172a1.8,1.8,0,0,0-2.389-.124,36.59,36.59,0,0,0-6.146,6.146,1.8,1.8,0,0,0,.124,2.389l3.172,3.172a30.753,30.753,0,0,0-4.682,11.308H9.536a1.8,1.8,0,0,0-1.777,1.6,36.589,36.589,0,0,0,0,8.692,1.8,1.8,0,0,0,1.777,1.6h4.488a30.75,30.75,0,0,0,4.682,11.308L15.534,64.8a1.8,1.8,0,0,0-.124,2.389,36.6,36.6,0,0,0,6.146,6.146,1.8,1.8,0,0,0,2.389-.124l3.172-3.172a30.751,30.751,0,0,0,11.308,4.682v4.488a1.8,1.8,0,0,0,1.6,1.777,36.6,36.6,0,0,0,8.691,0,1.8,1.8,0,0,0,1.6-1.777V74.719a30.75,30.75,0,0,0,11.308-4.682L64.8,73.209a1.8,1.8,0,0,0,2.389.124,36.6,36.6,0,0,0,6.146-6.146,1.8,1.8,0,0,0-.124-2.389l-3.172-3.172a30.751,30.751,0,0,0,4.682-11.308Z" transform="translate(-6.387 -6.387)" fill="#c0bcc1"/>
  <g id="Group_1145584" data-name="Group 1145584" transform="translate(1.113 8.628)">
    <circle id="Ellipse_11578" data-name="Ellipse 11578" cx="26.166" cy="26.166" r="26.166" transform="translate(10.705 3.119)" fill="#aea8af"/>
    <path id="Path_980182" data-name="Path 980182" d="M70.037,104.76a30.776,30.776,0,0,0,2.092-3.628A35.655,35.655,0,0,1,30.652,59.794a30.786,30.786,0,0,0-3.536,2.045l-3.172-3.172a1.8,1.8,0,0,0-2.389-.124,36.59,36.59,0,0,0-6.146,6.146,1.8,1.8,0,0,0,.124,2.389l3.172,3.172a30.753,30.753,0,0,0-4.682,11.308H9.536a1.8,1.8,0,0,0-1.777,1.6,36.6,36.6,0,0,0,0,8.692,1.8,1.8,0,0,0,1.777,1.6h4.488a30.75,30.75,0,0,0,4.682,11.308l-3.172,3.172a1.8,1.8,0,0,0-.124,2.389,36.6,36.6,0,0,0,6.146,6.146,1.8,1.8,0,0,0,2.389-.124l3.172-3.172a30.751,30.751,0,0,0,11.308,4.682v4.488a1.8,1.8,0,0,0,1.6,1.777,36.6,36.6,0,0,0,8.691,0,1.8,1.8,0,0,0,1.6-1.777v-4.488a30.75,30.75,0,0,0,11.308-4.682l3.172,3.172a1.8,1.8,0,0,0,2.389.124,36.6,36.6,0,0,0,6.146-6.146,1.8,1.8,0,0,0-.124-2.389Z" transform="translate(-7.5 -58.148)" fill="#aea8af"/>
  </g>
  <path id="Path_980183" data-name="Path 980183" d="M105.812,155.788a26.138,26.138,0,0,0,21.935-11.906c-.175,0-.349.012-.526.012a35.682,35.682,0,0,1-35.682-35.682c0-.176.009-.35.012-.526a26.164,26.164,0,0,0,14.261,48.1Z" transform="translate(-67.828 -91.708)" fill="#9c969e"/>
  <circle id="Ellipse_11579" data-name="Ellipse 11579" cx="22.599" cy="22.599" r="22.599" transform="translate(15.385 15.314)" fill="#87c37d"/>
  <circle id="Ellipse_11580" data-name="Ellipse 11580" cx="19.031" cy="19.031" r="19.031" transform="translate(18.954 18.882)" fill="#9bd278"/>
  <g id="Group_1145585" data-name="Group 1145585" transform="translate(22.522 24.829)">
    <circle id="Ellipse_11581" data-name="Ellipse 11581" cx="2.378" cy="2.378" r="2.378" transform="translate(2.378)" fill="#6f6571"/>
    <circle id="Ellipse_11582" data-name="Ellipse 11582" cx="2.378" cy="2.378" r="2.378" transform="translate(15.462 4.758)" fill="#6f6571"/>
    <circle id="Ellipse_11583" data-name="Ellipse 11583" cx="2.378" cy="2.378" r="2.378" transform="translate(8.327 15.462)" fill="#6f6571"/>
    <circle id="Ellipse_11584" data-name="Ellipse 11584" cx="2.378" cy="2.378" r="2.378" transform="translate(0 9.444)" fill="#6f6571"/>
  </g>
  <path id="Path_980184" data-name="Path 980184" d="M143.614,119.888a23.639,23.639,0,0,0-5.272-14.895,1.113,1.113,0,0,0-1.729,1.4c.134.165.264.333.393.5h-8.778a.077.077,0,0,1-.077-.077v-6.76a21.369,21.369,0,0,1,5.26,3.133,1.113,1.113,0,0,0,1.4-1.729,23.714,23.714,0,0,0-33.35,33.35,1.113,1.113,0,0,0,1.729-1.4A21.488,21.488,0,0,1,118.84,98.444c.38-.019.76-.026,1.139-.025v5.037a1.257,1.257,0,0,1-.371.9l-3.364,3.364a1.258,1.258,0,0,1-.9.371h-2.842a3.492,3.492,0,1,0,0,2.226h2.842a3.469,3.469,0,0,0,2.469-1.023l3.364-3.364a3.469,3.469,0,0,0,1.023-2.469V98.541a21.477,21.477,0,0,1,3.721.735v7.544a2.305,2.305,0,0,0,2.3,2.3h10.264a21.362,21.362,0,0,1,1.708,3.721H125.59a3.492,3.492,0,1,0,0,2.226h15.251a21.522,21.522,0,0,1,.518,3.721H129.214a3.47,3.47,0,0,0-2.469,1.023l-3.364,3.364a1.258,1.258,0,0,1-.9.371h-4.032a3.492,3.492,0,1,0,0,2.226h4.032a3.469,3.469,0,0,0,2.469-1.023l3.364-3.364a1.258,1.258,0,0,1,.9-.371H141.36a21.508,21.508,0,0,1-.52,3.721h-9.246a3.47,3.47,0,0,0-2.469,1.023l-6.932,6.932a3.469,3.469,0,0,0-1.023,2.469v6.189l-.2.012a21.56,21.56,0,0,1-5.9-.522v-5.68a3.469,3.469,0,0,0-1.023-2.469L108.3,126.95a1.258,1.258,0,0,1-.371-.9v-4.032a3.492,3.492,0,1,0-2.226,0v4.032a3.469,3.469,0,0,0,1.023,2.469l5.743,5.743a1.258,1.258,0,0,1,.371.9V140.2a21.371,21.371,0,0,1-6.449-3.587,1.113,1.113,0,0,0-1.4,1.729,23.64,23.64,0,0,0,14.906,5.272q.587,0,1.176-.029a23.712,23.712,0,0,0,22.511-22.511q.028-.581.028-1.16s0-.007,0-.011A.142.142,0,0,0,143.614,119.888ZM109.2,110.465a1.266,1.266,0,1,1,1.266-1.266A1.267,1.267,0,0,1,109.2,110.465Zm13.084,4.758a1.266,1.266,0,1,1,1.266-1.266A1.267,1.267,0,0,1,122.282,115.222Zm-7.136,10.7a1.266,1.266,0,1,1,1.266-1.266A1.267,1.267,0,0,1,115.145,125.927Zm-8.326-8.479a1.266,1.266,0,1,1-1.266,1.266A1.267,1.267,0,0,1,106.819,117.448ZM135.1,135.1a21.435,21.435,0,0,1-11.7,6.009v-5.943a1.258,1.258,0,0,1,.371-.9l6.932-6.932a1.258,1.258,0,0,1,.9-.371H140.2A21.46,21.46,0,0,1,135.1,135.1Z" transform="translate(-81.918 -81.919)"/>
  <path id="Path_980185" data-name="Path 980185" d="M75.7,33.507a2.916,2.916,0,0,0-2.882-2.583H69.236a31.673,31.673,0,0,0-4.16-10.047l2.533-2.533a2.916,2.916,0,0,0,.212-3.864,37.695,37.695,0,0,0-6.331-6.331,2.915,2.915,0,0,0-3.864.212l-2.533,2.533a31.671,31.671,0,0,0-10.047-4.16V3.149A2.915,2.915,0,0,0,42.462.267a37.7,37.7,0,0,0-8.954,0,2.915,2.915,0,0,0-2.583,2.882V6.734a31.671,31.671,0,0,0-10.047,4.16L18.344,8.36a2.915,2.915,0,0,0-3.864-.212A37.68,37.68,0,0,0,8.149,14.48a2.915,2.915,0,0,0,.212,3.864l2.533,2.533A31.671,31.671,0,0,0,6.734,30.925H3.149A2.916,2.916,0,0,0,.267,33.507a37.7,37.7,0,0,0,0,8.954,2.916,2.916,0,0,0,2.882,2.583H6.734a31.668,31.668,0,0,0,4.159,10.047L8.36,57.625a2.916,2.916,0,0,0-.212,3.864,37.7,37.7,0,0,0,6.331,6.331,2.915,2.915,0,0,0,3.864-.212l2.533-2.533a31.674,31.674,0,0,0,10.047,4.16V72.82A2.915,2.915,0,0,0,33.507,75.7a37.709,37.709,0,0,0,8.954,0,2.915,2.915,0,0,0,2.583-2.882V69.236a31.671,31.671,0,0,0,10.047-4.16l2.533,2.533a2.915,2.915,0,0,0,3.864.212,37.7,37.7,0,0,0,6.331-6.331,2.915,2.915,0,0,0-.212-3.864l-2.533-2.533a31.669,31.669,0,0,0,4.16-10.047H72.82A2.916,2.916,0,0,0,75.7,42.462a37.691,37.691,0,0,0,0-8.954ZM73.492,42.2a.689.689,0,0,1-.672.62H68.332a1.113,1.113,0,0,0-1.092.9,29.5,29.5,0,0,1-4.512,10.9,1.113,1.113,0,0,0,.136,1.409L66.035,59.2a.689.689,0,0,1,.037.914,35.481,35.481,0,0,1-5.96,5.96.689.689,0,0,1-.913-.037l-3.172-3.172a1.113,1.113,0,0,0-1.409-.136,29.5,29.5,0,0,1-10.9,4.512,1.113,1.113,0,0,0-.9,1.092V72.82a.689.689,0,0,1-.62.672,35.479,35.479,0,0,1-8.429,0,.689.689,0,0,1-.62-.672V68.332a1.113,1.113,0,0,0-.9-1.092,29.5,29.5,0,0,1-10.9-4.512,1.113,1.113,0,0,0-1.409.136L16.77,66.035a.689.689,0,0,1-.913.037,35.489,35.489,0,0,1-5.96-5.96.689.689,0,0,1,.037-.914l3.172-3.172a1.113,1.113,0,0,0,.136-1.409,29.5,29.5,0,0,1-4.512-10.9,1.113,1.113,0,0,0-1.092-.9H3.149a.689.689,0,0,1-.672-.62,35.486,35.486,0,0,1,0-8.429.689.689,0,0,1,.672-.62H7.637a1.113,1.113,0,0,0,1.092-.9,29.5,29.5,0,0,1,4.512-10.9,1.113,1.113,0,0,0-.136-1.409L9.934,16.77a.689.689,0,0,1-.037-.914,35.481,35.481,0,0,1,5.96-5.96.689.689,0,0,1,.913.037l3.172,3.172a1.113,1.113,0,0,0,1.409.136,29.5,29.5,0,0,1,10.9-4.512,1.113,1.113,0,0,0,.9-1.092V3.149a.689.689,0,0,1,.62-.672,35.478,35.478,0,0,1,8.429,0,.689.689,0,0,1,.62.672V7.637a1.113,1.113,0,0,0,.9,1.092,29.5,29.5,0,0,1,10.9,4.512,1.113,1.113,0,0,0,1.409-.136L59.2,9.934a.689.689,0,0,1,.913-.037,35.483,35.483,0,0,1,5.96,5.96.689.689,0,0,1-.037.914l-3.172,3.172a1.113,1.113,0,0,0-.136,1.409,29.5,29.5,0,0,1,4.512,10.9,1.113,1.113,0,0,0,1.092.9H72.82a.689.689,0,0,1,.672.62,35.476,35.476,0,0,1,0,8.429Z"/>
</svg>
