<svg xmlns="http://www.w3.org/2000/svg" width="90" height="90" viewBox="0 0 90 90">
  <g id="Group_1145381" data-name="Group 1145381" transform="translate(-1227 -10367)">
    <g id="Fondo" transform="translate(1227 10367)" fill="#fffbe8" stroke="#bca724" stroke-width="3">
      <circle cx="45" cy="45" r="45" stroke="none"/>
      <circle cx="45" cy="45" r="43.5" fill="none"/>
    </g>
    <g id="Group_1145380" data-name="Group 1145380" transform="translate(1243.811 10383.811)">
      <g id="Layer_23" data-name="Layer 23" transform="translate(6.053 3.763)">
        <path id="Path_979605" data-name="Path 979605" d="M34.479,4H54.325V24.609L27.609,51.325H9.29L7,49.035V31.479Z" transform="translate(-7 -4)" fill="#fbdace"/>
        <g id="Group_1145379" data-name="Group 1145379" transform="translate(3.817 5.343)">
          <circle id="Ellipse_11637" data-name="Ellipse 11637" cx="1.5" cy="1.5" r="1.5" transform="translate(0.319 28.083)" fill="#faa283"/>
          <circle id="Ellipse_11638" data-name="Ellipse 11638" cx="1.5" cy="1.5" r="1.5" transform="translate(6.319 23.083)" fill="#faa283"/>
          <circle id="Ellipse_11639" data-name="Ellipse 11639" cx="1.5" cy="1.5" r="1.5" transform="translate(9.319 13.083)" fill="#faa283"/>
          <circle id="Ellipse_11640" data-name="Ellipse 11640" cx="1.5" cy="1.5" r="1.5" transform="translate(18.319 10.083)" fill="#faa283"/>
          <circle id="Ellipse_11641" data-name="Ellipse 11641" cx="1.5" cy="1.5" r="1.5" transform="translate(24.319 0.083)" fill="#faa283"/>
          <circle id="Ellipse_11642" data-name="Ellipse 11642" cx="1.5" cy="1.5" r="1.5" transform="translate(34.319 10.083)" fill="#faa283"/>
          <circle id="Ellipse_11643" data-name="Ellipse 11643" cx="1.5" cy="1.5" r="1.5" transform="translate(28.319 14.083)" fill="#faa283"/>
          <circle id="Ellipse_11644" data-name="Ellipse 11644" cx="1.5" cy="1.5" r="1.5" transform="translate(29.319 21.083)" fill="#faa283"/>
          <circle id="Ellipse_11645" data-name="Ellipse 11645" cx="1.5" cy="1.5" r="1.5" transform="translate(20.319 21.083)" fill="#faa283"/>
          <circle id="Ellipse_11646" data-name="Ellipse 11646" cx="1.5" cy="1.5" r="1.5" transform="translate(14.319 28.083)" fill="#faa283"/>
          <circle id="Ellipse_11647" data-name="Ellipse 11647" cx="1.5" cy="1.5" r="1.5" transform="translate(8.319 36.083)" fill="#faa283"/>
        </g>
      </g>
      <g id="Layer_25" data-name="Layer 25" transform="translate(3 3)">
        <path id="Path_979606" data-name="Path 979606" d="M52.615,50.325H9.107a2.292,2.292,0,0,1-2.29-2.29V3.763a.763.763,0,0,0-1.527,0v8.4H3.763a.763.763,0,0,0,0,1.527H5.29V21.32H3.763a.763.763,0,1,0,0,1.527H5.29v7.633H3.763a.763.763,0,0,0,0,1.527H5.29v7.633H3.763a.763.763,0,0,0,0,1.527H5.29v6.87a3.821,3.821,0,0,0,3.817,3.817h6.107v.763a.763.763,0,1,0,1.527,0v-.763h7.633v.763a.763.763,0,0,0,1.527,0v-.763h7.633v.763a.763.763,0,1,0,1.527,0v-.763h7.633v.763a.763.763,0,1,0,1.527,0v-.763h8.4a.763.763,0,0,0,0-1.527Z" transform="translate(-3 -3)" fill="#440a29"/>
        <path id="Path_979607" data-name="Path 979607" d="M53.733,4.224,10.224,47.733A.763.763,0,1,0,11.3,48.812L54.812,5.3a.763.763,0,1,0-1.079-1.079Z" transform="translate(-4.657 -3.237)" fill="#440a29"/>
        <path id="Path_979608" data-name="Path 979608" d="M60.123,31.224l-22.9,22.9A.763.763,0,1,0,38.3,55.2L61.2,32.3a.763.763,0,1,0-1.079-1.079Z" transform="translate(-11.047 -9.627)" fill="#440a29"/>
        <path id="Path_979609" data-name="Path 979609" d="M35.729,3.224a.763.763,0,0,0-1.079,0L10.224,27.65A.763.763,0,1,0,11.3,28.729L35.729,4.3A.763.763,0,0,0,35.729,3.224Z" transform="translate(-4.657 -3)" fill="#440a29"/>
        <path id="Path_979610" data-name="Path 979610" d="M26.58,59.29a2.29,2.29,0,1,0-2.29,2.29,2.29,2.29,0,0,0,2.29-2.29Zm-3.053,0a.763.763,0,1,1,.763.763A.763.763,0,0,1,23.527,59.29Z" transform="translate(-7.497 -15.781)" fill="#440a29"/>
        <path id="Path_979611" data-name="Path 979611" d="M19,42.29A2.29,2.29,0,1,0,21.29,40,2.29,2.29,0,0,0,19,42.29Zm3.053,0a.763.763,0,1,1-.763-.763A.763.763,0,0,1,22.053,42.29Z" transform="translate(-6.787 -11.757)" fill="#440a29"/>
        <path id="Path_979612" data-name="Path 979612" d="M34.58,49.29a2.29,2.29,0,1,0-2.29,2.29,2.29,2.29,0,0,0,2.29-2.29Zm-3.053,0a.763.763,0,1,1,.763.763A.763.763,0,0,1,31.527,49.29Z" transform="translate(-9.391 -13.414)" fill="#440a29"/>
        <path id="Path_979613" data-name="Path 979613" d="M11,49.29A2.29,2.29,0,1,0,13.29,47,2.29,2.29,0,0,0,11,49.29Zm3.053,0a.763.763,0,1,1-.763-.763A.763.763,0,0,1,14.053,49.29Z" transform="translate(-4.893 -13.414)" fill="#440a29"/>
        <path id="Path_979614" data-name="Path 979614" d="M27.58,29.29a2.29,2.29,0,1,0-2.29,2.29,2.29,2.29,0,0,0,2.29-2.29Zm-3.053,0a.763.763,0,1,1,.763.763.763.763,0,0,1-.763-.763Z" transform="translate(-7.734 -8.68)" fill="#440a29"/>
        <path id="Path_979615" data-name="Path 979615" d="M42.58,39.29a2.29,2.29,0,1,0-2.29,2.29,2.29,2.29,0,0,0,2.29-2.29Zm-3.053,0a.763.763,0,1,1,.763.763A.763.763,0,0,1,39.527,39.29Z" transform="translate(-11.284 -11.047)" fill="#440a29"/>
        <path id="Path_979616" data-name="Path 979616" d="M35,25.29A2.29,2.29,0,1,0,37.29,23,2.29,2.29,0,0,0,35,25.29Zm3.053,0a.763.763,0,1,1-.763-.763.763.763,0,0,1,.763.763Z" transform="translate(-10.574 -7.734)" fill="#440a29"/>
        <path id="Path_979617" data-name="Path 979617" d="M50.29,29a2.29,2.29,0,1,0,2.29,2.29A2.29,2.29,0,0,0,50.29,29Zm0,3.053a.763.763,0,1,1,.763-.763.763.763,0,0,1-.763.763Z" transform="translate(-13.651 -9.154)" fill="#440a29"/>
        <path id="Path_979618" data-name="Path 979618" d="M60.58,25.29a2.29,2.29,0,1,0-2.29,2.29,2.29,2.29,0,0,0,2.29-2.29Zm-3.053,0a.763.763,0,1,1,.763.763A.763.763,0,0,1,57.527,25.29Z" transform="translate(-15.544 -7.734)" fill="#440a29"/>
        <path id="Path_979619" data-name="Path 979619" d="M49,40.29A2.29,2.29,0,1,0,51.29,38,2.29,2.29,0,0,0,49,40.29Zm3.053,0a.763.763,0,1,1-.763-.763A.763.763,0,0,1,52.053,40.29Z" transform="translate(-13.888 -11.284)" fill="#440a29"/>
        <path id="Path_979620" data-name="Path 979620" d="M45.29,14.58A2.29,2.29,0,1,0,43,12.29,2.29,2.29,0,0,0,45.29,14.58Zm0-3.053a.763.763,0,1,1-.763.763A.763.763,0,0,1,45.29,11.527Z" transform="translate(-12.467 -4.657)" fill="#440a29"/>
      </g>
    </g>
  </g>
</svg>
