<svg xmlns="http://www.w3.org/2000/svg" xmlns:xlink="http://www.w3.org/1999/xlink" width="108" height="108" viewBox="0 0 108 108">
  <defs>
    <filter id="Path_904820" x="0" y="0" width="108" height="108" filterUnits="userSpaceOnUse">
      <feOffset dy="3" input="SourceAlpha"/>
      <feGaussianBlur stdDeviation="3" result="blur"/>
      <feFlood flood-opacity="0.161"/>
      <feComposite operator="in" in2="blur"/>
      <feComposite in="SourceGraphic"/>
    </filter>
  </defs>
  <g id="Icono" transform="translate(-615.101 -5000)">
    <g transform="matrix(1, 0, 0, 1, 615.1, 5000)" filter="url(#Path_904820)">
      <g id="Path_904820-2" data-name="Path 904820" transform="translate(9 6)" fill="#ecf4fa">
        <path d="M 45 88.5 C 39.12687683105469 88.5 33.43022537231445 87.35007476806641 28.06830024719238 85.08217620849609 C 22.88852500915527 82.89131164550781 18.23629951477051 79.75458526611328 14.2408504486084 75.75914764404297 C 10.24541282653809 71.76370239257812 7.108687400817871 67.11147308349609 4.917825222015381 61.93170166015625 C 2.649924993515015 56.56977462768555 1.5 50.87312316894531 1.5 45 C 1.5 39.12687683105469 2.649924993515015 33.43022537231445 4.917825222015381 28.06830024719238 C 7.108687400817871 22.88852500915527 10.24541282653809 18.23629951477051 14.2408504486084 14.2408504486084 C 18.23629951477051 10.24541282653809 22.88852500915527 7.108687400817871 28.06830024719238 4.917825222015381 C 33.43022537231445 2.649924993515015 39.12687683105469 1.5 45 1.5 C 50.87312316894531 1.5 56.56977462768555 2.649924993515015 61.93170166015625 4.917825222015381 C 67.11147308349609 7.108687400817871 71.76370239257812 10.24541282653809 75.75914764404297 14.2408504486084 C 79.75458526611328 18.23629951477051 82.89131164550781 22.88852500915527 85.08217620849609 28.06830024719238 C 87.35007476806641 33.43022537231445 88.5 39.12687683105469 88.5 45 C 88.5 50.87312316894531 87.35007476806641 56.56977462768555 85.08217620849609 61.93170166015625 C 82.89131164550781 67.11147308349609 79.75458526611328 71.76370239257812 75.75914764404297 75.75914764404297 C 71.76370239257812 79.75458526611328 67.11147308349609 82.89131164550781 61.93170166015625 85.08217620849609 C 56.56977462768555 87.35007476806641 50.87312316894531 88.5 45 88.5 Z" stroke="none"/>
        <path d="M 45 3 C 39.32871246337891 3 33.82865524291992 4.110054016113281 28.65262985229492 6.299339294433594 C 23.65165710449219 8.414573669433594 19.15968322753906 11.44334411621094 15.301513671875 15.301513671875 C 11.44334411621094 19.15968322753906 8.414573669433594 23.65165710449219 6.299339294433594 28.65262985229492 C 4.110054016113281 33.82865524291992 3 39.32871246337891 3 45 C 3 50.67128753662109 4.110054016113281 56.17134475708008 6.299339294433594 61.34737396240234 C 8.414573669433594 66.34834289550781 11.44334411621094 70.84031677246094 15.301513671875 74.698486328125 C 19.15968322753906 78.55665588378906 23.65165710449219 81.58542633056641 28.65262985229492 83.70066070556641 C 33.82865524291992 85.88994598388672 39.32871246337891 87 45 87 C 50.67128753662109 87 56.17134475708008 85.88994598388672 61.34737396240234 83.70066070556641 C 66.34834289550781 81.58542633056641 70.84031677246094 78.55665588378906 74.698486328125 74.698486328125 C 78.55665588378906 70.84031677246094 81.58542633056641 66.34834289550781 83.70066070556641 61.34737396240234 C 85.88994598388672 56.17134475708008 87 50.67128753662109 87 45 C 87 39.32871246337891 85.88994598388672 33.82865524291992 83.70066070556641 28.65262985229492 C 81.58542633056641 23.65165710449219 78.55665588378906 19.15968322753906 74.698486328125 15.301513671875 C 70.84031677246094 11.44334411621094 66.34834289550781 8.414573669433594 61.34737396240234 6.299339294433594 C 56.17134475708008 4.110054016113281 50.67128753662109 3 45 3 M 45 0 C 69.85281372070312 0 90 20.14718627929688 90 45 C 90 69.85281372070312 69.85281372070312 90 45 90 C 20.14718627929688 90 0 69.85281372070312 0 45 C 0 20.14718627929688 20.14718627929688 0 45 0 Z" stroke="none" fill="#2a5673"/>
      </g>
    </g>
    <g id="Group_1145357" data-name="Group 1145357" transform="translate(636.101 5019)">
      <circle id="Ellipse_11616" data-name="Ellipse 11616" cx="2.581" cy="2.581" r="2.581" transform="translate(12 27.484)" fill="#9dc8f2"/>
      <circle id="Ellipse_11617" data-name="Ellipse 11617" cx="2.581" cy="2.581" r="2.581" transform="translate(22.322 46.838)" fill="#9dc8f2"/>
      <circle id="Ellipse_11618" data-name="Ellipse 11618" cx="2.581" cy="2.581" r="2.581" transform="translate(17.161 17.161)" fill="#72a6e4"/>
      <circle id="Ellipse_11619" data-name="Ellipse 11619" cx="2.581" cy="2.581" r="2.581" transform="translate(15.871 37.806)" fill="#72a6e4"/>
      <circle id="Ellipse_11620" data-name="Ellipse 11620" cx="2.581" cy="2.581" r="2.581" transform="translate(35.225 12)" fill="#9dc8f2"/>
      <circle id="Ellipse_11621" data-name="Ellipse 11621" cx="2.581" cy="2.581" r="2.581" transform="translate(46.838 19.742)" fill="#72a6e4"/>
      <circle id="Ellipse_11622" data-name="Ellipse 11622" cx="2.581" cy="2.581" r="2.581" transform="translate(45.548 32.645)" fill="#9dc8f2"/>
      <circle id="Ellipse_11623" data-name="Ellipse 11623" cx="2.581" cy="2.581" r="2.581" transform="translate(33.935 23.613)" fill="#72a6e4"/>
      <circle id="Ellipse_11624" data-name="Ellipse 11624" cx="2.581" cy="2.581" r="2.581" transform="translate(30.064 37.806)" fill="#72a6e4"/>
      <circle id="Ellipse_11625" data-name="Ellipse 11625" cx="2.581" cy="2.581" r="2.581" transform="translate(23.613 28.774)" fill="#9dc8f2"/>
      <path id="Path_979548" data-name="Path 979548" d="M58.739,52.07H57.9a.9.9,0,0,1-.828-.522,5.819,5.819,0,0,0-.48-.861.965.965,0,0,1-.023-1l.422-.756A6.936,6.936,0,0,0,53.753,47l-.732,1.311a5.23,5.23,0,0,0-2.043,0L50.247,47a6.935,6.935,0,0,0-3.236,1.925l.424.76a.965.965,0,0,1-.023,1,5.819,5.819,0,0,0-.48.861.9.9,0,0,1-.828.522h-.847a7.321,7.321,0,0,0,0,3.86H46.1a.9.9,0,0,1,.828.522,5.818,5.818,0,0,0,.48.861.965.965,0,0,1,.023,1l-.422.756A6.936,6.936,0,0,0,50.246,61l.732-1.311a5.23,5.23,0,0,0,2.043,0L53.753,61a6.936,6.936,0,0,0,3.236-1.925l-.424-.76a.965.965,0,0,1,.023-1,5.823,5.823,0,0,0,.48-.861.9.9,0,0,1,.828-.522h.847a7.321,7.321,0,0,0,0-3.86ZM52,56.5A2.5,2.5,0,1,1,54.5,54,2.5,2.5,0,0,1,52,56.5Z" fill="#7483a6"/>
      <path id="Path_979549" data-name="Path 979549" d="M48.129,38.807a3.577,3.577,0,0,0,1.338-6.9l.605-6.073A3.575,3.575,0,1,0,47.127,19.6l-5.919-3.953a3.529,3.529,0,0,0,.179-1.062,3.58,3.58,0,1,0-7.16-.017L22.762,17.837a3.572,3.572,0,1,0-5.443,4.524l-2.1,4.186a3.578,3.578,0,1,0-.636,7.1c.09,0,.175-.02.264-.027l1.47,3.913a3.573,3.573,0,0,0,3.527,6.155l2.5,3.235a3.588,3.588,0,1,0,5.412.358l3.66-3.543a3.54,3.54,0,0,0,1.228.231,3.585,3.585,0,0,0,3.581-3.581c0-.046-.012-.089-.014-.135l8.976-2.992a3.576,3.576,0,0,0,2.94,1.547ZM14.581,31.645a1.581,1.581,0,1,1,1.581-1.581,1.581,1.581,0,0,1-1.581,1.581Zm35.129,3.58a1.581,1.581,0,1,1-1.58-1.58A1.581,1.581,0,0,1,49.709,35.226Zm-.29-14.483a1.581,1.581,0,1,1-1.581,1.58,1.581,1.581,0,0,1,1.581-1.58Zm-1.338,4.9-.605,6.073a3.549,3.549,0,0,0-1.438.621l-6.2-4.82a3.552,3.552,0,0,0,.259-1.318c0-.009,0-.017,0-.026l6.325-1.9a3.592,3.592,0,0,0,1.662,1.375Zm-2.064-4.378a3.529,3.529,0,0,0-.179,1.062c0,.009,0,.017,0,.026l-6.325,1.9a3.6,3.6,0,0,0-1.628-1.363l.534-4.79a3.547,3.547,0,0,0,1.677-.791ZM38.1,26.193a1.581,1.581,0,1,1-1.58-1.58,1.581,1.581,0,0,1,1.58,1.58ZM37.807,13a1.581,1.581,0,1,1-1.581,1.581A1.581,1.581,0,0,1,37.807,13ZM23.321,19.758l11.465-3.273a3.593,3.593,0,0,0,1.648,1.4l-.534,4.79a3.567,3.567,0,0,0-2.215,1.352L23.292,20.041c.008-.095.028-.186.029-.283ZM29.71,30.715l4.19-2.1a3.587,3.587,0,0,0,.748.613l-2.059,7.579a3.535,3.535,0,0,0-1.073.194c-.718-.828-1.816-2.123-2.724-3.2a3.474,3.474,0,0,0,.918-3.089Zm-7.136-8.807,10.392,3.987c-.008.1-.03.2-.03.3a3.564,3.564,0,0,0,.065.64l-4.19,2.1a3.54,3.54,0,0,0-3.322-1.083l-3.52-5.322a3.6,3.6,0,0,0,.606-.616Zm5.2,9.447a1.581,1.581,0,1,1-1.581-1.58,1.581,1.581,0,0,1,1.581,1.58ZM19.742,18.161a1.581,1.581,0,1,1-1.581,1.581,1.581,1.581,0,0,1,1.581-1.581Zm-.635,5.1a3.561,3.561,0,0,0,.635.064c.114,0,.222-.023.334-.034l3.635,5.5a3.572,3.572,0,0,0-.928,1.536c-.988-.085-2.809-.272-4.645-.484A3.556,3.556,0,0,0,17,27.445ZM17.693,31.8c2.664.317,4.185.48,5.074.535a3.55,3.55,0,0,0,.388.89l-3.226,3.91a3.545,3.545,0,0,0-1.477-.328c-.09,0-.175.02-.264.027l-1.47-3.913a3.586,3.586,0,0,0,.975-1.12Zm.759,10.167a1.581,1.581,0,1,1,1.581-1.581,1.581,1.581,0,0,1-1.581,1.581ZM24.9,51a1.581,1.581,0,1,1,1.581-1.581A1.581,1.581,0,0,1,24.9,51Zm1.228-4.93a3.368,3.368,0,0,0-2.021-.135l-2.719-3.513a3.564,3.564,0,0,0,.481-1.035h7.352a3.55,3.55,0,0,0,.567,1.139Zm3.093-6.683H21.872a3.56,3.56,0,0,0-.425-.95l3.193-3.871a3.383,3.383,0,0,0,2.4.258c.526.626,1.876,2.23,2.83,3.333a3.552,3.552,0,0,0-.642,1.229Zm3.421,2.581a1.581,1.581,0,1,1,1.581-1.581A1.581,1.581,0,0,1,32.645,41.968Zm11.917-6.606-8.976,2.992a3.6,3.6,0,0,0-1.072-1.006l2.059-7.579a3.548,3.548,0,0,0,2.034-.681l6.2,4.82a3.549,3.549,0,0,0-.259,1.318c0,.046.012.09.014.136Z"/>
      <path id="Path_979550" data-name="Path 979550" d="M45.261,56.93h.79a5.847,5.847,0,0,0,.511.9l-.422.756a1,1,0,0,0,.148,1.176,7.934,7.934,0,0,0,3.7,2.207,1,1,0,0,0,1.131-.479l.4-.717a6.059,6.059,0,0,0,.96,0l.4.717a1,1,0,0,0,.873.513.982.982,0,0,0,.259-.034,7.94,7.94,0,0,0,3.7-2.2,1,1,0,0,0,.148-1.177l-.445-.715a6.8,6.8,0,0,0,.532-.942h.793a1,1,0,0,0,.966-.741,8.307,8.307,0,0,0,0-4.377,1,1,0,0,0-.966-.741h-.79a5.847,5.847,0,0,0-.511-.9l.422-.756a1,1,0,0,0-.148-1.177,7.934,7.934,0,0,0-3.7-2.206,1,1,0,0,0-1.131.479l-.4.717a6.059,6.059,0,0,0-.96,0l-.4-.717a1,1,0,0,0-1.131-.479,7.934,7.934,0,0,0-3.7,2.2,1,1,0,0,0-.148,1.177l.445.715a6.8,6.8,0,0,0-.532.942h-.793a1,1,0,0,0-.966.741,8.307,8.307,0,0,0,0,4.377,1,1,0,0,0,.966.741Zm.809-3.859H46.1a1.9,1.9,0,0,0,1.739-1.111,4.774,4.774,0,0,1,.4-.712,1.973,1.973,0,0,0,.067-2.049l-.043-.077a5.954,5.954,0,0,1,1.513-.909l.328.586a1,1,0,0,0,1.061.5,4.2,4.2,0,0,1,1.667,0,1.007,1.007,0,0,0,1.061-.5l.327-.585a5.934,5.934,0,0,1,1.511.912l-.041.072a1.972,1.972,0,0,0,.067,2.05,4.815,4.815,0,0,1,.4.712A1.905,1.905,0,0,0,57.9,53.07h.034a6.166,6.166,0,0,1,.07.85,6.338,6.338,0,0,1-.069,1.01H57.9a1.905,1.905,0,0,0-1.739,1.111,4.774,4.774,0,0,1-.4.712,1.973,1.973,0,0,0-.067,2.049l.043.077a5.96,5.96,0,0,1-1.513.909l-.327-.586a1,1,0,0,0-1.058-.5,4.231,4.231,0,0,1-1.673,0,1,1,0,0,0-1.058.5l-.327.585a5.942,5.942,0,0,1-1.511-.911l.041-.073a1.972,1.972,0,0,0-.067-2.05,4.815,4.815,0,0,1-.4-.712A1.9,1.9,0,0,0,46.1,54.93h-.034a6.165,6.165,0,0,1-.07-.85,6.34,6.34,0,0,1,.069-1.01Z"/>
      <path id="Path_979551" data-name="Path 979551" d="M52,57.5A3.5,3.5,0,1,0,48.5,54,3.5,3.5,0,0,0,52,57.5Zm0-5A1.5,1.5,0,1,1,50.5,54,1.5,1.5,0,0,1,52,52.5Z"/>
      <path id="Path_979552" data-name="Path 979552" d="M32,1A31,31,0,1,0,44.4,60.42l-.8-1.832A28.993,28.993,0,1,1,57.655,45.532l1.769.936A31.011,31.011,0,0,0,32,1Z"/>
    </g>
  </g>
</svg>
