<svg xmlns="http://www.w3.org/2000/svg" xmlns:xlink="http://www.w3.org/1999/xlink" width="108" height="108" viewBox="0 0 108 108">
  <defs>
    <filter id="Path_904820" x="0" y="0" width="108" height="108" filterUnits="userSpaceOnUse">
      <feOffset dy="3" input="SourceAlpha"/>
      <feGaussianBlur stdDeviation="3" result="blur"/>
      <feFlood flood-opacity="0.161"/>
      <feComposite operator="in" in2="blur"/>
      <feComposite in="SourceGraphic"/>
    </filter>
  </defs>
  <g id="Icono" transform="translate(-615.101 -5000)">
    <g transform="matrix(1, 0, 0, 1, 615.1, 5000)" filter="url(#Path_904820)">
      <g id="Path_904820-2" data-name="Path 904820" transform="translate(9 6)" fill="#ecf4fa">
        <path d="M 45 88.5 C 39.12687683105469 88.5 33.43022537231445 87.35007476806641 28.06830024719238 85.08217620849609 C 22.88852500915527 82.89131164550781 18.23629951477051 79.75458526611328 14.2408504486084 75.75914764404297 C 10.24541282653809 71.76370239257812 7.108687400817871 67.11147308349609 4.917825222015381 61.93170166015625 C 2.649924993515015 56.56977462768555 1.5 50.87312316894531 1.5 45 C 1.5 39.12687683105469 2.649924993515015 33.43022537231445 4.917825222015381 28.06830024719238 C 7.108687400817871 22.88852500915527 10.24541282653809 18.23629951477051 14.2408504486084 14.2408504486084 C 18.23629951477051 10.24541282653809 22.88852500915527 7.108687400817871 28.06830024719238 4.917825222015381 C 33.43022537231445 2.649924993515015 39.12687683105469 1.5 45 1.5 C 50.87312316894531 1.5 56.56977462768555 2.649924993515015 61.93170166015625 4.917825222015381 C 67.11147308349609 7.108687400817871 71.76370239257812 10.24541282653809 75.75914764404297 14.2408504486084 C 79.75458526611328 18.23629951477051 82.89131164550781 22.88852500915527 85.08217620849609 28.06830024719238 C 87.35007476806641 33.43022537231445 88.5 39.12687683105469 88.5 45 C 88.5 50.87312316894531 87.35007476806641 56.56977462768555 85.08217620849609 61.93170166015625 C 82.89131164550781 67.11147308349609 79.75458526611328 71.76370239257812 75.75914764404297 75.75914764404297 C 71.76370239257812 79.75458526611328 67.11147308349609 82.89131164550781 61.93170166015625 85.08217620849609 C 56.56977462768555 87.35007476806641 50.87312316894531 88.5 45 88.5 Z" stroke="none"/>
        <path d="M 45 3 C 39.32871246337891 3 33.82865524291992 4.110054016113281 28.65262985229492 6.299339294433594 C 23.65165710449219 8.414573669433594 19.15968322753906 11.44334411621094 15.301513671875 15.301513671875 C 11.44334411621094 19.15968322753906 8.414573669433594 23.65165710449219 6.299339294433594 28.65262985229492 C 4.110054016113281 33.82865524291992 3 39.32871246337891 3 45 C 3 50.67128753662109 4.110054016113281 56.17134475708008 6.299339294433594 61.34737396240234 C 8.414573669433594 66.34834289550781 11.44334411621094 70.84031677246094 15.301513671875 74.698486328125 C 19.15968322753906 78.55665588378906 23.65165710449219 81.58542633056641 28.65262985229492 83.70066070556641 C 33.82865524291992 85.88994598388672 39.32871246337891 87 45 87 C 50.67128753662109 87 56.17134475708008 85.88994598388672 61.34737396240234 83.70066070556641 C 66.34834289550781 81.58542633056641 70.84031677246094 78.55665588378906 74.698486328125 74.698486328125 C 78.55665588378906 70.84031677246094 81.58542633056641 66.34834289550781 83.70066070556641 61.34737396240234 C 85.88994598388672 56.17134475708008 87 50.67128753662109 87 45 C 87 39.32871246337891 85.88994598388672 33.82865524291992 83.70066070556641 28.65262985229492 C 81.58542633056641 23.65165710449219 78.55665588378906 19.15968322753906 74.698486328125 15.301513671875 C 70.84031677246094 11.44334411621094 66.34834289550781 8.414573669433594 61.34737396240234 6.299339294433594 C 56.17134475708008 4.110054016113281 50.67128753662109 3 45 3 M 45 0 C 69.85281372070312 0 90 20.14718627929688 90 45 C 90 69.85281372070312 69.85281372070312 90 45 90 C 20.14718627929688 90 0 69.85281372070312 0 45 C 0 20.14718627929688 20.14718627929688 0 45 0 Z" stroke="none" fill="#2a5673"/>
      </g>
    </g>
    <g id="Page-1" transform="translate(641.101 5021.5)">
      <g id="_067---Algorithm" data-name="067---Algorithm">
        <path id="Path" d="M59,27V56a3,3,0,0,1-3,3H18a3,3,0,0,1-3-3V27Z" fill="#f5f5f5" fill-rule="evenodd"/>
        <path id="Path-2" data-name="Path" d="M56,27V56a3,3,0,0,1-3,3h3a3,3,0,0,0,3-3V27Z" fill="#cfd8dc" fill-rule="evenodd"/>
        <path id="Path-3" data-name="Path" d="M59,22v5H15V22a3,3,0,0,1,3-3H56A3,3,0,0,1,59,22Z" fill="#02a9f4" fill-rule="evenodd"/>
        <path id="Path-4" data-name="Path" d="M56,19H53a3,3,0,0,1,3,3v5h3V22A3,3,0,0,0,56,19Z" fill="#0377bc" fill-rule="evenodd"/>
        <path id="Path-5" data-name="Path" d="M45,9V19H18a3,3,0,0,0-3,3V41H4a3,3,0,0,1-3-3V9Z" fill="#f5f5f5" fill-rule="evenodd"/>
        <path id="Path-6" data-name="Path" d="M12,22V41h3V22a3,3,0,0,1,3-3H15A3,3,0,0,0,12,22Z" fill="#cfd8dc" fill-rule="evenodd"/>
        <path id="Rectangle" d="M42,9h3V19H42Z" fill="#cfd8dc" fill-rule="evenodd"/>
        <path id="Path-7" data-name="Path" d="M45,4V9H1V4A3,3,0,0,1,4,1H42A3,3,0,0,1,45,4Z" fill="#02a9f4" fill-rule="evenodd"/>
        <path id="Path-8" data-name="Path" d="M42,1H39a3,3,0,0,1,3,3V9h3V4A3,3,0,0,0,42,1Z" fill="#0377bc" fill-rule="evenodd"/>
        <rect id="Rectangle-2" data-name="Rectangle" width="14" height="8" rx="2" transform="translate(30 31)" fill="#ffdc00"/>
        <rect id="Rectangle-3" data-name="Rectangle" width="8" height="6" rx="2" transform="translate(20 49)" fill="#e91e63"/>
        <rect id="Rectangle-4" data-name="Rectangle" width="8" height="6" rx="2" transform="translate(33 49)" fill="#60a917"/>
        <rect id="Rectangle-5" data-name="Rectangle" width="8" height="6" rx="2" transform="translate(46 49)" fill="#ff9801"/>
        <g id="Group_1145356" data-name="Group 1145356">
          <path id="Shape" d="M56,18H46V4a4,4,0,0,0-4-4H4A4,4,0,0,0,0,4V38a4,4,0,0,0,4,4H14V56a4,4,0,0,0,4,4H56a4,4,0,0,0,4-4V22A4,4,0,0,0,56,18Zm2,4v4H16V22a2,2,0,0,1,2-2H56A2,2,0,0,1,58,22ZM4,2H42a2,2,0,0,1,2,2V8H2V4A2,2,0,0,1,4,2ZM4,40a2,2,0,0,1-2-2V10H44v8H18a3.987,3.987,0,0,0-3.444,2H10a1,1,0,0,0,0,2h4v2H10a1,1,0,0,0,0,2h4v6H10a1,1,0,0,0,0,2h4v2H10a1,1,0,0,0,0,2h4v2ZM56,58H18a2,2,0,0,1-2-2V28H58V56A2,2,0,0,1,56,58Z"/>
          <path id="Path-9" data-name="Path" d="M47,24h8a1,1,0,0,0,0-2H47a1,1,0,0,0,0,2Z" fill-rule="evenodd"/>
          <circle id="Oval" cx="1" cy="1" r="1" transform="translate(18 22)"/>
          <circle id="Oval-2" data-name="Oval" cx="1" cy="1" r="1" transform="translate(22 22)"/>
          <circle id="Oval-3" data-name="Oval" cx="1" cy="1" r="1" transform="translate(26 22)"/>
          <path id="Path-10" data-name="Path" d="M33,6h8a1,1,0,0,0,0-2H33a1,1,0,0,0,0,2Z" fill-rule="evenodd"/>
          <circle id="Oval-4" data-name="Oval" cx="1" cy="1" r="1" transform="translate(4 4)"/>
          <circle id="Oval-5" data-name="Oval" cx="1" cy="1" r="1" transform="translate(8 4)"/>
          <circle id="Oval-6" data-name="Oval" cx="1" cy="1" r="1" transform="translate(12 4)"/>
          <path id="Path-11" data-name="Path" d="M6,12H5a1,1,0,0,0,0,2H6a1,1,0,0,0,0-2Z" fill-rule="evenodd"/>
          <path id="Path-12" data-name="Path" d="M10,14H23a1,1,0,0,0,0-2H10a1,1,0,0,0,0,2Z" fill-rule="evenodd"/>
          <path id="Path-13" data-name="Path" d="M10,18h3a1,1,0,0,0,0-2H10a1,1,0,0,0,0,2Z" fill-rule="evenodd"/>
          <path id="Path-14" data-name="Path" d="M10,30h1a1,1,0,0,0,0-2H10a1,1,0,0,0,0,2Z" fill-rule="evenodd"/>
          <path id="Path-15" data-name="Path" d="M6,16H5a1,1,0,0,0,0,2H6a1,1,0,0,0,0-2Z" fill-rule="evenodd"/>
          <path id="Path-16" data-name="Path" d="M6,20H5a1,1,0,0,0,0,2H6a1,1,0,0,0,0-2Z" fill-rule="evenodd"/>
          <path id="Path-17" data-name="Path" d="M6,24H5a1,1,0,0,0,0,2H6a1,1,0,0,0,0-2Z" fill-rule="evenodd"/>
          <path id="Path-18" data-name="Path" d="M6,28H5a1,1,0,0,0,0,2H6a1,1,0,0,0,0-2Z" fill-rule="evenodd"/>
          <path id="Path-19" data-name="Path" d="M6,32H5a1,1,0,0,0,0,2H6a1,1,0,0,0,0-2Z" fill-rule="evenodd"/>
          <path id="Path-20" data-name="Path" d="M6,36H5a1,1,0,0,0,0,2H6a1,1,0,0,0,0-2Z" fill-rule="evenodd"/>
          <path id="Path-21" data-name="Path" d="M27,14H39a1,1,0,0,0,0-2H27a1,1,0,0,0,0,2Z" fill-rule="evenodd"/>
          <path id="Shape-2" data-name="Shape" d="M52,48H51V46a3,3,0,0,0-3-3H38V40h4a3,3,0,0,0,3-3V33a3,3,0,0,0-3-3H32a3,3,0,0,0-3,3v4a3,3,0,0,0,3,3h4v3H26a3,3,0,0,0-3,3v2H22a3,3,0,0,0-3,3v2a3,3,0,0,0,3,3h4a3,3,0,0,0,3-3V51a3,3,0,0,0-3-3H25V46a1,1,0,0,1,1-1H36v3H35a3,3,0,0,0-3,3v2a3,3,0,0,0,3,3h4a3,3,0,0,0,3-3V51a3,3,0,0,0-3-3H38V45H48a1,1,0,0,1,1,1v2H48a3,3,0,0,0-3,3v2a3,3,0,0,0,3,3h4a3,3,0,0,0,3-3V51A3,3,0,0,0,52,48ZM31,37V33a1,1,0,0,1,1-1H42a1,1,0,0,1,1,1v4a1,1,0,0,1-1,1H32A1,1,0,0,1,31,37ZM27,51v2a1,1,0,0,1-1,1H22a1,1,0,0,1-1-1V51a1,1,0,0,1,1-1h4A1,1,0,0,1,27,51Zm13,0v2a1,1,0,0,1-1,1H35a1,1,0,0,1-1-1V51a1,1,0,0,1,1-1h4A1,1,0,0,1,40,51Zm13,2a1,1,0,0,1-1,1H48a1,1,0,0,1-1-1V51a1,1,0,0,1,1-1h4a1,1,0,0,1,1,1Z"/>
        </g>
      </g>
    </g>
  </g>
</svg>
