<svg xmlns="http://www.w3.org/2000/svg" xmlns:xlink="http://www.w3.org/1999/xlink" width="108" height="108" viewBox="0 0 108 108">
  <defs>
    <filter id="Path_904820" x="0" y="0" width="108" height="108" filterUnits="userSpaceOnUse">
      <feOffset dy="3" input="SourceAlpha"/>
      <feGaussianBlur stdDeviation="3" result="blur"/>
      <feFlood flood-opacity="0.161"/>
      <feComposite operator="in" in2="blur"/>
      <feComposite in="SourceGraphic"/>
    </filter>
    <clipPath id="clip-path">
      <path id="path3744" d="M0-682.665H65.362V-617.3H0Z" transform="translate(0 682.665)"/>
    </clipPath>
  </defs>
  <g id="Group_1145609" data-name="Group 1145609" transform="translate(-616 -3395)">
    <g id="Group_1145591" data-name="Group 1145591">
      <g id="Icono" transform="translate(-2338.101 -4072)">
        <g transform="matrix(1, 0, 0, 1, 2954.1, 7467)" filter="url(#Path_904820)">
          <g id="Path_904820-2" data-name="Path 904820" transform="translate(9 6)" fill="#fff">
            <path d="M 45 88.5 C 39.12687683105469 88.5 33.43022537231445 87.35007476806641 28.06830024719238 85.08217620849609 C 22.88852500915527 82.89131164550781 18.23629951477051 79.75458526611328 14.2408504486084 75.75914764404297 C 10.24541282653809 71.76370239257812 7.108687400817871 67.11147308349609 4.917825222015381 61.93170166015625 C 2.649924993515015 56.56977462768555 1.5 50.87312316894531 1.5 45 C 1.5 39.12687683105469 2.649924993515015 33.43022537231445 4.917825222015381 28.06830024719238 C 7.108687400817871 22.88852500915527 10.24541282653809 18.23629951477051 14.2408504486084 14.2408504486084 C 18.23629951477051 10.24541282653809 22.88852500915527 7.108687400817871 28.06830024719238 4.917825222015381 C 33.43022537231445 2.649924993515015 39.12687683105469 1.5 45 1.5 C 50.87312316894531 1.5 56.56977462768555 2.649924993515015 61.93170166015625 4.917825222015381 C 67.11147308349609 7.108687400817871 71.76370239257812 10.24541282653809 75.75914764404297 14.2408504486084 C 79.75458526611328 18.23629951477051 82.89131164550781 22.88852500915527 85.08217620849609 28.06830024719238 C 87.35007476806641 33.43022537231445 88.5 39.12687683105469 88.5 45 C 88.5 50.87312316894531 87.35007476806641 56.56977462768555 85.08217620849609 61.93170166015625 C 82.89131164550781 67.11147308349609 79.75458526611328 71.76370239257812 75.75914764404297 75.75914764404297 C 71.76370239257812 79.75458526611328 67.11147308349609 82.89131164550781 61.93170166015625 85.08217620849609 C 56.56977462768555 87.35007476806641 50.87312316894531 88.5 45 88.5 Z" stroke="none"/>
            <path d="M 45 3 C 39.32871246337891 3 33.82865524291992 4.110054016113281 28.65262985229492 6.299339294433594 C 23.65165710449219 8.414573669433594 19.15968322753906 11.44334411621094 15.301513671875 15.301513671875 C 11.44334411621094 19.15968322753906 8.414573669433594 23.65165710449219 6.299339294433594 28.65262985229492 C 4.110054016113281 33.82865524291992 3 39.32871246337891 3 45 C 3 50.67128753662109 4.110054016113281 56.17134475708008 6.299339294433594 61.34737396240234 C 8.414573669433594 66.34834289550781 11.44334411621094 70.84031677246094 15.301513671875 74.698486328125 C 19.15968322753906 78.55665588378906 23.65165710449219 81.58542633056641 28.65262985229492 83.70066070556641 C 33.82865524291992 85.88994598388672 39.32871246337891 87 45 87 C 50.67128753662109 87 56.17134475708008 85.88994598388672 61.34737396240234 83.70066070556641 C 66.34834289550781 81.58542633056641 70.84031677246094 78.55665588378906 74.698486328125 74.698486328125 C 78.55665588378906 70.84031677246094 81.58542633056641 66.34834289550781 83.70066070556641 61.34737396240234 C 85.88994598388672 56.17134475708008 87 50.67128753662109 87 45 C 87 39.32871246337891 85.88994598388672 33.82865524291992 83.70066070556641 28.65262985229492 C 81.58542633056641 23.65165710449219 78.55665588378906 19.15968322753906 74.698486328125 15.301513671875 C 70.84031677246094 11.44334411621094 66.34834289550781 8.414573669433594 61.34737396240234 6.299339294433594 C 56.17134475708008 4.110054016113281 50.67128753662109 3 45 3 M 45 0 C 69.85281372070312 0 90 20.14718627929688 90 45 C 90 69.85281372070312 69.85281372070312 90 45 90 C 20.14718627929688 90 0 69.85281372070312 0 45 C 0 20.14718627929688 20.14718627929688 0 45 0 Z" stroke="none" fill="#75125d"/>
          </g>
        </g>
      </g>
    </g>
    <g id="g3738" transform="translate(637.319 4095.984)">
      <g id="g3740" transform="translate(0 -682.665)">
        <g id="g3742" clip-path="url(#clip-path)">
          <g id="g3748" transform="translate(1.277 1.277)">
            <path id="path3750" d="M-593.189-349.644v-11.234h-6.5a25.4,25.4,0,0,0-3.327-8.02l4.6-4.6-7.944-7.944-4.6,4.6a25.4,25.4,0,0,0-8.02-3.327v-6.5h-11.234v6.49a25.4,25.4,0,0,0-8.032,3.322l-4.585-4.585-7.944,7.944,4.578,4.578a25.4,25.4,0,0,0-3.34,8.04H-656v11.234h6.457a25.4,25.4,0,0,0,3.334,8.052l-4.565,4.565,7.944,7.944,4.565-4.565a25.4,25.4,0,0,0,8.052,3.334v6.457h11.234v-6.465a25.4,25.4,0,0,0,8.04-3.34l4.578,4.578,7.944-7.944L-603-341.612a25.4,25.4,0,0,0,3.322-8.032Z" transform="translate(655.998 386.666)" fill="#72d8ff"/>
          </g>
          <g id="g3752" transform="translate(17.346 17.378)">
            <path id="path3754" d="M-289.361-144.68A15.319,15.319,0,0,0-304.68-160,15.319,15.319,0,0,0-320-144.68a15.319,15.319,0,0,0,15.319,15.319,15.319,15.319,0,0,0,15.319-15.319" transform="translate(319.999 160)" fill="#fff"/>
          </g>
          <g id="g3756" transform="translate(17.346 18.446)">
            <path id="path3758" d="M-91.507,0A15.325,15.325,0,0,0-101.2,14.252a15.277,15.277,0,0,0,1.128,5.781" transform="translate(101.196)" fill="none" stroke="#000" stroke-linecap="round" stroke-linejoin="round" stroke-miterlimit="10" stroke-width="2"/>
          </g>
          <g id="g3760" transform="translate(32.665 17.378)">
            <path id="path3762" d="M-.715,0H-.791" transform="translate(0.791 0.001)" fill="none" stroke="#000" stroke-linecap="round" stroke-linejoin="round" stroke-miterlimit="10" stroke-width="2"/>
          </g>
          <g id="g3764" transform="translate(38.296 18.446)">
            <path id="path3766" d="M-83.093-85.867a15.366,15.366,0,0,0-8.8-9.092" transform="translate(91.892 94.958)" fill="none" stroke="#000" stroke-linecap="round" stroke-linejoin="round" stroke-miterlimit="10" stroke-width="2"/>
          </g>
          <g id="g3768" transform="translate(19.012 27.064)">
            <path id="path3770" d="M0-257.168a25.4,25.4,0,0,0,8.052,3.334v6.457H19.286v-6.465a25.4,25.4,0,0,0,8.04-3.34L31.9-252.6l7.944-7.944-4.585-4.585a25.393,25.393,0,0,0,3.322-8.032h6.49V-284.4H43.329" transform="translate(0 284.398)" fill="none" stroke="#000" stroke-linecap="round" stroke-linejoin="round" stroke-miterlimit="10" stroke-width="2"/>
          </g>
          <g id="g3772" transform="translate(1.277 1.277)">
            <path id="path3774" d="M-509.833-184.049q-.466-.881-1-1.72l4.6-4.6-7.944-7.944-4.6,4.6a25.4,25.4,0,0,0-8.02-3.327v-6.5h-11.234v6.49a25.4,25.4,0,0,0-8.032,3.322l-4.585-4.585-7.944,7.944,4.578,4.578a25.4,25.4,0,0,0-3.34,8.04h-6.464v11.234h6.457a25.4,25.4,0,0,0,3.334,8.052" transform="translate(563.816 203.537)" fill="none" stroke="#000" stroke-linecap="round" stroke-linejoin="round" stroke-miterlimit="10" stroke-width="2"/>
          </g>
          <g id="g3776" transform="translate(1.277 18.524)">
            <path id="path3778" d="M-593.213,0l-17.644,4.175,3.006,3.006-14.036,14.036-8.868-8.868-25.269,25.269,7.944,7.944,17.326-17.326,8.868,8.868,21.98-21.98,2.52,2.52Z" transform="translate(656.025)" fill="#a0e557"/>
          </g>
          <g id="g3780" transform="translate(1.277 18.524)">
            <path id="path3782" d="M-593.213,0l-17.644,4.175,3.006,3.006-14.036,14.036-8.868-8.868-25.269,25.269,7.944,7.944,17.326-17.326,8.868,8.868,21.98-21.98,2.52,2.52Z" transform="translate(656.025)" fill="none" stroke="#000" stroke-linecap="round" stroke-linejoin="round" stroke-miterlimit="10" stroke-width="2"/>
          </g>
          <g id="g3784" transform="translate(5.717 52.724)">
            <path id="path3786" d="M0-74.214l7.858-7.858" transform="translate(0 82.072)" fill="none" stroke="#000" stroke-linecap="round" stroke-linejoin="round" stroke-miterlimit="10" stroke-width="2"/>
          </g>
          <g id="g3788" transform="translate(17.504 48.795)">
            <path id="path3790" d="M0,0H0" fill="none" stroke="#000" stroke-linecap="round" stroke-linejoin="round" stroke-miterlimit="10" stroke-width="2"/>
          </g>
        </g>
      </g>
    </g>
  </g>
</svg>
