<svg xmlns="http://www.w3.org/2000/svg" width="90" height="90" viewBox="0 0 90 90">
  <g id="Group_1145378" data-name="Group 1145378" transform="translate(-597 -10367)">
    <g id="Fondo" transform="translate(597 10367)" fill="#fffbe8" stroke="#bca724" stroke-width="3">
      <circle cx="45" cy="45" r="45" stroke="none"/>
      <circle cx="45" cy="45" r="43.5" fill="none"/>
    </g>
    <g id="Group_1145377" data-name="Group 1145377" transform="translate(613.5 10383.011)">
      <g id="Group_1145375" data-name="Group 1145375" transform="translate(0.861 0.849)">
        <g id="Group_1145374" data-name="Group 1145374">
          <g id="Group_1145373" data-name="Group 1145373" transform="translate(28.207)">
            <path id="Path_979589" data-name="Path 979589" d="M259.26,125.322a2.661,2.661,0,1,1,2.659-2.661A2.663,2.663,0,0,1,259.26,125.322Z" transform="translate(-256.601 -107.26)" fill="#ffd15b"/>
            <ellipse id="Ellipse_11636" data-name="Ellipse 11636" cx="2.659" cy="2.661" rx="2.659" ry="2.661" transform="translate(0 25.479)" fill="#ffd15b"/>
            <path id="Path_979590" data-name="Path 979590" d="M259.26,350.32a2.661,2.661,0,1,1,2.659-2.661A2.663,2.663,0,0,1,259.26,350.32Z" transform="translate(-256.601 -306.779)" fill="#ffd15b"/>
            <path id="Path_979591" data-name="Path 979591" d="M259.26,12.823a2.661,2.661,0,1,1,2.659-2.661A2.663,2.663,0,0,1,259.26,12.823Z" transform="translate(-256.601 -7.5)" fill="#ffd15b"/>
            <path id="Path_979592" data-name="Path 979592" d="M259.26,462.819a2.661,2.661,0,1,1,2.659-2.661A2.663,2.663,0,0,1,259.26,462.819Z" transform="translate(-256.601 -406.539)" fill="#ffd15b"/>
          </g>
          <path id="Path_979593" data-name="Path 979593" d="M149.318,125.322a2.661,2.661,0,1,1,2.659-2.661A2.663,2.663,0,0,1,149.318,125.322Z" transform="translate(-130.902 -107.26)" fill="#c8effe"/>
          <path id="Path_979594" data-name="Path 979594" d="M149.318,237.821a2.661,2.661,0,1,1,2.659-2.661A2.663,2.663,0,0,1,149.318,237.821Z" transform="translate(-130.902 -207.019)" fill="#c8effe"/>
          <path id="Path_979595" data-name="Path 979595" d="M149.318,350.32a2.661,2.661,0,1,1,2.659-2.661A2.663,2.663,0,0,1,149.318,350.32Z" transform="translate(-130.902 -306.779)" fill="#c8effe"/>
          <path id="Path_979596" data-name="Path 979596" d="M149.318,12.823a2.661,2.661,0,1,1,2.659-2.661A2.663,2.663,0,0,1,149.318,12.823Z" transform="translate(-130.902 -7.5)" fill="#c8effe"/>
          <path id="Path_979597" data-name="Path 979597" d="M149.318,462.819a2.661,2.661,0,1,1,2.659-2.661A2.663,2.663,0,0,1,149.318,462.819Z" transform="translate(-130.902 -406.539)" fill="#c8effe"/>
          <path id="Path_979598" data-name="Path 979598" d="M10.172,91.1a2.661,2.661,0,1,1,2.659-2.661A2.663,2.663,0,0,1,10.172,91.1Z" transform="translate(-7.513 -76.916)" fill="#fd8087"/>
          <path id="Path_979599" data-name="Path 979599" d="M10.172,237.821a2.661,2.661,0,1,1,2.659-2.661A2.663,2.663,0,0,1,10.172,237.821Z" transform="translate(-7.513 -207.019)" fill="#fd8087"/>
          <path id="Path_979600" data-name="Path 979600" d="M10.172,384.539a2.661,2.661,0,1,1,2.659-2.661A2.663,2.663,0,0,1,10.172,384.539Z" transform="translate(-7.513 -337.123)" fill="#fd8087"/>
          <path id="Path_979601" data-name="Path 979601" d="M398.407,91.1a2.661,2.661,0,1,1,2.659-2.661A2.663,2.663,0,0,1,398.407,91.1Z" transform="translate(-351.784 -76.916)" fill="#6fd7a3"/>
          <path id="Path_979602" data-name="Path 979602" d="M398.407,237.821a2.661,2.661,0,1,1,2.659-2.661A2.663,2.663,0,0,1,398.407,237.821Z" transform="translate(-351.784 -207.019)" fill="#6fd7a3"/>
          <path id="Path_979603" data-name="Path 979603" d="M398.407,384.539a2.661,2.661,0,1,1,2.659-2.661A2.663,2.663,0,0,1,398.407,384.539Z" transform="translate(-351.784 -337.123)" fill="#6fd7a3"/>
        </g>
      </g>
      <g id="Group_1145376" data-name="Group 1145376" transform="translate(0.012 0)">
        <path id="Path_979604" data-name="Path 979604" d="M54.784,31.622a.849.849,0,0,0,1.2-.013L57.59,29.97a1.409,1.409,0,0,0,0-1.961l-1.606-1.64a.849.849,0,1,0-1.213,1.188l.57.582H50.889a3.507,3.507,0,0,0-4.473-2.494l-4.5-7.271,3.218-3.393a3.505,3.505,0,0,0,5.752-1.757h4.453l-.57.582a.849.849,0,1,0,1.213,1.188l1.606-1.639a1.409,1.409,0,0,0,0-1.961l-1.606-1.64a.849.849,0,1,0-1.213,1.188l.57.582H50.889a3.5,3.5,0,0,0-5.953-1.559L35.111,4.439a3.509,3.509,0,1,0-6.787-1.778H22.676a3.569,3.569,0,0,0-1.013-1.7A3.512,3.512,0,0,0,19.051.008a.849.849,0,0,0,.109,1.7A1.865,1.865,0,0,1,21.088,3.51a1.823,1.823,0,0,1-1.81,1.813A1.784,1.784,0,0,1,17.864,4.6a1.79,1.79,0,0,1-.335-1.557.849.849,0,1,0-1.641-.438,3.412,3.412,0,0,0,.019,1.827L6.07,9.966a3.51,3.51,0,1,0-.2,5.015l3.218,3.393-4.5,7.271a3.511,3.511,0,1,0,0,6.687l4.084,6.6L5.247,42.549a3.511,3.511,0,1,0,.823,5.463l9.825,5.527a3.508,3.508,0,1,0,6.787,1.778h5.647a3.569,3.569,0,0,0,3.7,2.647.849.849,0,0,0-.148-1.692,1.864,1.864,0,0,1-1.969-1.8,1.813,1.813,0,0,1,1.81-1.812A1.86,1.86,0,0,1,33.5,54.807a.849.849,0,0,0,1.669.317,3.417,3.417,0,0,0-.075-1.578l9.836-5.533a3.5,3.5,0,0,0,5.953-1.559h4.453l-.57.582a.849.849,0,1,0,1.213,1.188l1.606-1.639a1.409,1.409,0,0,0,0-1.961l-1.606-1.64a.849.849,0,1,0-1.213,1.188l.57.582H50.888a3.5,3.5,0,0,0-5.131-2.205l-3.427-3.613,4.084-6.6a3.507,3.507,0,0,0,4.473-2.494h4.453l-.57.582a.85.85,0,0,0,.013,1.2Zm-19.548,10.1a3.489,3.489,0,0,0-.328-1.468l3.581-2.9,1.709,1.8-2.03,3.282Zm-6.913,11.9H22.682a3.492,3.492,0,0,0-.418-.991L25.5,49.314l3.239,3.314a3.494,3.494,0,0,0-.418.991ZM21.049,51.44a3.5,3.5,0,0,0-2.841-.315l-4.433-7.168,2.4-.59a3.5,3.5,0,0,0,4.874,1.391L24.315,48.1Zm-5.28-35.178a3.488,3.488,0,0,0,.328,1.468l-2.989,2.417L11.22,18.155l1.617-2.615Zm6.913-11.9h5.641a3.489,3.489,0,0,0,.321.826l-3.229,3.39L22.264,5.351a3.489,3.489,0,0,0,.418-.991ZM29.8,6.44a3.5,3.5,0,0,0,3,.415l4.433,7.168-2.4.59a3.5,3.5,0,0,0-4.874-1.391L26.6,9.791ZM44.08,28.14H35.132a3.511,3.511,0,0,0-.926-1.633l3.844-4.053L44.3,27.51a3.489,3.489,0,0,0-.223.63Zm-26.612.849a1.813,1.813,0,0,1,1.81-1.812,1.832,1.832,0,0,1,1.81,1.812,1.81,1.81,0,1,1-3.62,0Zm10.855-.849H22.682a3.493,3.493,0,0,0-.418-.991L25.5,23.835l3.239,3.314a3.494,3.494,0,0,0-.418.991Zm-5.641,1.7h5.641a3.491,3.491,0,0,0,.418.991L25.5,34.144,22.264,30.83a3.493,3.493,0,0,0,.418-.991Zm7.24-.752c.116-1.018.63-1.91,1.805-1.91a1.812,1.812,0,1,1-1.805,1.91Zm2.785-3.468a3.494,3.494,0,0,0-2.752.342L26.69,22.62l3.265-3.341a3.5,3.5,0,0,0,3.885-.228l2.884,2.332ZM22.682,17.1h5.641a3.491,3.491,0,0,0,.418.991L25.5,21.4,22.264,18.09A3.5,3.5,0,0,0,22.682,17.1Zm10.856-.849a1.81,1.81,0,1,1-1.81-1.812A1.83,1.83,0,0,1,33.538,16.25Zm1.371,1.479a3.491,3.491,0,0,0,.328-1.468l2.933-.721,1.617,2.615L37.9,20.146Zm-6.167-3.32a3.491,3.491,0,0,0-.418.991H22.682a3.489,3.489,0,0,0-.442-1.029l3.191-3.35Zm-7.654,1.84a1.813,1.813,0,0,1-1.81,1.812,1.838,1.838,0,0,1-1.81-1.812,1.81,1.81,0,1,1,3.62,0Zm-3.923,2.8a3.5,3.5,0,0,0,3.885.228l3.265,3.341-3.265,3.341a3.494,3.494,0,0,0-2.752-.342L14.28,21.383ZM16.8,26.507a3.512,3.512,0,0,0-.926,1.633H6.925a3.489,3.489,0,0,0-.223-.63l6.254-5.056ZM6.925,29.839h8.948a3.49,3.49,0,0,0,.446,1.035l-3.957,4.172L6.7,30.469a3.489,3.489,0,0,0,.223-.63Zm10.626,2.205a3.495,3.495,0,0,0,3.5-.026l3.265,3.341L21.049,38.7a3.5,3.5,0,0,0-3.885.228l-3.477-2.811Zm10.772,8.836H22.682a3.492,3.492,0,0,0-.418-.991L25.5,36.574l3.239,3.314a3.491,3.491,0,0,0-.418.991Zm-7.781,2.143a1.931,1.931,0,0,1-1.264.518,1.812,1.812,0,0,1,0-3.624,1.832,1.832,0,0,1,1.81,1.812A1.929,1.929,0,0,1,20.542,43.022ZM16.1,40.249a3.492,3.492,0,0,0-.328,1.468l-2.933.721-2.03-3.282,1.709-1.8Zm6.167,3.32a3.49,3.49,0,0,0,.418-.991h5.641a3.491,3.491,0,0,0,.418.991L25.5,46.883Zm7.658-1.743c.114-1,.641-1.91,1.805-1.91a1.838,1.838,0,0,1,1.81,1.812,1.809,1.809,0,0,1-3.615.1Zm3.918-2.9a3.5,3.5,0,0,0-3.885-.228L26.69,35.359l3.265-3.341a3.495,3.495,0,0,0,3.5.026l3.863,4.073Zm.845-8.054a3.49,3.49,0,0,0,.446-1.035H44.08a3.489,3.489,0,0,0,.223.63l-5.662,4.577Zm9.451-5.684-4.914-3.973,1.487-1.568ZM39.9,15.114l3.609-.888-2.517,2.654Zm7.582-4.551a1.812,1.812,0,1,1-1.81,1.812A1.813,1.813,0,0,1,47.484,10.563Zm-3.383.883a3.5,3.5,0,0,0-.125.917L38.963,13.6,34.239,5.958l.037-.039ZM31.727,1.7a1.812,1.812,0,1,1-1.81,1.812A1.813,1.813,0,0,1,31.727,1.7ZM21.049,6.539l3.193,3.268L21.011,13.2a3.5,3.5,0,0,0-4.835,1.413l-2.4-.59,4.436-7.173a3.4,3.4,0,0,0,1.066.172,3.484,3.484,0,0,0,1.772-.482Zm-4.3-.631.029.031L12.042,13.6,7.029,12.363a3.5,3.5,0,0,0-.125-.917ZM3.521,14.187a1.812,1.812,0,1,1,1.81-1.812A1.813,1.813,0,0,1,3.521,14.187Zm3.973.04,3.609.888-1.092,1.766Zm4.289,6.991L6.869,25.19,10.3,19.649ZM1.711,28.989a1.813,1.813,0,0,1,1.81-1.812,1.812,1.812,0,0,1,0,3.624,1.813,1.813,0,0,1-1.81-1.812Zm5.158,3.8,4.322,3.494L9.882,37.662ZM11.1,42.864l-4.48,1.1c-.045-.085-.093-.167-.144-.247L9.6,40.43ZM3.521,47.416A1.812,1.812,0,1,1,5.331,45.6,1.813,1.813,0,0,1,3.521,47.416ZM6.9,46.532a3.5,3.5,0,0,0,.125-.917l5.013-1.233,4.724,7.638-.037.039ZM19.278,56.28a1.812,1.812,0,0,1,0-3.624,1.832,1.832,0,0,1,1.81,1.812A1.813,1.813,0,0,1,19.278,56.28Zm10.678-4.84L26.69,48.1l3.265-3.341a3.5,3.5,0,0,0,4.874-1.391l2.4.59L32.793,51.13a3.393,3.393,0,0,0-1.066-.173,3.485,3.485,0,0,0-1.772.483Zm4.3.63-.03-.031,4.735-7.657,5.013,1.233a3.5,3.5,0,0,0,.125.917ZM49.294,45.6a1.81,1.81,0,1,1-1.81-1.812A1.813,1.813,0,0,1,49.294,45.6Zm-4.768-1.885q-.077.12-.144.247l-4.48-1.1,1.505-2.434Zm-4.712-7.437,4.322-3.494-3.014,4.873Zm7.67-5.481a1.838,1.838,0,0,1-1.81-1.812,1.81,1.81,0,1,1,1.81,1.812Z" transform="translate(-0.012 0)"/>
      </g>
    </g>
  </g>
</svg>
