<svg xmlns="http://www.w3.org/2000/svg" xmlns:xlink="http://www.w3.org/1999/xlink" width="108" height="108" viewBox="0 0 108 108">
  <defs>
    <filter id="Path_904820" x="0" y="0" width="108" height="108" filterUnits="userSpaceOnUse">
      <feOffset dy="3" input="SourceAlpha"/>
      <feGaussianBlur stdDeviation="3" result="blur"/>
      <feFlood flood-opacity="0.161"/>
      <feComposite operator="in" in2="blur"/>
      <feComposite in="SourceGraphic"/>
    </filter>
  </defs>
  <g id="Icono" transform="translate(-615.101 -5000)">
    <g transform="matrix(1, 0, 0, 1, 615.1, 5000)" filter="url(#Path_904820)">
      <g id="Path_904820-2" data-name="Path 904820" transform="translate(9 6)" fill="#ecf4fa">
        <path d="M 45 88.5 C 39.12687683105469 88.5 33.43022537231445 87.35007476806641 28.06830024719238 85.08217620849609 C 22.88852500915527 82.89131164550781 18.23629951477051 79.75458526611328 14.2408504486084 75.75914764404297 C 10.24541282653809 71.76370239257812 7.108687400817871 67.11147308349609 4.917825222015381 61.93170166015625 C 2.649924993515015 56.56977462768555 1.5 50.87312316894531 1.5 45 C 1.5 39.12687683105469 2.649924993515015 33.43022537231445 4.917825222015381 28.06830024719238 C 7.108687400817871 22.88852500915527 10.24541282653809 18.23629951477051 14.2408504486084 14.2408504486084 C 18.23629951477051 10.24541282653809 22.88852500915527 7.108687400817871 28.06830024719238 4.917825222015381 C 33.43022537231445 2.649924993515015 39.12687683105469 1.5 45 1.5 C 50.87312316894531 1.5 56.56977462768555 2.649924993515015 61.93170166015625 4.917825222015381 C 67.11147308349609 7.108687400817871 71.76370239257812 10.24541282653809 75.75914764404297 14.2408504486084 C 79.75458526611328 18.23629951477051 82.89131164550781 22.88852500915527 85.08217620849609 28.06830024719238 C 87.35007476806641 33.43022537231445 88.5 39.12687683105469 88.5 45 C 88.5 50.87312316894531 87.35007476806641 56.56977462768555 85.08217620849609 61.93170166015625 C 82.89131164550781 67.11147308349609 79.75458526611328 71.76370239257812 75.75914764404297 75.75914764404297 C 71.76370239257812 79.75458526611328 67.11147308349609 82.89131164550781 61.93170166015625 85.08217620849609 C 56.56977462768555 87.35007476806641 50.87312316894531 88.5 45 88.5 Z" stroke="none"/>
        <path d="M 45 3 C 39.32871246337891 3 33.82865524291992 4.110054016113281 28.65262985229492 6.299339294433594 C 23.65165710449219 8.414573669433594 19.15968322753906 11.44334411621094 15.301513671875 15.301513671875 C 11.44334411621094 19.15968322753906 8.414573669433594 23.65165710449219 6.299339294433594 28.65262985229492 C 4.110054016113281 33.82865524291992 3 39.32871246337891 3 45 C 3 50.67128753662109 4.110054016113281 56.17134475708008 6.299339294433594 61.34737396240234 C 8.414573669433594 66.34834289550781 11.44334411621094 70.84031677246094 15.301513671875 74.698486328125 C 19.15968322753906 78.55665588378906 23.65165710449219 81.58542633056641 28.65262985229492 83.70066070556641 C 33.82865524291992 85.88994598388672 39.32871246337891 87 45 87 C 50.67128753662109 87 56.17134475708008 85.88994598388672 61.34737396240234 83.70066070556641 C 66.34834289550781 81.58542633056641 70.84031677246094 78.55665588378906 74.698486328125 74.698486328125 C 78.55665588378906 70.84031677246094 81.58542633056641 66.34834289550781 83.70066070556641 61.34737396240234 C 85.88994598388672 56.17134475708008 87 50.67128753662109 87 45 C 87 39.32871246337891 85.88994598388672 33.82865524291992 83.70066070556641 28.65262985229492 C 81.58542633056641 23.65165710449219 78.55665588378906 19.15968322753906 74.698486328125 15.301513671875 C 70.84031677246094 11.44334411621094 66.34834289550781 8.414573669433594 61.34737396240234 6.299339294433594 C 56.17134475708008 4.110054016113281 50.67128753662109 3 45 3 M 45 0 C 69.85281372070312 0 90 20.14718627929688 90 45 C 90 69.85281372070312 69.85281372070312 90 45 90 C 20.14718627929688 90 0 69.85281372070312 0 45 C 0 20.14718627929688 20.14718627929688 0 45 0 Z" stroke="none" fill="#2a5673"/>
      </g>
    </g>
    <g id="Group_1145317" data-name="Group 1145317" transform="translate(603.102 4988)">
      <g id="Group_1145299" data-name="Group 1145299" transform="translate(80.714 50.821)">
        <path id="Path_979463" data-name="Path 979463" d="M384,168v3.321a2.214,2.214,0,0,0,2.214,2.214h2.214V168Z" transform="translate(-384 -168)" fill="#463c4b"/>
      </g>
      <g id="Group_1145300" data-name="Group 1145300" transform="translate(88.464 50.821)">
        <path id="Path_979464" data-name="Path 979464" d="M440,168v5.536h2.214a2.214,2.214,0,0,0,2.214-2.214V168Z" transform="translate(-440 -168)" fill="#463c4b"/>
      </g>
      <g id="Group_1145301" data-name="Group 1145301" transform="translate(41.967 35.329)">
        <path id="Path_979465" data-name="Path 979465" d="M0,0H9.394V31.314H0Z" transform="translate(6.642 28.781) rotate(-135)" fill="#555a6e"/>
      </g>
      <g id="Group_1145302" data-name="Group 1145302" transform="translate(32 51.928)">
        <path id="Path_979466" data-name="Path 979466" d="M70.75,201.464,54.143,184.857A8.857,8.857,0,0,0,45.286,176H40.857a8.857,8.857,0,1,0,0,17.714h4.429l16.607,16.607Z" transform="translate(-32 -176)" fill="#faa019"/>
      </g>
      <g id="Group_1145303" data-name="Group 1145303" transform="translate(85.142 44.178)">
        <path id="Path_979467" data-name="Path 979467" d="M416,120h3.321v3.321H416Z" transform="translate(-416 -120)" fill="#463c4b"/>
      </g>
      <g id="Group_1145304" data-name="Group 1145304" transform="translate(32 51.928)">
        <path id="Path_979468" data-name="Path 979468" d="M49.714,184.857a8.857,8.857,0,1,0-8.857,8.857l18.821,18.821,8.857-8.857Z" transform="translate(-32 -176)" fill="#ffcd05"/>
      </g>
      <g id="Group_1145305" data-name="Group 1145305" transform="translate(56.357 76.285)">
        <path id="Path_979469" data-name="Path 979469" d="M222.393,352H215.75a7.75,7.75,0,0,0-7.75,7.75v5.536h22.143V359.75A7.75,7.75,0,0,0,222.393,352Z" transform="translate(-208 -352)" fill="#463c4b"/>
      </g>
      <g id="Group_1145306" data-name="Group 1145306" transform="translate(56.357 76.285)">
        <path id="Path_979470" data-name="Path 979470" d="M215.75,352a7.75,7.75,0,0,0-7.75,7.75v5.536h15.5V359.75A7.75,7.75,0,0,0,215.75,352Z" transform="translate(-208 -352)" fill="#555a6e"/>
      </g>
      <g id="Group_1145307" data-name="Group 1145307" transform="translate(60.418 81.073)">
        <ellipse id="Ellipse_11591" data-name="Ellipse 11591" cx="3.443" cy="3.012" rx="3.443" ry="3.012" transform="translate(0 0)" fill="#ffcd05"/>
      </g>
      <g id="Group_1145308" data-name="Group 1145308" transform="translate(51.928 89.571)">
        <path id="Path_979471" data-name="Path 979471" d="M202.571,448H180.429A4.429,4.429,0,0,0,176,452.429h31A4.429,4.429,0,0,0,202.571,448Z" transform="translate(-176 -448)" fill="#463c4b"/>
      </g>
      <g id="Group_1145309" data-name="Group 1145309" transform="translate(36.319 56.114)">
        <ellipse id="Ellipse_11592" data-name="Ellipse 11592" cx="4.303" cy="4.734" rx="4.303" ry="4.734" transform="translate(0 0)" fill="#555a6e"/>
      </g>
      <g id="Group_1145310" data-name="Group 1145310" transform="translate(56.357 32)">
        <path id="Path_979472" data-name="Path 979472" d="M219.071,45.286h-4.429a6.643,6.643,0,1,1,0-13.286h4.429a6.643,6.643,0,0,1,0,13.286Z" transform="translate(-208 -32)" fill="#faa019"/>
      </g>
      <g id="Group_1145311" data-name="Group 1145311" transform="translate(56.357 32)">
        <path id="Path_979473" data-name="Path 979473" d="M236.785,35.321H220.395a6.643,6.643,0,1,0,0,6.643h16.391Z" transform="translate(-208 -32)" fill="#ffcd05"/>
      </g>
      <g id="Group_1145312" data-name="Group 1145312" transform="translate(59.557 35.458)">
        <circle id="Ellipse_11593" data-name="Ellipse 11593" cx="3.443" cy="3.443" r="3.443" transform="translate(0 0)" fill="#555a6e"/>
      </g>
      <g id="Group_1145313" data-name="Group 1145313" transform="translate(79.607 33.107)">
        <path id="Path_979474" data-name="Path 979474" d="M384.857,51.071h-3.321a5.536,5.536,0,1,1,0-11.071h3.321a5.536,5.536,0,1,1,0,11.071Z" transform="translate(-376 -40)" fill="#463c4b"/>
      </g>
      <g id="Group_1145314" data-name="Group 1145314" transform="translate(79.352 32.876)">
        <circle id="Ellipse_11594" data-name="Ellipse 11594" cx="5.594" cy="5.594" r="5.594" transform="translate(0 0)" fill="#555a6e"/>
      </g>
      <g id="Group_1145315" data-name="Group 1145315" transform="translate(82.795 36.319)">
        <circle id="Ellipse_11595" data-name="Ellipse 11595" cx="2.152" cy="2.152" r="2.152" transform="translate(0 0)" fill="#ffcd05"/>
      </g>
      <g id="Group_1145316" data-name="Group 1145316" transform="translate(80.714 47.5)">
        <path id="Path_979475" data-name="Path 979475" d="M393.964,144h-7.75A2.214,2.214,0,0,0,384,146.214v1.107h12.178v-1.107A2.214,2.214,0,0,0,393.964,144Z" transform="translate(-384 -144)" fill="#555a6e"/>
      </g>
    </g>
  </g>
</svg>
