<svg xmlns="http://www.w3.org/2000/svg" xmlns:xlink="http://www.w3.org/1999/xlink" width="108" height="108" viewBox="0 0 108 108">
  <defs>
    <filter id="Path_904820" x="0" y="0" width="108" height="108" filterUnits="userSpaceOnUse">
      <feOffset dy="3" input="SourceAlpha"/>
      <feGaussianBlur stdDeviation="3" result="blur"/>
      <feFlood flood-opacity="0.161"/>
      <feComposite operator="in" in2="blur"/>
      <feComposite in="SourceGraphic"/>
    </filter>
  </defs>
  <g id="Group_1145592" data-name="Group 1145592" transform="translate(-192 -4458)">
    <g id="Icono" transform="translate(-2762.101 -3009)">
      <g transform="matrix(1, 0, 0, 1, 2954.1, 7467)" filter="url(#Path_904820)">
        <g id="Path_904820-2" data-name="Path 904820" transform="translate(9 6)" fill="#f0e9f6">
          <path d="M 45 88.5 C 39.12687683105469 88.5 33.43022537231445 87.35007476806641 28.06830024719238 85.08217620849609 C 22.88852500915527 82.89131164550781 18.23629951477051 79.75458526611328 14.2408504486084 75.75914764404297 C 10.24541282653809 71.76370239257812 7.108687400817871 67.11147308349609 4.917825222015381 61.93170166015625 C 2.649924993515015 56.56977462768555 1.5 50.87312316894531 1.5 45 C 1.5 39.12687683105469 2.649924993515015 33.43022537231445 4.917825222015381 28.06830024719238 C 7.108687400817871 22.88852500915527 10.24541282653809 18.23629951477051 14.2408504486084 14.2408504486084 C 18.23629951477051 10.24541282653809 22.88852500915527 7.108687400817871 28.06830024719238 4.917825222015381 C 33.43022537231445 2.649924993515015 39.12687683105469 1.5 45 1.5 C 50.87312316894531 1.5 56.56977462768555 2.649924993515015 61.93170166015625 4.917825222015381 C 67.11147308349609 7.108687400817871 71.76370239257812 10.24541282653809 75.75914764404297 14.2408504486084 C 79.75458526611328 18.23629951477051 82.89131164550781 22.88852500915527 85.08217620849609 28.06830024719238 C 87.35007476806641 33.43022537231445 88.5 39.12687683105469 88.5 45 C 88.5 50.87312316894531 87.35007476806641 56.56977462768555 85.08217620849609 61.93170166015625 C 82.89131164550781 67.11147308349609 79.75458526611328 71.76370239257812 75.75914764404297 75.75914764404297 C 71.76370239257812 79.75458526611328 67.11147308349609 82.89131164550781 61.93170166015625 85.08217620849609 C 56.56977462768555 87.35007476806641 50.87312316894531 88.5 45 88.5 Z" stroke="none"/>
          <path d="M 45 3 C 39.32871246337891 3 33.82865524291992 4.110054016113281 28.65262985229492 6.299339294433594 C 23.65165710449219 8.414573669433594 19.15968322753906 11.44334411621094 15.301513671875 15.301513671875 C 11.44334411621094 19.15968322753906 8.414573669433594 23.65165710449219 6.299339294433594 28.65262985229492 C 4.110054016113281 33.82865524291992 3 39.32871246337891 3 45 C 3 50.67128753662109 4.110054016113281 56.17134475708008 6.299339294433594 61.34737396240234 C 8.414573669433594 66.34834289550781 11.44334411621094 70.84031677246094 15.301513671875 74.698486328125 C 19.15968322753906 78.55665588378906 23.65165710449219 81.58542633056641 28.65262985229492 83.70066070556641 C 33.82865524291992 85.88994598388672 39.32871246337891 87 45 87 C 50.67128753662109 87 56.17134475708008 85.88994598388672 61.34737396240234 83.70066070556641 C 66.34834289550781 81.58542633056641 70.84031677246094 78.55665588378906 74.698486328125 74.698486328125 C 78.55665588378906 70.84031677246094 81.58542633056641 66.34834289550781 83.70066070556641 61.34737396240234 C 85.88994598388672 56.17134475708008 87 50.67128753662109 87 45 C 87 39.32871246337891 85.88994598388672 33.82865524291992 83.70066070556641 28.65262985229492 C 81.58542633056641 23.65165710449219 78.55665588378906 19.15968322753906 74.698486328125 15.301513671875 C 70.84031677246094 11.44334411621094 66.34834289550781 8.414573669433594 61.34737396240234 6.299339294433594 C 56.17134475708008 4.110054016113281 50.67128753662109 3 45 3 M 45 0 C 69.85281372070312 0 90 20.14718627929688 90 45 C 90 69.85281372070312 69.85281372070312 90 45 90 C 20.14718627929688 90 0 69.85281372070312 0 45 C 0 20.14718627929688 20.14718627929688 0 45 0 Z" stroke="none" fill="#75125d"/>
        </g>
      </g>
    </g>
    <g id="innovation_901049" transform="translate(181.215 4469.772)">
      <path id="Path_980186" data-name="Path 980186" d="M149.021,93.691a1.139,1.139,0,0,0-1.226-.2l-1.017.423a1.156,1.156,0,0,0-.724,1.018v2.288a.768.768,0,0,1-.766.766h-4.156a.768.768,0,0,1-.766-.766V94.928a1.156,1.156,0,0,0-.724-1.018l-1.017-.423a1.139,1.139,0,0,0-1.227.2l-1.6,1.615a.762.762,0,0,1-1.079,0l-2.943-2.966a.776.776,0,0,1,0-1.088l1.6-1.615a1.158,1.158,0,0,0,.2-1.233l-.423-1.032a1.149,1.149,0,0,0-1.014-.725h-2.259a.768.768,0,0,1-.766-.766v-4.2a.768.768,0,0,1,.766-.766h2.259a1.149,1.149,0,0,0,1.014-.725l.423-1.032a1.158,1.158,0,0,0-.2-1.233l-1.6-1.614a.776.776,0,0,1,0-1.088l2.437-2.455a24.605,24.605,0,0,0-9.429-1.868,25.071,25.071,0,0,0-9.154,48.321v6.015h18.308v-6.015a25.043,25.043,0,0,0,15.693-23.283c0-.569-.021-1.133-.058-1.693Z" transform="translate(-59.063 -60.037)" fill="#ffc502"/>
      <path id="Path_980187" data-name="Path 980187" d="M317.8,79.36a.768.768,0,0,0,.766-.766v-4.2a.768.768,0,0,0-.766-.766h-2.259a1.149,1.149,0,0,1-1.014-.725l-.423-1.033a1.158,1.158,0,0,1,.2-1.233l1.6-1.614a.776.776,0,0,0,0-1.088l-2.943-2.966a.761.761,0,0,0-1.079,0l-1.6,1.614a1.139,1.139,0,0,1-1.227.2l-1.017-.423a1.156,1.156,0,0,1-.724-1.018V63.06a.768.768,0,0,0-.766-.766H302.4a.768.768,0,0,0-.766.766v2.288a1.156,1.156,0,0,1-.724,1.018l-1.017.423a1.139,1.139,0,0,1-1.227-.2l-1.6-1.614a.762.762,0,0,0-1.079,0l-2.943,2.965a.776.776,0,0,0,0,1.088l1.6,1.614a1.158,1.158,0,0,1,.2,1.233l-.423,1.032a1.149,1.149,0,0,1-1.014.725h-2.259a.768.768,0,0,0-.766.766v4.2a.768.768,0,0,0,.766.766h2.259a1.149,1.149,0,0,1,1.014.725l.423,1.032a1.158,1.158,0,0,1-.2,1.233l-1.6,1.615a.776.776,0,0,0,0,1.088l2.943,2.966a.762.762,0,0,0,1.079,0l1.6-1.615a1.139,1.139,0,0,1,1.227-.2l1.017.423a1.156,1.156,0,0,1,.724,1.018v2.288a.768.768,0,0,0,.766.766h4.156a.768.768,0,0,0,.766-.766V87.64a1.156,1.156,0,0,1,.724-1.018l1.017-.423a1.139,1.139,0,0,1,1.226.2l1.6,1.615a.762.762,0,0,0,1.079,0l2.943-2.966a.776.776,0,0,0,0-1.088l-1.6-1.614a1.159,1.159,0,0,1-.2-1.233l.423-1.032a1.149,1.149,0,0,1,1.014-.725H317.8Z" transform="translate(-220.332 -52.748)" fill="#c5ccd3"/>
      <path id="Path_980188" data-name="Path 980188" d="M115.627,129.366h3.641v-7.555a.46.46,0,0,0-.289-.427,24.654,24.654,0,0,1-.243-45.606,25.1,25.1,0,0,0-3.109,47.573v6.015Z" transform="translate(-59.063 -64.167)" opacity="0.1"/>
      <path id="Path_980189" data-name="Path 980189" d="M317.8,79.36a.768.768,0,0,0,.766-.766v-4.2a.768.768,0,0,0-.766-.766h-2.259a1.149,1.149,0,0,1-1.014-.725l-.423-1.033a1.158,1.158,0,0,1,.2-1.233l1.6-1.614a.776.776,0,0,0,0-1.088l-2.943-2.966a.761.761,0,0,0-1.079,0l-1.6,1.614a1.139,1.139,0,0,1-1.227.2l-1.017-.423a1.156,1.156,0,0,1-.724-1.018V63.06a.768.768,0,0,0-.766-.766H302.4a.768.768,0,0,0-.766.766v2.288a1.156,1.156,0,0,1-.724,1.018l-1.017.423a1.139,1.139,0,0,1-1.227-.2l-1.6-1.614a.762.762,0,0,0-1.079,0l-2.943,2.965a.776.776,0,0,0,0,1.088l1.6,1.614a1.158,1.158,0,0,1,.2,1.233l-.423,1.032a1.149,1.149,0,0,1-1.014.725h-2.259a.768.768,0,0,0-.766.766v4.2a.768.768,0,0,0,.766.766h2.259a1.149,1.149,0,0,1,1.014.725l.423,1.032a1.158,1.158,0,0,1-.2,1.233l-1.6,1.615a.776.776,0,0,0,0,1.088l2.943,2.966a.762.762,0,0,0,1.079,0l1.6-1.615a1.139,1.139,0,0,1,1.227-.2l1.017.423a1.156,1.156,0,0,1,.724,1.018v2.288a.768.768,0,0,0,.766.766h4.156a.768.768,0,0,0,.766-.766V87.64a1.156,1.156,0,0,1,.724-1.018l1.017-.423a1.139,1.139,0,0,1,1.226.2l1.6,1.615a.762.762,0,0,0,1.079,0l2.943-2.966a.776.776,0,0,0,0-1.088l-1.6-1.614a1.159,1.159,0,0,1-.2-1.233l.423-1.032a1.149,1.149,0,0,1,1.014-.725H317.8Z" transform="translate(-220.332 -52.748)" fill="#c5ccd3"/>
      <ellipse id="Ellipse_11585" data-name="Ellipse 11585" cx="6.782" cy="6.834" rx="6.782" ry="6.834" transform="translate(77.364 16.911)" fill="#9ea7af"/>
      <g id="Group_1145586" data-name="Group 1145586" transform="translate(77.364 16.911)" opacity="0.1">
        <path id="Path_980190" data-name="Path 980190" d="M341.294,117.2a6.825,6.825,0,0,1,5.18-6.641,6.834,6.834,0,1,0,0,13.281A6.826,6.826,0,0,1,341.294,117.2Z" transform="translate(-338.09 -110.363)" fill="#00003f"/>
      </g>
      <ellipse id="Ellipse_11586" data-name="Ellipse 11586" cx="2.867" cy="2.889" rx="2.867" ry="2.889" transform="translate(81.279 20.856)" fill="#fff"/>
      <g id="Group_1145587" data-name="Group 1145587" transform="translate(58.222 32.098)">
        <path id="Path_980191" data-name="Path 980191" d="M250.858,213.233a.768.768,0,0,0,.766.766h2.923a.768.768,0,0,0,.766-.766v-2.995a.768.768,0,0,0-.766-.766h-2.923a.768.768,0,0,0-.766.766Z" transform="translate(-245.083 -209.472)" fill="#33c7ca"/>
        <path id="Path_980192" data-name="Path 980192" d="M213.171,331.055a.768.768,0,0,0,.766.766h2.923a.768.768,0,0,0,.766-.766V328.06a.768.768,0,0,0-.766-.766h-2.923a.768.768,0,0,0-.766.766Z" transform="translate(-213.171 -309.24)" fill="#33c7ca"/>
      </g>
      <path id="Path_980193" data-name="Path 980193" d="M202.736,262.06a.776.776,0,0,0,0,1.088l2.071,2.087a.761.761,0,0,0,1.079,0l2.1-2.114a.776.776,0,0,0,0-1.088l-2.071-2.087a.761.761,0,0,0-1.079,0Z" transform="translate(-145.924 -219.924)" fill="#fff"/>
      <path id="Path_980194" data-name="Path 980194" d="M219.308,461.763v5.185a1.365,1.365,0,0,0,1.358,1.363H231.06a1.365,1.365,0,0,0,1.358-1.363v-5.185Z" transform="translate(-160.145 -391.006)" fill="#08375e"/>
      <g id="Group_1145588" data-name="Group 1145588" transform="translate(54.805 65.2)">
        <path id="Path_980195" data-name="Path 980195" d="M212.7,429.518a1.537,1.537,0,0,1-1.532,1.532H192.4a1.537,1.537,0,0,1-1.532-1.532v-2.493a1.537,1.537,0,0,1,1.532-1.532h18.761a1.537,1.537,0,0,1,1.532,1.532v2.493Z" transform="translate(-190.87 -425.492)" fill="#046699"/>
        <path id="Path_980196" data-name="Path 980196" d="M219.308,482.256V484.3a1.365,1.365,0,0,0,1.358,1.363H231.06a1.365,1.365,0,0,0,1.358-1.363v-2.045Z" transform="translate(-214.95 -473.558)" fill="#046699"/>
      </g>
      <path id="Path_980197" data-name="Path 980197" d="M224.079,466.948v-5.185h-4.771v5.185a1.365,1.365,0,0,0,1.358,1.363h4.771A1.365,1.365,0,0,1,224.079,466.948Z" transform="translate(-160.145 -391.006)" opacity="0.1"/>
      <g id="Group_1145589" data-name="Group 1145589" transform="translate(54.805 65.2)" opacity="0.1">
        <path id="Path_980198" data-name="Path 980198" d="M195.64,429.518v-2.493a1.537,1.537,0,0,1,1.532-1.532H192.4a1.537,1.537,0,0,0-1.532,1.532v2.493a1.537,1.537,0,0,0,1.532,1.532h4.77A1.537,1.537,0,0,1,195.64,429.518Z" transform="translate(-190.87 -425.492)" fill="#00003f"/>
      </g>
      <g id="Group_1145590" data-name="Group 1145590" transform="translate(53.44 29.505)">
        <path id="Path_980199" data-name="Path 980199" d="M306.932,300.769a.768.768,0,0,0,.766.766h2.923a.768.768,0,0,0,.766-.766v-2.995a.768.768,0,0,0-.766-.766H307.7a.768.768,0,0,0-.766.766Z" transform="translate(-287.782 -281.002)" fill="#fff"/>
        <path id="Path_980200" data-name="Path 980200" d="M181.96,196.313a.768.768,0,0,0,.766.766h2.923a.768.768,0,0,0,.766-.766v-2.995a.768.768,0,0,0-.766-.766h-2.923a.768.768,0,0,0-.766.766Z" transform="translate(-181.96 -192.552)" fill="#fff"/>
      </g>
      <path id="Path_980201" data-name="Path 980201" d="M216.174,138.832a.768.768,0,0,0,.766.766h2.923a.768.768,0,0,0,.766-.766v-2.995a.768.768,0,0,0-.766-.766H216.94a.768.768,0,0,0-.766.766Z" transform="translate(-157.491 -114.374)" fill="#33c7ca"/>
      <path id="Path_980202" data-name="Path 980202" d="M150.186,66.128H147.98l0-.011-.423-1.033-.008-.02v0l1.567-1.579a1.927,1.927,0,0,0,0-2.707l-2.943-2.965a1.91,1.91,0,0,0-2.711,0l-1.56,1.572-.011,0-1.017-.423-.015-.006h0V56.709a1.918,1.918,0,0,0-1.915-1.915h-4.156a1.918,1.918,0,0,0-1.915,1.915v2.237h0l-.015.006-1.017.423-.011,0-1.56-1.572a1.908,1.908,0,0,0-2.686-.023,25.7,25.7,0,0,0-9.145-1.675,26.22,26.22,0,0,0-10.3,50.236v4.267a2.684,2.684,0,0,0-1.759,2.515v2.493a2.685,2.685,0,0,0,2.682,2.682h1.676v4.036a2.513,2.513,0,0,0,2.508,2.513h10.394a2.513,2.513,0,0,0,2.508-2.513V118.3h1.676a2.685,2.685,0,0,0,2.682-2.682V113.13a2.684,2.684,0,0,0-1.759-2.515v-4.266a26.028,26.028,0,0,0,13.217-12.88,1.149,1.149,0,1,0-2.081-.976,23.746,23.746,0,0,1-11.136,11.326V97.585h.258a1.917,1.917,0,0,0,1.915-1.915V92.675a1.918,1.918,0,0,0-1.915-1.915H126.07a1.917,1.917,0,0,0-1.915,1.915V95.67a1.917,1.917,0,0,0,1.915,1.915h.367v12.862h-1.674v-8.817a3.254,3.254,0,0,0-.873-2.12l-8.669-8.736.369-.372a1.927,1.927,0,0,0,0-2.707l-2.071-2.087a1.91,1.91,0,0,0-2.711,0l-2.1,2.114a1.927,1.927,0,0,0,0,2.707l2.071,2.087a1.91,1.91,0,0,0,2.711,0l.109-.11,8.657,8.723a1.112,1.112,0,0,1,.206.5v8.817h-2.376V100.8a1.149,1.149,0,1,0-2.3,0v9.652h-3.477v-8.221h.312a1.917,1.917,0,0,0,1.915-1.915V97.316a1.917,1.917,0,0,0-1.915-1.915H111.7a1.917,1.917,0,0,0-1.915,1.915v2.995a1.917,1.917,0,0,0,1.915,1.915h.312v8.221h-1.588v-4.865a1.15,1.15,0,0,0-.723-1.067,23.922,23.922,0,0,1,8.727-46.1,23.426,23.426,0,0,1,7.353,1.179l-1.176,1.185a1.926,1.926,0,0,0,0,2.706l1.567,1.579v0l-.008.02-.423,1.032,0,.011h-2.205a1.917,1.917,0,0,0-1.915,1.915v4.2a1.917,1.917,0,0,0,1.915,1.915h2.205l0,.011.423,1.032.008.02a.019.019,0,0,1,0,0L124.608,76.8a1.927,1.927,0,0,0,0,2.707l2.943,2.966a1.911,1.911,0,0,0,2.711,0l1.56-1.572.011,0,1.017.423.015.006h0v2.237a1.917,1.917,0,0,0,1.915,1.915h4.156a1.917,1.917,0,0,0,1.915-1.915V81.34h0l.015-.006,1.017-.423.011,0,.2.2c.02.4.031.793.031,1.192a24.412,24.412,0,0,1-.207,3.176,1.149,1.149,0,1,0,2.279.3A26.667,26.667,0,0,0,144.416,83a1.93,1.93,0,0,0,.4.042,1.9,1.9,0,0,0,1.355-.564l2.943-2.966a1.927,1.927,0,0,0,0-2.707l-1.567-1.578a.026.026,0,0,1,0,0l.008-.02.423-1.032,0-.011h2.205a1.917,1.917,0,0,0,1.915-1.915v-4.2A1.918,1.918,0,0,0,150.186,66.128Zm-23.733,26.93h2.157v2.229h-2.157ZM110.6,89.077l1.558-1.57,1.531,1.543-1.558,1.57Zm1.48,8.622h2.157v2.229h-2.157Zm11.752,24.641a.214.214,0,0,1-.209.214H113.234a.214.214,0,0,1-.209-.214v-.9h10.812v.9Zm0-3.194H113.025V118.3h10.812Zm-15.169-6.017a.388.388,0,0,1,.383-.383h18.761a.388.388,0,0,1,.383.383v2.493a.388.388,0,0,1-.383.383H109.051a.388.388,0,0,1-.383-.383ZM149.8,71.86h-1.876a2.282,2.282,0,0,0-2.088,1.463l-.4.981a2.292,2.292,0,0,0,.441,2.505l1.338,1.348-2.4,2.422-1.326-1.337a2.258,2.258,0,0,0-1.6-.641,2.169,2.169,0,0,0-.912.2l-.965.4a2.289,2.289,0,0,0-1.457,2.089v1.905h-3.39V81.289a2.289,2.289,0,0,0-1.457-2.089l-.966-.4a2.169,2.169,0,0,0-.911-.2,2.257,2.257,0,0,0-1.6.641l-1.326,1.336-2.4-2.422,1.338-1.349a2.292,2.292,0,0,0,.441-2.5l-.4-.98a2.282,2.282,0,0,0-2.088-1.463h-1.876V68.427h1.876a2.282,2.282,0,0,0,2.088-1.463l.4-.981a2.292,2.292,0,0,0-.441-2.5L126.5,62.129l2.4-2.422,1.326,1.336a2.258,2.258,0,0,0,1.6.641,2.169,2.169,0,0,0,.911-.2l.966-.4A2.289,2.289,0,0,0,135.165,59v-1.9h3.39V59a2.289,2.289,0,0,0,1.457,2.089l.965.4a2.169,2.169,0,0,0,.912.2,2.256,2.256,0,0,0,1.6-.641l1.326-1.336,2.4,2.422-1.338,1.349a2.292,2.292,0,0,0-.441,2.5l.4.981a2.282,2.282,0,0,0,2.088,1.463H149.8V71.86Z" transform="translate(-52.713 -46.398)"/>
      <path id="Path_980203" data-name="Path 980203" d="M344.606,107.614a1.149,1.149,0,0,0-.735,1.45,5.725,5.725,0,0,1,.282,1.783,5.633,5.633,0,1,1-5.633-5.685,5.576,5.576,0,0,1,1.862.318,1.149,1.149,0,0,0,.765-2.167,7.873,7.873,0,0,0-2.627-.449,7.968,7.968,0,1,0,7.536,5.486A1.149,1.149,0,0,0,344.606,107.614Z" transform="translate(-254.374 -87.101)"/>
      <path id="Path_980204" data-name="Path 980204" d="M360.157,128.61a4.038,4.038,0,1,0,4.016,4.038A4.032,4.032,0,0,0,360.157,128.61Zm0,5.778a1.74,1.74,0,1,1,1.718-1.74A1.731,1.731,0,0,1,360.157,134.388Z" transform="translate(-276.011 -108.903)"/>
      <path id="Path_980205" data-name="Path 980205" d="M246.735,217.07a1.149,1.149,0,0,0,1.149-1.149V208.8h.312a1.917,1.917,0,0,0,1.915-1.915v-2.995a1.917,1.917,0,0,0-1.915-1.915h-2.923a1.917,1.917,0,0,0-1.915,1.915v2.995a1.918,1.918,0,0,0,1.915,1.915h.312v7.123A1.149,1.149,0,0,0,246.735,217.07Zm-1.078-12.8h2.157V206.5h-2.157Z" transform="translate(-180.51 -171.023)"/>
      <path id="Path_980206" data-name="Path 980206" d="M259.044,5.5a1.149,1.149,0,0,0,1.149-1.149v-3.2a1.149,1.149,0,1,0-2.3,0v3.2A1.149,1.149,0,0,0,259.044,5.5Z" transform="translate(-192.819)"/>
      <path id="Path_980207" data-name="Path 980207" d="M192.619,14.885a1.149,1.149,0,0,0,2.2-.658l-.916-3.068a1.149,1.149,0,1,0-2.2.658Z" transform="translate(-136.73 -8.755)"/>
      <path id="Path_980208" data-name="Path 980208" d="M133.106,43.791a1.149,1.149,0,1,0,1.922-1.261l-1.755-2.675a1.149,1.149,0,1,0-1.922,1.261Z" transform="translate(-85.507 -33.309)"/>
      <path id="Path_980209" data-name="Path 980209" d="M81.921,86.572l2.446,2.057a1.149,1.149,0,1,0,1.479-1.759L83.4,84.813a1.149,1.149,0,1,0-1.479,1.759Z" transform="translate(-43.463 -71.589)"/>
      <path id="Path_980210" data-name="Path 980210" d="M47.571,144.361l2.931,1.265a1.149,1.149,0,1,0,.911-2.11l-2.931-1.265a1.149,1.149,0,1,0-.911,2.11Z" transform="translate(-14.137 -120.374)"/>
      <path id="Path_980211" data-name="Path 980211" d="M34.369,209.983a1.149,1.149,0,0,0,.264-2.283l-3.169-.367a1.149,1.149,0,0,0-.264,2.283Z" transform="translate(0 -175.556)"/>
      <path id="Path_980212" data-name="Path 980212" d="M38.249,271.843a1.149,1.149,0,0,0-1.334-.929l-3.141.562a1.149,1.149,0,1,0,.4,2.263l3.141-.562A1.149,1.149,0,0,0,38.249,271.843Z" transform="translate(-2.24 -229.386)"/>
      <path id="Path_980213" data-name="Path 980213" d="M58.072,328.912l-2.848,1.443a1.149,1.149,0,1,0,1.039,2.05l2.848-1.443a1.149,1.149,0,0,0-1.039-2.05Z" transform="translate(-20.671 -278.406)"/>
      <path id="Path_980214" data-name="Path 980214" d="M96.318,378.838,94,381.041a1.149,1.149,0,0,0,1.584,1.665l2.316-2.2a1.149,1.149,0,0,0-1.584-1.665Z" transform="translate(-53.739 -320.519)"/>
      <path id="Path_980215" data-name="Path 980215" d="M176.375,185.052a1.917,1.917,0,0,0-1.915,1.915v2.995a1.918,1.918,0,0,0,1.915,1.915H179.3a1.918,1.918,0,0,0,1.915-1.915v-2.995a1.918,1.918,0,0,0-1.915-1.915Zm2.54,4.527h-2.157V187.35h2.157Z" transform="translate(-122.169 -156.696)"/>
      <path id="Path_980216" data-name="Path 980216" d="M213.512,134.4a1.918,1.918,0,0,0,1.915-1.915v-2.995a1.918,1.918,0,0,0-1.915-1.915h-2.923a1.917,1.917,0,0,0-1.915,1.915v2.995a1.917,1.917,0,0,0,1.915,1.915Zm-2.54-4.527h2.157V132.1h-2.157Z" transform="translate(-151.141 -108.023)"/>
    </g>
  </g>
</svg>
