<svg xmlns="http://www.w3.org/2000/svg" xmlns:xlink="http://www.w3.org/1999/xlink" width="108" height="108" viewBox="0 0 108 108">
  <defs>
    <filter id="Path_904820" x="0" y="0" width="108" height="108" filterUnits="userSpaceOnUse">
      <feOffset dy="3" input="SourceAlpha"/>
      <feGaussianBlur stdDeviation="3" result="blur"/>
      <feFlood flood-opacity="0.161"/>
      <feComposite operator="in" in2="blur"/>
      <feComposite in="SourceGraphic"/>
    </filter>
  </defs>
  <g id="Icono" transform="translate(-615.101 -5000)">
    <g transform="matrix(1, 0, 0, 1, 615.1, 5000)" filter="url(#Path_904820)">
      <g id="Path_904820-2" data-name="Path 904820" transform="translate(9 6)" fill="#ecf4fa">
        <path d="M 45 88.5 C 39.12687683105469 88.5 33.43022537231445 87.35007476806641 28.06830024719238 85.08217620849609 C 22.88852500915527 82.89131164550781 18.23629951477051 79.75458526611328 14.2408504486084 75.75914764404297 C 10.24541282653809 71.76370239257812 7.108687400817871 67.11147308349609 4.917825222015381 61.93170166015625 C 2.649924993515015 56.56977462768555 1.5 50.87312316894531 1.5 45 C 1.5 39.12687683105469 2.649924993515015 33.43022537231445 4.917825222015381 28.06830024719238 C 7.108687400817871 22.88852500915527 10.24541282653809 18.23629951477051 14.2408504486084 14.2408504486084 C 18.23629951477051 10.24541282653809 22.88852500915527 7.108687400817871 28.06830024719238 4.917825222015381 C 33.43022537231445 2.649924993515015 39.12687683105469 1.5 45 1.5 C 50.87312316894531 1.5 56.56977462768555 2.649924993515015 61.93170166015625 4.917825222015381 C 67.11147308349609 7.108687400817871 71.76370239257812 10.24541282653809 75.75914764404297 14.2408504486084 C 79.75458526611328 18.23629951477051 82.89131164550781 22.88852500915527 85.08217620849609 28.06830024719238 C 87.35007476806641 33.43022537231445 88.5 39.12687683105469 88.5 45 C 88.5 50.87312316894531 87.35007476806641 56.56977462768555 85.08217620849609 61.93170166015625 C 82.89131164550781 67.11147308349609 79.75458526611328 71.76370239257812 75.75914764404297 75.75914764404297 C 71.76370239257812 79.75458526611328 67.11147308349609 82.89131164550781 61.93170166015625 85.08217620849609 C 56.56977462768555 87.35007476806641 50.87312316894531 88.5 45 88.5 Z" stroke="none"/>
        <path d="M 45 3 C 39.32871246337891 3 33.82865524291992 4.110054016113281 28.65262985229492 6.299339294433594 C 23.65165710449219 8.414573669433594 19.15968322753906 11.44334411621094 15.301513671875 15.301513671875 C 11.44334411621094 19.15968322753906 8.414573669433594 23.65165710449219 6.299339294433594 28.65262985229492 C 4.110054016113281 33.82865524291992 3 39.32871246337891 3 45 C 3 50.67128753662109 4.110054016113281 56.17134475708008 6.299339294433594 61.34737396240234 C 8.414573669433594 66.34834289550781 11.44334411621094 70.84031677246094 15.301513671875 74.698486328125 C 19.15968322753906 78.55665588378906 23.65165710449219 81.58542633056641 28.65262985229492 83.70066070556641 C 33.82865524291992 85.88994598388672 39.32871246337891 87 45 87 C 50.67128753662109 87 56.17134475708008 85.88994598388672 61.34737396240234 83.70066070556641 C 66.34834289550781 81.58542633056641 70.84031677246094 78.55665588378906 74.698486328125 74.698486328125 C 78.55665588378906 70.84031677246094 81.58542633056641 66.34834289550781 83.70066070556641 61.34737396240234 C 85.88994598388672 56.17134475708008 87 50.67128753662109 87 45 C 87 39.32871246337891 85.88994598388672 33.82865524291992 83.70066070556641 28.65262985229492 C 81.58542633056641 23.65165710449219 78.55665588378906 19.15968322753906 74.698486328125 15.301513671875 C 70.84031677246094 11.44334411621094 66.34834289550781 8.414573669433594 61.34737396240234 6.299339294433594 C 56.17134475708008 4.110054016113281 50.67128753662109 3 45 3 M 45 0 C 69.85281372070312 0 90 20.14718627929688 90 45 C 90 69.85281372070312 69.85281372070312 90 45 90 C 20.14718627929688 90 0 69.85281372070312 0 45 C 0 20.14718627929688 20.14718627929688 0 45 0 Z" stroke="none" fill="#2a5673"/>
      </g>
    </g>
    <g id="Group_1145395" data-name="Group 1145395" transform="translate(642.633 5023.532)">
      <g id="Group_1145393" data-name="Group 1145393" transform="translate(1.822 1.822)">
        <g id="Group_1145382" data-name="Group 1145382" transform="translate(29.297 18.074)">
          <path id="Path_979621" data-name="Path 979621" d="M49.441,24v5.751l-2.054.624a18.671,18.671,0,0,1-2.654,6.4l1.019,1.89L40.4,43.717V41.253l-2.111-.534a9.784,9.784,0,0,0-.633-1.512l1.117-1.881-.518-.518a13.9,13.9,0,0,0,4.609-10.343A14.323,14.323,0,0,0,42.655,24Z" transform="translate(-37.66 -24)" fill="#b4dd7f"/>
        </g>
        <g id="Group_1145383" data-name="Group 1145383" transform="translate(0)">
          <path id="Path_979622" data-name="Path 979622" d="M40.539,16.788H35.273A13.964,13.964,0,1,0,13.181,32.882l-.518.518,1.117,1.881a9.784,9.784,0,0,0-.633,1.512l-2.111.534v2.76L5.689,34.739l1.019-1.89a18.671,18.671,0,0,1-2.654-6.4L2,25.825V19.253l2.054-.624a18.671,18.671,0,0,1,2.654-6.4l-1.019-1.89,4.65-4.65,1.89,1.019a18.671,18.671,0,0,1,6.4-2.654L19.253,2h6.572l.624,2.054a18.671,18.671,0,0,1,6.4,2.654l1.89-1.019,4.65,4.65-1.019,1.89a18.608,18.608,0,0,1,2.169,4.56Z" transform="translate(-2 -2)" fill="#b4dd7f"/>
        </g>
        <g id="Group_1145384" data-name="Group 1145384" transform="translate(17.253 9.859)">
          <path id="Path_979623" data-name="Path 979623" d="M29.572,15.643v1.643H23V15.643A1.648,1.648,0,0,1,24.643,14h3.286A1.648,1.648,0,0,1,29.572,15.643Z" transform="translate(-23 -14)" fill="#ccd1d9"/>
        </g>
        <g id="Group_1145385" data-name="Group 1145385" transform="translate(17.253 19.717)">
          <path id="Path_979624" data-name="Path 979624" d="M29.572,26v1.643a1.648,1.648,0,0,1-1.643,1.643H24.643A1.648,1.648,0,0,1,23,27.643V26Z" transform="translate(-23 -26)" fill="#ccd1d9"/>
        </g>
        <g id="Group_1145386" data-name="Group 1145386" transform="translate(13.966 13.145)">
          <path id="Path_979625" data-name="Path 979625" d="M32.145,19.643v3.286A1.648,1.648,0,0,1,30.5,24.572H20.643A1.648,1.648,0,0,1,19,22.929V19.643A1.648,1.648,0,0,1,20.643,18H30.5A1.648,1.648,0,0,1,32.145,19.643Z" transform="translate(-19 -18)" fill="#aab2bd"/>
        </g>
        <g id="Group_1145387" data-name="Group 1145387" transform="translate(42.721 13.145)">
          <path id="Path_979626" data-name="Path 979626" d="M57.286,18a3.286,3.286,0,0,1,0,6.572,3.309,3.309,0,0,1-2.843-1.643A3.286,3.286,0,0,1,57.286,18Z" transform="translate(-54 -18)" fill="#ff826e"/>
        </g>
        <g id="Group_1145388" data-name="Group 1145388" transform="translate(27.111 14.788)">
          <path id="Path_979627" data-name="Path 979627" d="M50.61,21.643a3.277,3.277,0,0,0,.444,1.643H35V20H51.053A3.277,3.277,0,0,0,50.61,21.643Z" transform="translate(-35 -20)" fill="#ccd1d9"/>
        </g>
        <g id="Group_1145389" data-name="Group 1145389" transform="translate(39.435 16.431)">
          <path id="Path_979628" data-name="Path 979628" d="M59.859,43.36v3.286H50l5.069-21.73a3.206,3.206,0,0,0,1.5.37A3.285,3.285,0,0,0,59.859,22V43.36Z" transform="translate(-50 -22)" fill="#ccd1d9"/>
        </g>
        <g id="Group_1145390" data-name="Group 1145390" transform="translate(34.505 41.078)">
          <path id="Path_979629" data-name="Path 979629" d="M58.788,52v8.216H44V54.465A2.461,2.461,0,0,1,46.465,52H58.788Z" transform="translate(-44 -52)" fill="#aab2bd"/>
        </g>
        <g id="Group_1145391" data-name="Group 1145391" transform="translate(9.037 26.29)">
          <path id="Path_979630" data-name="Path 979630" d="M36,45.5v2.465l-2.111.534a9.785,9.785,0,0,1-.633,1.512l1.117,1.881-3.483,3.483L29.012,54.26a9.784,9.784,0,0,1-1.512.633L26.966,57H22.037L21.5,54.892a9.784,9.784,0,0,1-1.512-.633L18.11,55.377l-3.483-3.483,1.117-1.881a9.784,9.784,0,0,1-.633-1.512L13,47.966V43.037l2.111-.534a9.784,9.784,0,0,1,.633-1.512L14.627,39.11l.518-.518,2.966-2.966,1.881,1.117a9.785,9.785,0,0,1,1.512-.633L22.037,34h4.929l.534,2.111a9.785,9.785,0,0,1,1.512.633l1.881-1.117,2.966,2.966.518.518L33.26,40.991a9.784,9.784,0,0,1,.633,1.512L36,43.037Zm-4.929,0A6.572,6.572,0,1,0,24.5,52.074,6.571,6.571,0,0,0,31.074,45.5Z" transform="translate(-13 -34)" fill="#ffc729"/>
        </g>
        <g id="Group_1145392" data-name="Group 1145392" transform="translate(13.966 31.219)">
          <path id="Path_979631" data-name="Path 979631" d="M25.572,40A6.572,6.572,0,1,1,19,46.572,6.571,6.571,0,0,1,25.572,40Zm3.286,6.572a3.286,3.286,0,1,0-3.286,3.286A3.285,3.285,0,0,0,28.859,46.572Z" transform="translate(-19 -40)" fill="#fcd770"/>
        </g>
      </g>
      <g id="Group_1145394" data-name="Group 1145394" transform="translate(1 1)">
        <path id="Path_979632" data-name="Path 979632" d="M25.394,39a7.394,7.394,0,1,0,7.394,7.394A7.4,7.4,0,0,0,25.394,39Zm0,13.145a5.751,5.751,0,1,1,5.751-5.751A5.758,5.758,0,0,1,25.394,52.145Z" transform="translate(-4.034 -7.781)"/>
        <path id="Path_979633" data-name="Path 979633" d="M26.108,43a4.108,4.108,0,1,0,4.108,4.108A4.112,4.112,0,0,0,26.108,43Zm0,6.572a2.465,2.465,0,1,1,2.465-2.465A2.468,2.468,0,0,1,26.108,49.572Z" transform="translate(-4.747 -8.495)"/>
        <path id="Path_979634" data-name="Path 979634" d="M47.829,14.145a4.089,4.089,0,0,0-3.265,1.643H40.943a19.7,19.7,0,0,0-1.8-3.769l1.074-2.007L34.711,4.5,32.7,5.576a19.53,19.53,0,0,0-5.787-2.4L26.256,1H18.465l-.659,2.174a19.517,19.517,0,0,0-5.787,2.4L10.011,4.5,4.5,10.011l1.074,2.007a19.522,19.522,0,0,0-2.4,5.788L1,18.465v7.792l2.174.658a19.522,19.522,0,0,0,2.4,5.788L4.5,34.709l5.536,5.536v2.471l2.3.586c.1.262.208.525.329.785l-1.215,2.045,4.389,4.389,2.045-1.216c.26.121.524.231.785.329l.586,2.3h6.207l.586-2.3c.261-.1.525-.207.785-.329l2.045,1.216,4.389-4.389-1.215-2.045c.121-.26.231-.523.329-.785l2.3-.587v-2.75l5.544-5.241L39.146,32.7a19.522,19.522,0,0,0,2.4-5.788l2.174-.659V20.717h.843a4.111,4.111,0,0,0,.832.826L40.6,42.078H38.792a3.29,3.29,0,0,0-3.286,3.286v6.572H51.937V18.253a4.112,4.112,0,0,0-4.108-4.108ZM6.526,34.41l.955-1.784-.265-.407A17.923,17.923,0,0,1,4.676,26.1l-.1-.476-1.932-.587V19.684L4.575,19.1l.1-.476A17.917,17.917,0,0,1,7.215,12.5L7.48,12.1l-.955-1.784,3.785-3.786L12.1,7.48l.407-.266a17.905,17.905,0,0,1,6.12-2.539l.476-.1.586-1.932h5.353l.586,1.932.476.1a17.938,17.938,0,0,1,6.12,2.539l.407.266,1.785-.955L38.2,10.312,37.241,12.1l.265.407A18.108,18.108,0,0,1,39.2,15.788H35.6A14.774,14.774,0,1,0,11.842,32.7l-.39.39,1.215,2.045q-.181.392-.329.786l-2.3.585v1.412ZM29.6,15.788a2.461,2.461,0,0,0-2.314-1.643h-.822v-.822A2.468,2.468,0,0,0,24,10.859H20.717a2.468,2.468,0,0,0-2.465,2.465v.822h-.822a2.468,2.468,0,0,0-2.465,2.465V19.9a2.468,2.468,0,0,0,2.465,2.465h.822v.822a2.468,2.468,0,0,0,2.465,2.465H24a2.468,2.468,0,0,0,2.465-2.465V22.36h.822A2.461,2.461,0,0,0,29.6,20.717h5.788a13.4,13.4,0,0,1,.114,1.643,13.149,13.149,0,0,1-3.787,9.183L28.88,28.7,26.835,29.92c-.26-.121-.524-.231-.785-.329l-.587-2.3H19.257l-.586,2.3c-.261.1-.525.207-.785.329L15.841,28.7,13,31.544A13.127,13.127,0,1,1,33.737,15.788ZM19.9,22.36h4.929v.822A.822.822,0,0,1,24,24H20.717a.822.822,0,0,1-.822-.822Zm-2.465-1.643a.822.822,0,0,1-.822-.822V16.61a.822.822,0,0,1,.822-.822H27.29a.822.822,0,0,1,.822.822V19.9a.822.822,0,0,1-.822.822Zm7.394-6.572H19.9v-.822a.822.822,0,0,1,.822-.822H24a.822.822,0,0,1,.822.822Zm8.216,27.295-1.934.492-.138.434a9.042,9.042,0,0,1-.578,1.383l-.21.405L31.2,45.875l-2.582,2.582L26.9,47.434l-.4.209a9.019,9.019,0,0,1-1.385.578l-.434.139-.49,1.934H20.535l-.491-1.934-.434-.139a9.019,9.019,0,0,1-1.385-.578l-.4-.209L16.1,48.457l-2.582-2.582,1.024-1.722-.21-.405a9.042,9.042,0,0,1-.578-1.383l-.138-.434-1.934-.492V37.788l1.934-.492.138-.434a9,9,0,0,1,.579-1.383l.209-.405-1.024-1.721L16.1,30.771l1.721,1.024.4-.209a9.018,9.018,0,0,1,1.385-.578l.434-.139.49-1.936h3.652l.491,1.934.434.139a9.019,9.019,0,0,1,1.385.578l.4.209,1.721-1.024L31.2,33.351,30.18,35.072l.209.405a9.034,9.034,0,0,1,.579,1.383l.138.434,1.934.493Zm9.037-16.4-1.932.585-.1.476a17.917,17.917,0,0,1-2.539,6.12l-.265.407.946,1.768-3.5,3.313v-1.2l-2.3-.586c-.1-.262-.208-.525-.329-.786l1.215-2.045-.39-.39a14.482,14.482,0,0,0,4.169-11.986h5.031ZM29.754,19.074V17.431H43.8a4.109,4.109,0,0,0,0,1.643Zm18.074-3.286a2.465,2.465,0,1,1-2.465,2.465A2.468,2.468,0,0,1,47.829,15.788Zm2.465,34.505H37.149V45.364a1.645,1.645,0,0,1,1.643-1.643h11.5Zm-8-8.216L46.918,22.25a3.973,3.973,0,0,0,3.376-.733v4.129H47.007V27.29h3.286v1.643H48.65v1.643h1.643v1.643H47.007v1.643h3.286v1.643H48.65v1.643h1.643v1.643H47.007v1.643h3.286v1.643Z" transform="translate(-1 -1)"/>
        <ellipse id="Ellipse_11648" data-name="Ellipse 11648" cx="0.5" cy="1" rx="0.5" ry="1" transform="translate(46.468 16.468)"/>
      </g>
    </g>
  </g>
</svg>
