<svg xmlns="http://www.w3.org/2000/svg" xmlns:xlink="http://www.w3.org/1999/xlink" width="108" height="108" viewBox="0 0 108 108">
  <defs>
    <filter id="Trazado_904820" x="0" y="0" width="108" height="108" filterUnits="userSpaceOnUse">
      <feOffset dy="3" input="SourceAlpha"/>
      <feGaussianBlur stdDeviation="3" result="blur"/>
      <feFlood flood-opacity="0.161"/>
      <feComposite operator="in" in2="blur"/>
      <feComposite in="SourceGraphic"/>
    </filter>
  </defs>
  <g id="Icono" transform="translate(-615.101 -5000)">
    <g transform="matrix(1, 0, 0, 1, 615.1, 5000)" filter="url(#Trazado_904820)">
      <g id="Trazado_904820-2" data-name="Trazado 904820" transform="translate(9 6)" fill="#ecf4fa">
        <path d="M 45 88.5 C 39.12687683105469 88.5 33.43022537231445 87.35007476806641 28.06830024719238 85.08217620849609 C 22.88852500915527 82.89131164550781 18.23629951477051 79.75458526611328 14.2408504486084 75.75914764404297 C 10.24541282653809 71.76370239257812 7.108687400817871 67.11147308349609 4.917825222015381 61.93170166015625 C 2.649924993515015 56.56977462768555 1.5 50.87312316894531 1.5 45 C 1.5 39.12687683105469 2.649924993515015 33.43022537231445 4.917825222015381 28.06830024719238 C 7.108687400817871 22.88852500915527 10.24541282653809 18.23629951477051 14.2408504486084 14.2408504486084 C 18.23629951477051 10.24541282653809 22.88852500915527 7.108687400817871 28.06830024719238 4.917825222015381 C 33.43022537231445 2.649924993515015 39.12687683105469 1.5 45 1.5 C 50.87312316894531 1.5 56.56977462768555 2.649924993515015 61.93170166015625 4.917825222015381 C 67.11147308349609 7.108687400817871 71.76370239257812 10.24541282653809 75.75914764404297 14.2408504486084 C 79.75458526611328 18.23629951477051 82.89131164550781 22.88852500915527 85.08217620849609 28.06830024719238 C 87.35007476806641 33.43022537231445 88.5 39.12687683105469 88.5 45 C 88.5 50.87312316894531 87.35007476806641 56.56977462768555 85.08217620849609 61.93170166015625 C 82.89131164550781 67.11147308349609 79.75458526611328 71.76370239257812 75.75914764404297 75.75914764404297 C 71.76370239257812 79.75458526611328 67.11147308349609 82.89131164550781 61.93170166015625 85.08217620849609 C 56.56977462768555 87.35007476806641 50.87312316894531 88.5 45 88.5 Z" stroke="none"/>
        <path d="M 45 3 C 39.32871246337891 3 33.82865524291992 4.110054016113281 28.65262985229492 6.299339294433594 C 23.65165710449219 8.414573669433594 19.15968322753906 11.44334411621094 15.301513671875 15.301513671875 C 11.44334411621094 19.15968322753906 8.414573669433594 23.65165710449219 6.299339294433594 28.65262985229492 C 4.110054016113281 33.82865524291992 3 39.32871246337891 3 45 C 3 50.67128753662109 4.110054016113281 56.17134475708008 6.299339294433594 61.34737396240234 C 8.414573669433594 66.34834289550781 11.44334411621094 70.84031677246094 15.301513671875 74.698486328125 C 19.15968322753906 78.55665588378906 23.65165710449219 81.58542633056641 28.65262985229492 83.70066070556641 C 33.82865524291992 85.88994598388672 39.32871246337891 87 45 87 C 50.67128753662109 87 56.17134475708008 85.88994598388672 61.34737396240234 83.70066070556641 C 66.34834289550781 81.58542633056641 70.84031677246094 78.55665588378906 74.698486328125 74.698486328125 C 78.55665588378906 70.84031677246094 81.58542633056641 66.34834289550781 83.70066070556641 61.34737396240234 C 85.88994598388672 56.17134475708008 87 50.67128753662109 87 45 C 87 39.32871246337891 85.88994598388672 33.82865524291992 83.70066070556641 28.65262985229492 C 81.58542633056641 23.65165710449219 78.55665588378906 19.15968322753906 74.698486328125 15.301513671875 C 70.84031677246094 11.44334411621094 66.34834289550781 8.414573669433594 61.34737396240234 6.299339294433594 C 56.17134475708008 4.110054016113281 50.67128753662109 3 45 3 M 45 0 C 69.85281372070312 0 90 20.14718627929688 90 45 C 90 69.85281372070312 69.85281372070312 90 45 90 C 20.14718627929688 90 0 69.85281372070312 0 45 C 0 20.14718627929688 20.14718627929688 0 45 0 Z" stroke="none" fill="#2a5673"/>
      </g>
    </g>
    <g id="Grupo_1144132" data-name="Grupo 1144132" transform="translate(598.553 5021.014)">
      <path id="Trazado_980664" data-name="Trazado 980664" d="M56,20.8V66.54h45.967V10H56Z" transform="translate(-8.851 -8.851)" fill="#fff"/>
      <path id="Trazado_980665" data-name="Trazado 980665" d="M153.984,105.73l5.746-5.746V88.492H148.238V77H136.746L131,82.746h11.492V94.238h11.492Z" transform="translate(-75.232 -68.151)" fill="#89dd8e"/>
      <path id="Trazado_980666" data-name="Trazado 980666" d="M142.492,138.492V127H131v22.984h22.984V138.492Z" transform="translate(-75.232 -112.405)" fill="#a0e4a5"/>
      <path id="Trazado_980667" data-name="Trazado 980667" d="M361,422h10.917v4.6H361Z" transform="translate(-278.801 -373.504)" fill="#ff7b79"/>
      <path id="Trazado_980668" data-name="Trazado 980668" d="M361,382h10.917v4.6H361Z" transform="translate(-278.801 -338.101)" fill="#a0e4a5"/>
      <g id="Grupo_1144127" data-name="Grupo 1144127" transform="translate(46)">
        <path id="Trazado_980669" data-name="Trazado 980669" d="M93.929.337A1.158,1.158,0,0,0,93.116,0H47.149A1.15,1.15,0,0,0,46,1.149v56.54a1.15,1.15,0,0,0,1.149,1.149H93.116a1.15,1.15,0,0,0,1.149-1.149V34.475a1.149,1.149,0,1,0-2.3,0V42.75H70.707A1.149,1.149,0,0,0,69.558,43.9V56.54H48.3V2.3H91.967V24.133a1.149,1.149,0,0,0,2.3,0h0V1.149A1.158,1.158,0,0,0,93.929.337ZM84.5,54.241v2.3H79.326v-2.3Zm7.47-2.3H83.348v-2.3h8.619ZM86.8,56.54v-2.3h5.171v2.3Zm5.171-9.193H83.348v-2.3h8.619Zm-20.111-2.3H81.05v6.9H71.857Zm0,9.193h5.171v2.3H71.857Z" transform="translate(-46)"/>
        <circle id="Elipse_11554" data-name="Elipse 11554" cx="1.166" cy="1.166" r="1.166" transform="translate(46.04 27.951)"/>
        <path id="Trazado_980670" data-name="Trazado 980670" d="M139.387,67H127.9a1.149,1.149,0,0,0-.813.337l-5.746,5.746h0A1.145,1.145,0,0,0,121,73.9V96.879a1.149,1.149,0,0,0,1.149,1.149h22.984a1.146,1.146,0,0,0,.812-.336h0l5.746-5.746a1.149,1.149,0,0,0,.337-.813V79.641a1.149,1.149,0,0,0-1.149-1.149H140.536V68.149A1.149,1.149,0,0,0,139.387,67Zm-4.6,7.371,3.448-3.448v8.241l-3.448,3.448ZM128.371,69.3h8.241l-3.448,3.448h-8.241ZM123.3,75.044h9.193V85.387a1.149,1.149,0,0,0,1.149,1.149h10.343V95.73H123.3ZM146.282,94.1V85.863l3.448-3.448v8.241ZM148.1,80.79l-3.448,3.448h-8.241l3.448-3.448Z" transform="translate(-112.381 -59.3)"/>
      </g>
    </g>
  </g>
</svg>
