<svg xmlns="http://www.w3.org/2000/svg" xmlns:xlink="http://www.w3.org/1999/xlink" width="108" height="108" viewBox="0 0 108 108">
  <defs>
    <filter id="Trazado_904820" x="0" y="0" width="108" height="108" filterUnits="userSpaceOnUse">
      <feOffset dy="3" input="SourceAlpha"/>
      <feGaussianBlur stdDeviation="3" result="blur"/>
      <feFlood flood-opacity="0.161"/>
      <feComposite operator="in" in2="blur"/>
      <feComposite in="SourceGraphic"/>
    </filter>
  </defs>
  <g id="Icono" transform="translate(-615.101 -5000)">
    <g transform="matrix(1, 0, 0, 1, 615.1, 5000)" filter="url(#Trazado_904820)">
      <g id="Trazado_904820-2" data-name="Trazado 904820" transform="translate(9 6)" fill="#ecf4fa">
        <path d="M 45 88.5 C 39.12687683105469 88.5 33.43022537231445 87.35007476806641 28.06830024719238 85.08217620849609 C 22.88852500915527 82.89131164550781 18.23629951477051 79.75458526611328 14.2408504486084 75.75914764404297 C 10.24541282653809 71.76370239257812 7.108687400817871 67.11147308349609 4.917825222015381 61.93170166015625 C 2.649924993515015 56.56977462768555 1.5 50.87312316894531 1.5 45 C 1.5 39.12687683105469 2.649924993515015 33.43022537231445 4.917825222015381 28.06830024719238 C 7.108687400817871 22.88852500915527 10.24541282653809 18.23629951477051 14.2408504486084 14.2408504486084 C 18.23629951477051 10.24541282653809 22.88852500915527 7.108687400817871 28.06830024719238 4.917825222015381 C 33.43022537231445 2.649924993515015 39.12687683105469 1.5 45 1.5 C 50.87312316894531 1.5 56.56977462768555 2.649924993515015 61.93170166015625 4.917825222015381 C 67.11147308349609 7.108687400817871 71.76370239257812 10.24541282653809 75.75914764404297 14.2408504486084 C 79.75458526611328 18.23629951477051 82.89131164550781 22.88852500915527 85.08217620849609 28.06830024719238 C 87.35007476806641 33.43022537231445 88.5 39.12687683105469 88.5 45 C 88.5 50.87312316894531 87.35007476806641 56.56977462768555 85.08217620849609 61.93170166015625 C 82.89131164550781 67.11147308349609 79.75458526611328 71.76370239257812 75.75914764404297 75.75914764404297 C 71.76370239257812 79.75458526611328 67.11147308349609 82.89131164550781 61.93170166015625 85.08217620849609 C 56.56977462768555 87.35007476806641 50.87312316894531 88.5 45 88.5 Z" stroke="none"/>
        <path d="M 45 3 C 39.32871246337891 3 33.82865524291992 4.110054016113281 28.65262985229492 6.299339294433594 C 23.65165710449219 8.414573669433594 19.15968322753906 11.44334411621094 15.301513671875 15.301513671875 C 11.44334411621094 19.15968322753906 8.414573669433594 23.65165710449219 6.299339294433594 28.65262985229492 C 4.110054016113281 33.82865524291992 3 39.32871246337891 3 45 C 3 50.67128753662109 4.110054016113281 56.17134475708008 6.299339294433594 61.34737396240234 C 8.414573669433594 66.34834289550781 11.44334411621094 70.84031677246094 15.301513671875 74.698486328125 C 19.15968322753906 78.55665588378906 23.65165710449219 81.58542633056641 28.65262985229492 83.70066070556641 C 33.82865524291992 85.88994598388672 39.32871246337891 87 45 87 C 50.67128753662109 87 56.17134475708008 85.88994598388672 61.34737396240234 83.70066070556641 C 66.34834289550781 81.58542633056641 70.84031677246094 78.55665588378906 74.698486328125 74.698486328125 C 78.55665588378906 70.84031677246094 81.58542633056641 66.34834289550781 83.70066070556641 61.34737396240234 C 85.88994598388672 56.17134475708008 87 50.67128753662109 87 45 C 87 39.32871246337891 85.88994598388672 33.82865524291992 83.70066070556641 28.65262985229492 C 81.58542633056641 23.65165710449219 78.55665588378906 19.15968322753906 74.698486328125 15.301513671875 C 70.84031677246094 11.44334411621094 66.34834289550781 8.414573669433594 61.34737396240234 6.299339294433594 C 56.17134475708008 4.110054016113281 50.67128753662109 3 45 3 M 45 0 C 69.85281372070312 0 90 20.14718627929688 90 45 C 90 69.85281372070312 69.85281372070312 90 45 90 C 20.14718627929688 90 0 69.85281372070312 0 45 C 0 20.14718627929688 20.14718627929688 0 45 0 Z" stroke="none" fill="#2a5673"/>
      </g>
    </g>
    <g id="layer1" transform="translate(643.101 5023.983)">
      <path id="path6238" d="M8.421,10.234.7,7.292l.948-3.443L.265.265,6.539,3.28l-1.272,2.9Z" transform="translate(0.642 0.642)" fill="#ffca28"/>
      <path id="circle6231" d="M23.84,16.815A5.437,5.437,0,1,1,18.4,11.377,5.437,5.437,0,0,1,23.84,16.815Z" transform="translate(31.442 27.592)" fill="#e4eff8"/>
      <path id="circle6235" d="M18.4,11.377A5.432,5.432,0,0,0,15.574,21.45a5.428,5.428,0,0,1,7.469-7.459A5.437,5.437,0,0,0,18.4,11.377Z" transform="translate(31.442 27.592)" fill="#c4dcf0"/>
      <path id="path6204" d="M12.287,15.831c1.17,2.883-1.306,2.27.883,4.488s1.616-.259,4.49.956.688,2.525,3.811,2.552.959-1.321,3.854-2.487,2.28,1.3,4.506-.879-.26-1.609.96-4.472,2.536-.685,2.562-3.943c-.027-3.257-1.343-1.08-2.562-3.943s1.267-2.292-.96-4.472-1.611.286-4.506-.879S24.593.238,21.47.265,20.534,1.6,17.66,2.817s-2.3-1.262-4.49.956.288,1.6-.883,4.488-2.523.728-2.5,3.785c-.027,3.057,1.326.9,2.5,3.785Z" transform="translate(23.742 0.642)" fill="#549ad4"/>
      <g id="Grupo_1143714" data-name="Grupo 1143714" transform="translate(33.531 0.906)">
        <path id="path6219" d="M9.8,3.677c0,.037-.006.055-.005.094-.027,3.057,1.327.9,2.5,3.786s-1.308,2.269.881,4.487c2.007,2.033,1.7.129,3.85.733A17.294,17.294,0,0,0,9.8,3.677Z" transform="translate(-9.789 8.011)" fill="#3588cb"/>
        <path id="path6217" d="M14.14.265a4.174,4.174,0,0,0-1.328.168c1.018.391.2,1.408,2.462,2.319a2.866,2.866,0,0,0,2.712,0C15.106,1.584,17.258.238,14.14.265Z" transform="translate(-2.459 -0.264)" fill="#3588cb"/>
        <path id="path6215" d="M16.588.976c-.568-.045-.9.484-1.935.363a6.11,6.11,0,0,1,.664.573c2.227,2.18-.26,1.608.959,4.471s2.536.686,2.563,3.944c-.027,3.257-1.343,1.081-2.563,3.944s1.267,2.291-.959,4.471a6.109,6.109,0,0,1-.664.573c1.641-.192,1.506,1.264,3.383-.573,2.227-2.18-.26-1.608.959-4.471s2.536-.686,2.563-3.944c-.027-3.257-1.343-1.081-2.563-3.944s1.267-2.291-.959-4.471c-.7-.681-1.113-.91-1.448-.936Z" transform="translate(2.005 1.455)" fill="#3588cb"/>
        <path id="path6209" d="M16.575,6.325a4.1,4.1,0,0,0-1.3.327c-2.261.91-1.444,1.928-2.462,2.319a4.174,4.174,0,0,0,1.328.168c3.119.026.966-1.319,3.846-2.483a3.231,3.231,0,0,0-1.411-.331Z" transform="translate(-2.459 14.424)" fill="#3588cb"/>
      </g>
      <path id="path6166" d="M21.108,42.531l-4.471,1.813-9.123-.906L4.675,30.805.265,29.477l4.41-9.3a17.279,17.279,0,0,1,34.559,0c0,9.834,0,21.554,0,29.857H14.765l-.906-5.692Z" transform="translate(0.642 7.058)" fill="#ffd1b5"/>
      <path id="path6168" d="M28.506,4.174c9.225,29.4-16.895,33.849-26.235,34.512l.379,1.685,7.133.708-.789.2L9.9,46.97H34.368V17.113A17.2,17.2,0,0,0,28.506,4.175Z" transform="translate(5.507 10.124)" fill="#ffb98d"/>
      <path id="path6174" d="M5.531,21.856c1.35,3.327-1.507,2.62,1.019,5.178s1.865-.3,5.181,1.1.794,2.914,4.4,2.944,1.106-1.524,4.447-2.869,2.63,1.5,5.2-1.014-.3-1.857,1.107-5.16,2.926-.791,2.956-4.549c-.031-3.758-1.549-1.246-2.956-4.549s1.462-2.645-1.107-5.16-1.859.33-5.2-1.014-.844-2.9-4.447-2.869-1.08,1.543-4.4,2.944-2.656-1.456-5.181,1.1.332,1.852-1.019,5.178-2.912.841-2.881,4.368c-.031,3.527,1.531,1.041,2.881,4.368Z" transform="translate(6.426 9.445)" fill="#e4eff8"/>
      <path id="path6202" d="M19,13.071a7.25,7.25,0,1,1-7.25-7.25A7.25,7.25,0,0,1,19,13.071Z" transform="translate(10.908 14.117)" fill="#549ad4"/>
      <path id="path6185" d="M7.513,3.895A5.809,5.809,0,0,0,6.2,4.024c1.468.4.289,1.638,3.027,2.74a3.111,3.111,0,0,0,2.908.064c-.061-.023-.113-.038-.177-.064-3.34-1.345-.844-2.9-4.446-2.869Z" transform="translate(15.04 9.444)" fill="#c4dcf0"/>
      <path id="path6183" d="M10.19,4.716c-.569-.045-.935.409-1.8.439a7.023,7.023,0,0,1,.74.639c2.569,2.516-.3,1.858,1.108,5.161s2.925.79,2.956,4.549c-.031,3.758-1.549,1.246-2.956,4.549S11.7,22.7,9.129,25.214a7,7,0,0,1-.743.641c1.456.049,1.487,1.305,3.475-.641,2.569-2.515-.3-1.858,1.108-5.161s2.925-.791,2.956-4.549c-.031-3.758-1.549-1.246-2.956-4.549s1.461-2.646-1.108-5.161c-.8-.786-1.285-1.047-1.671-1.078Z" transform="translate(20.338 11.429)" fill="#c4dcf0"/>
      <path id="path6178" d="M10.728,10.887a4.713,4.713,0,0,0-1.5.377C6.491,12.366,7.669,13.608,6.2,14a5.806,5.806,0,0,0,1.312.129c3.6.03,1.106-1.524,4.446-2.869.064-.026.116-.041.177-.064a2.883,2.883,0,0,0-1.409-.313Z" transform="translate(15.04 26.393)" fill="#c4dcf0"/>
      <path id="path6187" d="M15.9,10.919c0,3.625-2.719,4.531-2.719,5.613v2.544a1.809,1.809,0,0,1-1.813,1.812H9.558a1.809,1.809,0,0,1-1.812-1.812V16.532c0-1.081-2.719-1.988-2.719-5.613a5.437,5.437,0,1,1,10.875,0Z" transform="translate(12.192 13.295)" fill="#ffca28"/>
      <path id="path6198" d="M7.9,5.482A5.419,5.419,0,0,0,6.085,5.8,5.433,5.433,0,0,1,9.71,10.919c0,3.625-2.719,4.531-2.719,5.613v2.544a1.8,1.8,0,0,1-.906,1.563,1.8,1.8,0,0,0,.906.25H8.8a1.809,1.809,0,0,0,1.812-1.812V16.532c0-1.081,2.719-1.988,2.719-5.613A5.438,5.438,0,0,0,7.9,5.482Z" transform="translate(14.758 13.294)" fill="#ecb200"/>
      <path id="path6189" d="M11.258,8.708v2.544a1.809,1.809,0,0,1-1.813,1.812H7.633a1.809,1.809,0,0,1-1.812-1.812V8.708Z" transform="translate(14.117 21.119)" fill="#e4eff8"/>
      <path id="path6191" d="M9.758,8.708A5.939,5.939,0,0,1,5.968,12.5a1.8,1.8,0,0,0,1.308.561H9.089A1.809,1.809,0,0,0,10.9,11.252V8.708Z" transform="translate(14.474 21.118)" fill="#c4dcf0"/>
      <path id="circle6224" d="M22.513,7.553a5.436,5.436,0,1,1-5.436-5.436A5.436,5.436,0,0,1,22.513,7.553Z" transform="translate(28.233 5.136)" fill="#e4eff8"/>
      <path id="circle6228" d="M17.077,2.118a5.431,5.431,0,0,0-2.827,10.071A5.427,5.427,0,0,1,21.717,4.73a5.436,5.436,0,0,0-4.639-2.613Z" transform="translate(28.233 5.136)" fill="#c4dcf0"/>
      <path id="path11361" d="M.061,1.232,1.332,4.538.463,7.694a.906.906,0,0,0,.554,1.085l7.721,2.943a.906.906,0,0,0,1.044-1.405L6.959,6.692l1.05-2.4a.905.905,0,0,0-.435-1.184L1.3.088A.907.907,0,0,0,.061,1.232ZM32.634.81,32.406,2.6a.907.907,0,0,0,1.8.228l.226-1.8a.906.906,0,0,0-1.8-.221Zm24,8.929a2.343,2.343,0,0,1-.607-.32,2.613,2.613,0,0,1-.664-1.03A2.568,2.568,0,0,1,55.085,7.2a1.9,1.9,0,0,1,.186-.623A1.922,1.922,0,0,0,55.352,5.2a4.145,4.145,0,0,0-1.143-1.577A4.166,4.166,0,0,0,52.6,2.514a1.883,1.883,0,0,0-1.377.1,1.92,1.92,0,0,1-.623.193,2.594,2.594,0,0,1-1.2-.253,2.574,2.574,0,0,1-1.037-.643,1.946,1.946,0,0,1-.315-.575,1.908,1.908,0,0,0-.922-1.03A4.134,4.134,0,0,0,45.313,0,4.133,4.133,0,0,0,43.5.307a1.908,1.908,0,0,0-.922,1.03,1.949,1.949,0,0,1-.315.575,2.574,2.574,0,0,1-1.037.643,2.57,2.57,0,0,1-1.2.253,1.889,1.889,0,0,1-.623-.193,1.884,1.884,0,0,0-1.377-.1,4.164,4.164,0,0,0-1.607,1.112A4.144,4.144,0,0,0,35.274,5.2a1.929,1.929,0,0,0,.082,1.379,1.937,1.937,0,0,1,.186.623,2.584,2.584,0,0,1-.28,1.184,2.615,2.615,0,0,1-.664,1.03,2.34,2.34,0,0,1-.607.32,1.948,1.948,0,0,0-1.032.963,3.626,3.626,0,0,0-.317,1.382A18.19,18.19,0,0,0,4.414,27.01L.088,36.145A.917.917,0,0,0,.644,37.4L4.55,38.58,7.272,50.693a.907.907,0,0,0,.8.7l5.606.556.837,5.285a.906.906,0,0,0,.9.763H39.879a.907.907,0,0,0,.9-.912V27.233a18.13,18.13,0,0,0-.628-4.747,2.983,2.983,0,0,1,.9.263,2.608,2.608,0,0,1,1.03.657,1.965,1.965,0,0,1,.3.581,1.886,1.886,0,0,0,.9,1.044,4.081,4.081,0,0,0,1.919.341,4.353,4.353,0,0,0,1.927-.308,1.926,1.926,0,0,0,.922-1.03,1.95,1.95,0,0,1,.315-.575,2.587,2.587,0,0,1,1.037-.635,2.629,2.629,0,0,1,1.2-.262,1.9,1.9,0,0,1,.623.195,1.915,1.915,0,0,0,1.377.1,4.1,4.1,0,0,0,1.607-1.112,4.065,4.065,0,0,0,1.143-1.579,1.908,1.908,0,0,0-.082-1.377,1.928,1.928,0,0,1-.186-.623,2.587,2.587,0,0,1,.279-1.184,2.616,2.616,0,0,1,.664-1.03,2.34,2.34,0,0,1,.607-.32,1.959,1.959,0,0,0,1.032-.963A4.454,4.454,0,0,0,58,12.686a4.458,4.458,0,0,0-.333-1.984,1.949,1.949,0,0,0-1.032-.963ZM46.284,1.914c.058.027.038,0,.11.152A3.577,3.577,0,0,0,47,3.1a4.44,4.44,0,0,0,1.733,1.129,4.418,4.418,0,0,0,2.027.382,3.657,3.657,0,0,0,1.158-.322c.091-.041.142-.076.211-.024a3.127,3.127,0,0,1,.812.648,3.031,3.031,0,0,1,.674.818c.021.059.039.021-.024.186a3.637,3.637,0,0,0-.308,1.165A4.369,4.369,0,0,0,53.7,9.1,4.457,4.457,0,0,0,54.857,10.8a3.8,3.8,0,0,0,1.03.589c.14.064.123.049.165.135a3.444,3.444,0,0,1,.136,1.156,3.18,3.18,0,0,1-.147,1.191c-.027.055-.08.063-.154.106a3.8,3.8,0,0,0-1.03.589A4.457,4.457,0,0,0,53.7,16.276a4.4,4.4,0,0,0-.421,2.019,3.589,3.589,0,0,0,.308,1.158c.014.053.055.106.035.165a3.125,3.125,0,0,1-.685.839,3.128,3.128,0,0,1-.851.669c-.062.021-.075-.014-.172-.041a3.635,3.635,0,0,0-1.158-.327A5.295,5.295,0,0,0,47,22.269a3.577,3.577,0,0,0-.6,1.037c-.064.162-.069.136-.163.168a3.5,3.5,0,0,1-1.014.085,3.174,3.174,0,0,1-1.09-.133c-.024-.014-.051-.1-.074-.14a3.63,3.63,0,0,0-.588-1.051,5.331,5.331,0,0,0-3.682-1.575c-.074,0-.154.01-.223.021a18.245,18.245,0,0,0-5.082-7.2,5.994,5.994,0,0,1-.041-.795,3.4,3.4,0,0,1,.136-1.156c.042-.086.024-.071.165-.135a3.8,3.8,0,0,0,1.03-.589A4.458,4.458,0,0,0,36.927,9.1a4.37,4.37,0,0,0,.421-2.012,3.636,3.636,0,0,0-.308-1.165c-.064-.164-.045-.127-.024-.186a3.055,3.055,0,0,1,.674-.818,3.094,3.094,0,0,1,.812-.648c.069-.051.12-.017.211.024a3.665,3.665,0,0,0,1.158.322A4.415,4.415,0,0,0,41.9,4.232,4.44,4.44,0,0,0,43.631,3.1a3.577,3.577,0,0,0,.6-1.037c.071-.148.052-.124.11-.152a4.893,4.893,0,0,1,1.942,0ZM28.793,1.881a.906.906,0,0,0-.729,1.478l1.112,1.425a.906.906,0,1,0,1.43-1.11L29.489,2.242a.906.906,0,0,0-.7-.361ZM2.576,2.716,6,4.362,5.079,6.456a.906.906,0,0,0,.113.917l1.17,1.5L2.429,7.38l.729-2.65a.9.9,0,0,0-.027-.561Zm23.1,5.13,1.8.223a.907.907,0,0,0,.22-1.8l-1.8-.22c-.031,0-.06-.007-.136-.009A.906.906,0,0,0,25.676,7.846Zm19.635-1.5a6.344,6.344,0,1,0,6.342,6.347,6.354,6.354,0,0,0-6.342-6.347Zm0,1.818a4.529,4.529,0,1,1-4.529,4.529A4.527,4.527,0,0,1,45.311,8.162Zm-.9,2.713v.906H43.5a.906.906,0,1,0,0,1.812h.906V14.5a.906.906,0,1,0,1.812,0v-.906h.906a.906.906,0,1,0,0-1.812h-.906v-.906a.906.906,0,0,0-1.812,0ZM38.969,27.233V56.186H16.184l-.65-4.053,1.658.166a.932.932,0,0,0,.428-.06l4.469-1.812a.907.907,0,1,0-.683-1.68l-4.26,1.727L8.9,49.656,6.2,37.663a.908.908,0,0,0-.623-.669L2.174,35.971l3.961-8.349a.915.915,0,0,0,.087-.389,16.373,16.373,0,0,1,32.747,0ZM20.623,13.028a2.059,2.059,0,0,0-1,1.117,2.35,2.35,0,0,1-.382.7,3.16,3.16,0,0,1-1.257.775,3.167,3.167,0,0,1-1.439.315,2.438,2.438,0,0,1-.77-.241,2.081,2.081,0,0,0-1.49-.113,4.61,4.61,0,0,0-1.793,1.25,4.588,4.588,0,0,0-1.285,1.766,2.126,2.126,0,0,0,.087,1.5,2.356,2.356,0,0,1,.228.756,3.076,3.076,0,0,1-.335,1.432,3.132,3.132,0,0,1-.8,1.237,2.825,2.825,0,0,1-.736.395,2.148,2.148,0,0,0-1.124,1.042,5.169,5.169,0,0,0-.368,2.228,5.17,5.17,0,0,0,.368,2.228,2.1,2.1,0,0,0,1.124,1.042,2.828,2.828,0,0,1,.736.395,3.132,3.132,0,0,1,.8,1.237,3.121,3.121,0,0,1,.335,1.432,2.415,2.415,0,0,1-.228.763,2.032,2.032,0,0,0-.087,1.492A4.651,4.651,0,0,0,12.5,37.537a4.822,4.822,0,0,0,1.793,1.25,2.068,2.068,0,0,0,1.49-.113,2.44,2.44,0,0,1,.77-.241,3.177,3.177,0,0,1,1.439.315,3.162,3.162,0,0,1,1.257.775,2.355,2.355,0,0,1,.382.7,2.071,2.071,0,0,0,1,1.117,4.441,4.441,0,0,0,2.035.35,4.441,4.441,0,0,0,2.035-.35,2.071,2.071,0,0,0,1-1.117,2.35,2.35,0,0,1,.382-.7,3.16,3.16,0,0,1,1.257-.775,3.167,3.167,0,0,1,1.439-.315,2.438,2.438,0,0,1,.77.241,2.068,2.068,0,0,0,1.49.113,4.821,4.821,0,0,0,1.793-1.25,4.651,4.651,0,0,0,1.285-1.766,2.032,2.032,0,0,0-.087-1.492,2.391,2.391,0,0,1-.228-.763,3.076,3.076,0,0,1,.335-1.432,3.133,3.133,0,0,1,.8-1.237,2.836,2.836,0,0,1,.736-.395A2.1,2.1,0,0,0,36.79,29.41a5.169,5.169,0,0,0,.368-2.228,5.17,5.17,0,0,0-.368-2.228,2.148,2.148,0,0,0-1.124-1.042,2.829,2.829,0,0,1-.736-.395,3.132,3.132,0,0,1-.8-1.237,3.121,3.121,0,0,1-.335-1.432,2.38,2.38,0,0,1,.228-.756,2.127,2.127,0,0,0,.087-1.5,4.589,4.589,0,0,0-1.285-1.766,4.612,4.612,0,0,0-1.793-1.25,2.081,2.081,0,0,0-1.49.113,2.44,2.44,0,0,1-.77.241,3.176,3.176,0,0,1-1.439-.315,3.162,3.162,0,0,1-1.257-.775,2.355,2.355,0,0,1-.382-.7,2.059,2.059,0,0,0-1-1.117,4.451,4.451,0,0,0-2.035-.34,4.455,4.455,0,0,0-2.035.34Zm3.255,1.618c.071.021.1.108.154.228a4.034,4.034,0,0,0,.676,1.163,4.95,4.95,0,0,0,1.94,1.265,4.987,4.987,0,0,0,2.282.434,4.017,4.017,0,0,0,1.29-.368c.137-.056.178-.086.274-.06a3.6,3.6,0,0,1,1.057.811,3.438,3.438,0,0,1,.837,1.042c.031.095-.035.195-.055.269a4.015,4.015,0,0,0-.347,1.3,4.906,4.906,0,0,0,.474,2.26,4.984,4.984,0,0,0,1.3,1.913,4.3,4.3,0,0,0,1.156.662c.174.079.212.105.251.205a3.739,3.739,0,0,1,.177,1.414,3.69,3.69,0,0,1-.188,1.432c-.021.078-.111.128-.241.188a4.3,4.3,0,0,0-1.156.662,4.985,4.985,0,0,0-1.3,1.913,4.907,4.907,0,0,0-.474,2.26,4.019,4.019,0,0,0,.347,1.3c.017.069.088.169.055.269a3.324,3.324,0,0,1-.837,1.042,3.377,3.377,0,0,1-1.057.811c-.091.027-.156-.014-.274-.06a4.024,4.024,0,0,0-1.29-.368,4.99,4.99,0,0,0-2.281.434,4.951,4.951,0,0,0-1.94,1.266,4.041,4.041,0,0,0-.676,1.163c-.054.123-.076.184-.154.228a3.214,3.214,0,0,1-1.22.152,3.214,3.214,0,0,1-1.22-.152c-.078-.045-.1-.106-.154-.228a4.033,4.033,0,0,0-.676-1.163,4.95,4.95,0,0,0-1.94-1.266,4.987,4.987,0,0,0-2.282-.434A4.018,4.018,0,0,0,15.1,37c-.119.048-.184.088-.274.06a3.391,3.391,0,0,1-1.057-.811,3.327,3.327,0,0,1-.837-1.042c-.034-.1.037-.2.055-.269a4.015,4.015,0,0,0,.347-1.3,4.906,4.906,0,0,0-.474-2.26,4.985,4.985,0,0,0-1.3-1.913A4.3,4.3,0,0,0,10.4,28.8c-.13-.059-.22-.109-.241-.188a3.66,3.66,0,0,1-.188-1.432,3.7,3.7,0,0,1,.177-1.414c.04-.1.077-.126.251-.205a4.292,4.292,0,0,0,1.156-.662,4.984,4.984,0,0,0,1.3-1.913,4.907,4.907,0,0,0,.474-2.26,4.02,4.02,0,0,0-.347-1.3c-.021-.075-.086-.174-.055-.269a3.436,3.436,0,0,1,.837-1.042,3.58,3.58,0,0,1,1.057-.811c.1-.027.137,0,.274.06a4.024,4.024,0,0,0,1.29.368,4.985,4.985,0,0,0,2.282-.434,4.95,4.95,0,0,0,1.94-1.265,4.041,4.041,0,0,0,.676-1.163c.053-.121.083-.209.154-.228a3.386,3.386,0,0,1,1.22-.141,3.386,3.386,0,0,1,1.22.141Zm-1.221,3.48a6.346,6.346,0,0,0-5.324,2.894,8.151,8.151,0,0,0,1.912,13.568,2.723,2.723,0,0,0,2.508,1.664h1.809a2.687,2.687,0,0,0,2.5-1.648A8.157,8.157,0,0,0,27.95,20.975a6.3,6.3,0,0,0-5.294-2.85Zm4.531,6.347a4.608,4.608,0,0,1-1.15,3.177c-.3.363-.627.673-.924,1.016-.084.1-.181.219-.262.335h-1.29V27.577l.648-.644a.908.908,0,0,0-1.285-1.283l-.267.267-.26-.267a.908.908,0,1,0-1.285,1.283l.637.634V29H20.462c-.081-.115-.178-.237-.262-.335-.3-.343-.621-.653-.924-1.016a4.608,4.608,0,0,1-1.151-3.177,4.531,4.531,0,1,1,9.063,0Zm-.9,7.924,0-2.266s-.014-.037.2-.282.566-.591.943-1.042a6.348,6.348,0,0,0,1.44-2.939,6.415,6.415,0,0,1,.071,2.256A6.349,6.349,0,0,1,26.289,32.4Zm-7.46-2.547c.212.245.2.274.2.274v2.262a6.335,6.335,0,0,1-2.573-6.474,6.431,6.431,0,0,0,1.43,2.9c.377.452.731.8.943,1.042ZM51.116,28.09a.906.906,0,1,0,.221-1.8l-1.8-.228c-.031,0-.06-.007-.135-.009a.906.906,0,0,0-.084,1.808Zm-3.979.9a.906.906,0,0,0-.729,1.478l1.117,1.425a.906.906,0,1,0,1.432-1.11l-1.119-1.432a.907.907,0,0,0-.7-.361Zm-4.329,2.32L42.587,33.1a.9.9,0,1,0,1.793.228l.228-1.8a.907.907,0,0,0-1.8-.221Zm-21.967-.494h3.632v2.715a.911.911,0,0,1-.912.91H21.752a.911.911,0,0,1-.912-.91Zm29,7.243A6.344,6.344,0,1,0,56.186,44.4,6.354,6.354,0,0,0,49.844,38.056Zm0,1.818A4.528,4.528,0,1,1,45.314,44.4,4.528,4.528,0,0,1,49.844,39.874ZM48.031,43.5a.906.906,0,1,0,0,1.812h3.625a.906.906,0,1,0,0-1.812Z" transform="translate(0 0)" fill="#333"/>
    </g>
  </g>
</svg>
