<svg xmlns="http://www.w3.org/2000/svg" width="28.914" height="20.912" viewBox="0 0 28.914 20.912">
  <g id="Grupo_1143650" data-name="Grupo 1143650" transform="translate(-1 -4)">
    <path id="Trazado_978620" data-name="Trazado 978620" d="M28.351,7.96a3.4,3.4,0,0,0-2.373-2.447C23.873,5,15.457,5,15.457,5s-8.416,0-10.52.563A3.4,3.4,0,0,0,2.563,8.009,35.476,35.476,0,0,0,2,14.481,35.475,35.475,0,0,0,2.563,21,3.4,3.4,0,0,0,4.937,23.35c2.1.563,10.52.563,10.52.563s8.416,0,10.52-.563A3.4,3.4,0,0,0,28.351,20.9a35.477,35.477,0,0,0,.563-6.422A35.473,35.473,0,0,0,28.351,7.96Z" fill="none" stroke="#f15642" stroke-linecap="round" stroke-linejoin="round" stroke-width="2"/>
    <path id="Trazado_978621" data-name="Trazado 978621" d="M9.75,9.828c0-.642,0-.963.134-1.143a.673.673,0,0,1,.491-.268c.223-.016.493.158,1.034.505l5.306,3.411c.469.3.7.452.784.644a.674.674,0,0,1,0,.524c-.081.192-.315.342-.784.644l-5.306,3.411c-.54.347-.81.521-1.034.505a.673.673,0,0,1-.491-.268c-.134-.179-.134-.5-.134-1.143Z" transform="translate(2.679 1.181)" fill="none" stroke="#f15642" stroke-linecap="round" stroke-linejoin="round" stroke-width="2"/>
  </g>
</svg>
