<svg xmlns="http://www.w3.org/2000/svg" width="42.372" height="40.96" viewBox="0 0 42.372 40.96">
  <g id="Grupo_1143749" data-name="Grupo 1143749" transform="translate(-16 -24)">
    <path id="Trazado_978895" data-name="Trazado 978895" d="M248,472h1.412v1.412H248Z" transform="translate(-211.52 -408.453)" fill="#187aae"/>
    <path id="Trazado_978896" data-name="Trazado 978896" d="M58.335,72.819c-.989-1.712-3.069-2.688-6.018-2.823a28.031,28.031,0,0,0-9.756,1.685l.447,1.34c7.036-2.348,12.572-2.15,14.1.5,1.056,1.83.138,4.816-2.521,8.194q-.565.718-1.214,1.436V79.339h0a.7.7,0,0,0-.408-.641L38.144,71.639a.706.706,0,0,0-.607,0L22.755,78.678a.8.8,0,0,0-.122.064.705.705,0,0,0-.329.6h0V93.463a.706.706,0,0,0,.4.638l6.6,3.141c-.813.188-1.607.339-2.376.45-4.254.613-7.3-.084-8.357-1.914-.913-1.582-.363-4.02,1.549-6.864l-1.172-.788c-2.262,3.363-2.815,6.254-1.6,8.358,1.077,1.866,3.429,2.839,6.752,2.839a21.326,21.326,0,0,0,3.03-.233,32.423,32.423,0,0,0,4.162-.9l6.247,2.975a.706.706,0,0,0,.607,0L52.974,94.1a.706.706,0,0,0,.4-.638V85.211A31.455,31.455,0,0,0,55.7,82.593C58.779,78.68,59.715,75.209,58.335,72.819Zm-21.2,26.588L33.278,97.57c1.265-.427,2.555-.928,3.856-1.5Zm0-4.876a45.617,45.617,0,0,1-5.72,2.152l-7.7-3.665V80.457l13.418,6.389Zm.706-8.912-13.188-6.28,13.188-6.28,13.188,6.28Zm14.124,7.4L38.547,99.406V95.433c1.412-.666,2.831-1.407,4.237-2.22a52.646,52.646,0,0,0,9.181-6.642Zm0-8.391a49.764,49.764,0,0,1-9.887,7.364c-1.173.678-2.354,1.3-3.531,1.877V86.847l13.418-6.389Z" transform="translate(-0.654 -41.921)" fill="#187aae"/>
    <path id="Trazado_978897" data-name="Trazado 978897" d="M48,248h1.412v1.412H48Z" transform="translate(-29.175 -204.226)" fill="#187aae"/>
    <path id="Trazado_978898" data-name="Trazado 978898" d="M16,248h1.412v1.412H16Z" transform="translate(0 -204.226)" fill="#187aae"/>
    <path id="Trazado_978899" data-name="Trazado 978899" d="M480,248h1.412v1.412H480Z" transform="translate(-423.04 -204.226)" fill="#187aae"/>
    <path id="Trazado_978900" data-name="Trazado 978900" d="M448,248h1.412v1.412H448Z" transform="translate(-393.865 -204.226)" fill="#187aae"/>
    <path id="Trazado_978901" data-name="Trazado 978901" d="M248,440h1.412v1.412H248Z" transform="translate(-211.52 -379.278)" fill="#187aae"/>
    <path id="Trazado_978902" data-name="Trazado 978902" d="M248,24h1.412v1.412H248Z" transform="translate(-211.52)" fill="#187aae"/>
    <path id="Trazado_978903" data-name="Trazado 978903" d="M248,56h1.412v1.412H248Z" transform="translate(-211.52 -29.175)" fill="#187aae"/>
  </g>
</svg>
