<svg xmlns="http://www.w3.org/2000/svg" xmlns:xlink="http://www.w3.org/1999/xlink" width="108" height="108" viewBox="0 0 108 108">
  <defs>
    <filter id="Path_904820" x="0" y="0" width="108" height="108" filterUnits="userSpaceOnUse">
      <feOffset dy="3" input="SourceAlpha"/>
      <feGaussianBlur stdDeviation="3" result="blur"/>
      <feFlood flood-opacity="0.161"/>
      <feComposite operator="in" in2="blur"/>
      <feComposite in="SourceGraphic"/>
    </filter>
  </defs>
  <g id="Group_1145583" data-name="Group 1145583" transform="translate(-204 -987)">
    <g id="Icono" transform="translate(-411.101 -4013)">
      <g transform="matrix(1, 0, 0, 1, 615.1, 5000)" filter="url(#Path_904820)">
        <g id="Path_904820-2" data-name="Path 904820" transform="translate(9 6)" fill="#f0e9f6">
          <path d="M 45 88.5 C 39.12687683105469 88.5 33.43022537231445 87.35007476806641 28.06830024719238 85.08217620849609 C 22.88852500915527 82.89131164550781 18.23629951477051 79.75458526611328 14.2408504486084 75.75914764404297 C 10.24541282653809 71.76370239257812 7.108687400817871 67.11147308349609 4.917825222015381 61.93170166015625 C 2.649924993515015 56.56977462768555 1.5 50.87312316894531 1.5 45 C 1.5 39.12687683105469 2.649924993515015 33.43022537231445 4.917825222015381 28.06830024719238 C 7.108687400817871 22.88852500915527 10.24541282653809 18.23629951477051 14.2408504486084 14.2408504486084 C 18.23629951477051 10.24541282653809 22.88852500915527 7.108687400817871 28.06830024719238 4.917825222015381 C 33.43022537231445 2.649924993515015 39.12687683105469 1.5 45 1.5 C 50.87312316894531 1.5 56.56977462768555 2.649924993515015 61.93170166015625 4.917825222015381 C 67.11147308349609 7.108687400817871 71.76370239257812 10.24541282653809 75.75914764404297 14.2408504486084 C 79.75458526611328 18.23629951477051 82.89131164550781 22.88852500915527 85.08217620849609 28.06830024719238 C 87.35007476806641 33.43022537231445 88.5 39.12687683105469 88.5 45 C 88.5 50.87312316894531 87.35007476806641 56.56977462768555 85.08217620849609 61.93170166015625 C 82.89131164550781 67.11147308349609 79.75458526611328 71.76370239257812 75.75914764404297 75.75914764404297 C 71.76370239257812 79.75458526611328 67.11147308349609 82.89131164550781 61.93170166015625 85.08217620849609 C 56.56977462768555 87.35007476806641 50.87312316894531 88.5 45 88.5 Z" stroke="none"/>
          <path d="M 45 3 C 39.32871246337891 3 33.82865524291992 4.110054016113281 28.65262985229492 6.299339294433594 C 23.65165710449219 8.414573669433594 19.15968322753906 11.44334411621094 15.301513671875 15.301513671875 C 11.44334411621094 19.15968322753906 8.414573669433594 23.65165710449219 6.299339294433594 28.65262985229492 C 4.110054016113281 33.82865524291992 3 39.32871246337891 3 45 C 3 50.67128753662109 4.110054016113281 56.17134475708008 6.299339294433594 61.34737396240234 C 8.414573669433594 66.34834289550781 11.44334411621094 70.84031677246094 15.301513671875 74.698486328125 C 19.15968322753906 78.55665588378906 23.65165710449219 81.58542633056641 28.65262985229492 83.70066070556641 C 33.82865524291992 85.88994598388672 39.32871246337891 87 45 87 C 50.67128753662109 87 56.17134475708008 85.88994598388672 61.34737396240234 83.70066070556641 C 66.34834289550781 81.58542633056641 70.84031677246094 78.55665588378906 74.698486328125 74.698486328125 C 78.55665588378906 70.84031677246094 81.58542633056641 66.34834289550781 83.70066070556641 61.34737396240234 C 85.88994598388672 56.17134475708008 87 50.67128753662109 87 45 C 87 39.32871246337891 85.88994598388672 33.82865524291992 83.70066070556641 28.65262985229492 C 81.58542633056641 23.65165710449219 78.55665588378906 19.15968322753906 74.698486328125 15.301513671875 C 70.84031677246094 11.44334411621094 66.34834289550781 8.414573669433594 61.34737396240234 6.299339294433594 C 56.17134475708008 4.110054016113281 50.67128753662109 3 45 3 M 45 0 C 69.85281372070312 0 90 20.14718627929688 90 45 C 90 69.85281372070312 69.85281372070312 90 45 90 C 20.14718627929688 90 0 69.85281372070312 0 45 C 0 20.14718627929688 20.14718627929688 0 45 0 Z" stroke="none" fill="#75125d"/>
        </g>
      </g>
    </g>
    <g id="Share_conception_brain_ceative_network" transform="translate(218.56 999.06)">
      <ellipse id="Ellipse_11573" data-name="Ellipse 11573" cx="3" cy="2.5" rx="3" ry="2.5" transform="translate(70.154 36.727)" fill="#2488ff"/>
      <path id="Path_980130" data-name="Path 980130" d="M58.035,17.749a2.5,2.5,0,1,1-3.411-.909l0,0a2.479,2.479,0,0,1,3.392.885Z" transform="translate(12.742 3.597)" fill="#ff9811"/>
      <path id="Path_980131" data-name="Path 980131" d="M57.124,43.838a2.5,2.5,0,1,1-3.409.915l0,0a2.479,2.479,0,0,1,3.381-.926Z" transform="translate(12.742 10.291)" fill="#ffde55"/>
      <path id="Path_980132" data-name="Path 980132" d="M47.244,6.957a2.5,2.5,0,1,1-3.409.915l0,0a2.489,2.489,0,0,1,3.4-.915l.007,0Z" transform="translate(10.292 1.148)" fill="#fee9ab"/>
      <path id="Path_980133" data-name="Path 980133" d="M48.155,54.628a2.5,2.5,0,1,1-3.411-.909l0,0a2.49,2.49,0,0,1,3.4.9l0,.007Z" transform="translate(10.292 12.742)" fill="#b2fa09"/>
      <circle id="Ellipse_11574" data-name="Ellipse 11574" cx="25" cy="25" r="25" transform="translate(14.154 14.727)" fill="#46f8ff"/>
      <path id="Path_980134" data-name="Path 980134" d="M57.455,36.959A24.952,24.952,0,0,1,32.511,61.918H32.5a23.474,23.474,0,0,1-2.5-.125,24.959,24.959,0,0,0,0-49.668A23.474,23.474,0,0,1,32.5,12,24.952,24.952,0,0,1,57.455,36.944Z" transform="translate(6.945 2.482)" fill="#00d7df"/>
      <path id="Path_980135" data-name="Path 980135" d="M41.659,29.749a4.968,4.968,0,0,1,0,8.96,4.848,4.848,0,0,1,.324,1.76,4.992,4.992,0,0,1-9.984,0V27.989a4.581,4.581,0,0,1,.162-1.248,4.992,4.992,0,0,1,9.821,1.248A4.849,4.849,0,0,1,41.659,29.749Z" transform="translate(7.441 5.212)" fill="#fee9ab"/>
      <path id="Path_980136" data-name="Path 980136" d="M41.166,38.712a4.848,4.848,0,0,1,.324,1.76A4.985,4.985,0,0,1,34,44.79a4.967,4.967,0,0,0,2.5-4.318,4.849,4.849,0,0,0-.324-1.76,4.968,4.968,0,0,0,0-8.96,4.848,4.848,0,0,0,.324-1.76,4.963,4.963,0,0,0-2.508-4.318,4.992,4.992,0,0,1,7.5,4.318,4.849,4.849,0,0,1-.324,1.76,4.968,4.968,0,0,1,0,8.96Z" transform="translate(7.934 5.209)" fill="#ffde55"/>
      <ellipse id="Ellipse_11575" data-name="Ellipse 11575" cx="2.5" cy="3" rx="2.5" ry="3" transform="translate(37.154 2.727)" fill="#ff3051"/>
      <circle id="Ellipse_11576" data-name="Ellipse 11576" cx="2.5" cy="2.5" r="2.5" transform="translate(37.154 70.727)" fill="#ff3051"/>
      <path id="Path_980137" data-name="Path 980137" d="M24.821,29.749a4.848,4.848,0,0,1-.324-1.76,4.992,4.992,0,0,1,9.821-1.248,4.581,4.581,0,0,1,.162,1.248V40.469a4.992,4.992,0,0,1-9.984,0,4.848,4.848,0,0,1,.324-1.76,4.968,4.968,0,0,1,0-8.96Z" transform="translate(4.961 5.212)" fill="#fee9ab"/>
      <path id="Path_980138" data-name="Path 980138" d="M33.488,27.992V40.471A4.985,4.985,0,0,1,26,44.789a4.967,4.967,0,0,0,2.5-4.318V27.992a4.581,4.581,0,0,0-.162-1.248,4.988,4.988,0,0,0-2.321-3.07A4.843,4.843,0,0,1,28.5,23a4.982,4.982,0,0,1,4.83,3.744,4.581,4.581,0,0,1,.162,1.248Z" transform="translate(5.953 5.209)" fill="#ffde55"/>
      <path id="Path_980139" data-name="Path 980139" d="M21.155,7.867a2.5,2.5,0,1,1-3.411-.909l0,0A2.5,2.5,0,0,1,21.155,7.867Z" transform="translate(3.597 1.148)" fill="#b2fa09"/>
      <path id="Path_980140" data-name="Path 980140" d="M61.744,32.5A2.5,2.5,0,0,1,58,34.654a2.5,2.5,0,0,0,0-4.318A2.5,2.5,0,0,1,61.744,32.5Z" transform="translate(13.887 6.945)" fill="#005ece"/>
      <path id="Path_980141" data-name="Path 980141" d="M56.876,21.145a2.479,2.479,0,0,1-2.5,0,2.479,2.479,0,0,0,.926-3.381l-.015-.026a2.549,2.549,0,0,0-.911-.911,2.5,2.5,0,0,1,2.5,4.318Z" transform="translate(12.99 3.608)" fill="#cc7400"/>
      <path id="Path_980142" data-name="Path 980142" d="M47.907,10.365a2.5,2.5,0,0,1-3.407.911,2.549,2.549,0,0,0,.911-.911A2.5,2.5,0,0,0,44.5,6.958a2.45,2.45,0,0,1,2.5,0,2.5,2.5,0,0,1,.911,3.407Z" transform="translate(10.54 1.147)" fill="#ffde55"/>
      <path id="Path_980143" data-name="Path 980143" d="M34.744,5.5A2.5,2.5,0,0,1,31,7.654a2.5,2.5,0,0,0,0-4.318A2.5,2.5,0,0,1,34.744,5.5Z" transform="translate(7.193 0.251)" fill="#cd2a00"/>
      <path id="Path_980144" data-name="Path 980144" d="M20,11.285a2.51,2.51,0,0,1-2.5,0,2.5,2.5,0,0,0,.911-3.407,2.549,2.549,0,0,0-.911-.911,2.5,2.5,0,1,1,2.678,4.213c-.06.037-.12.072-.182.1Z" transform="translate(3.846 1.137)" fill="#9cdd05"/>
      <path id="Path_980145" data-name="Path 980145" d="M20.244,53.716a2.5,2.5,0,1,1-3.409.915l0,0A2.5,2.5,0,0,1,20.244,53.716Z" transform="translate(3.598 12.742)" fill="#fee9ab"/>
      <path id="Path_980146" data-name="Path 980146" d="M57.787,47.243a2.5,2.5,0,0,1-3.407.911,2.549,2.549,0,0,0,.911-.911,2.479,2.479,0,0,0-.885-3.392l-.026-.015a2.5,2.5,0,0,1,3.407,3.407Z" transform="translate(12.99 10.293)" fill="#ffd422"/>
      <path id="Path_980147" data-name="Path 980147" d="M47,58.025a2.45,2.45,0,0,1-2.5,0,2.5,2.5,0,0,0,.911-3.407,2.549,2.549,0,0,0-.911-.911A2.5,2.5,0,0,1,47,58.025Z" transform="translate(10.54 12.752)" fill="#9cdd05"/>
      <path id="Path_980148" data-name="Path 980148" d="M34.744,59.5A2.5,2.5,0,0,1,31,61.654a2.5,2.5,0,0,0,0-4.318A2.5,2.5,0,0,1,34.744,59.5Z" transform="translate(7.193 13.64)" fill="#cd2a00"/>
      <path id="Path_980149" data-name="Path 980149" d="M20.907,57.123a2.479,2.479,0,0,1-3.381.926l-.026-.015a2.549,2.549,0,0,0,.911-.911,2.5,2.5,0,0,0-.911-3.407,2.5,2.5,0,0,1,3.407,3.407Z" transform="translate(3.846 12.743)" fill="#ffde55"/>
      <path id="Path_980150" data-name="Path 980150" d="M10.364,16.836a2.5,2.5,0,1,1-3.409.915l0,0a2.5,2.5,0,0,1,3.407-.911Z" transform="translate(1.148 3.598)" fill="#ffde55"/>
      <path id="Path_980151" data-name="Path 980151" d="M11.275,44.747a2.5,2.5,0,1,1-3.411-.909l0,0A2.5,2.5,0,0,1,11.275,44.747Z" transform="translate(1.148 10.293)" fill="#ff9811"/>
      <circle id="Ellipse_11577" data-name="Ellipse 11577" cx="2.5" cy="2.5" r="2.5" transform="translate(3.154 36.727)" fill="#2488ff"/>
      <path id="Path_980152" data-name="Path 980152" d="M11.027,20.243a2.5,2.5,0,0,1-3.407.911,2.549,2.549,0,0,0,.911-.911,2.5,2.5,0,0,0-.911-3.407,2.5,2.5,0,0,1,3.407,3.407Z" transform="translate(1.396 3.599)" fill="#ffd422"/>
      <path id="Path_980153" data-name="Path 980153" d="M10.116,48.145a2.479,2.479,0,0,1-2.5,0,2.5,2.5,0,0,0,.911-3.407,2.549,2.549,0,0,0-.911-.911,2.5,2.5,0,0,1,2.5,4.318Z" transform="translate(1.396 10.302)" fill="#cc7400"/>
      <path id="Path_980154" data-name="Path 980154" d="M7.744,32.5A2.5,2.5,0,0,1,4,34.654a2.5,2.5,0,0,0,0-4.318A2.5,2.5,0,0,1,7.744,32.5Z" transform="translate(0.498 6.945)" fill="#005ece"/>
      <path id="Path_980155" data-name="Path 980155" d="M31,15h2.5v2.5H31Z" transform="translate(7.193 3.226)"/>
      <path id="Path_980156" data-name="Path 980156" d="M0,0H2.5V2.5H0Z" transform="translate(32.75 19.266) rotate(-15.009)"/>
      <path id="Path_980157" data-name="Path 980157" d="M0,0H2.5V2.5H0Z" transform="matrix(0.866, -0.5, 0.5, 0.866, 27.752, 21.687)"/>
      <path id="Path_980158" data-name="Path 980158" d="M0,0H2.5V2.5H0Z" transform="translate(23.55 25.329) rotate(-45)"/>
      <path id="Path_980159" data-name="Path 980159" d="M0,0H2.5V2.5H0Z" transform="matrix(0.5, -0.866, 0.866, 0.5, 20.444, 29.919)"/>
      <path id="Path_980160" data-name="Path 980160" d="M0,0H2.5V2.5H0Z" transform="translate(18.627 35.144) rotate(-74.991)"/>
      <path id="Path_980161" data-name="Path 980161" d="M15,31h2.5v2.5H15Z" transform="translate(3.226 7.193)"/>
      <path id="Path_980162" data-name="Path 980162" d="M0,0H2.5V2.5H0Z" transform="translate(18.618 43.739) rotate(-15.009)"/>
      <path id="Path_980163" data-name="Path 980163" d="M0,0H2.5V2.5H0Z" transform="matrix(0.866, -0.5, 0.5, 0.866, 20.446, 48.962)"/>
      <path id="Path_980164" data-name="Path 980164" d="M0,0H2.5V2.5H0Z" transform="translate(23.549 53.557) rotate(-45)"/>
      <path id="Path_980165" data-name="Path 980165" d="M0,0H2.5V2.5H0Z" transform="matrix(0.5, -0.866, 0.866, 0.5, 27.75, 57.196)"/>
      <path id="Path_980166" data-name="Path 980166" d="M0,0H2.5V2.5H0Z" transform="translate(32.755 59.619) rotate(-74.991)"/>
      <path id="Path_980167" data-name="Path 980167" d="M31,47h2.5v2.5H31Z" transform="translate(7.193 11.16)"/>
      <path id="Path_980168" data-name="Path 980168" d="M0,0H2.5V2.5H0Z" transform="translate(43.094 57.842) rotate(-15.009)"/>
      <path id="Path_980169" data-name="Path 980169" d="M0,0H2.5V2.5H0Z" transform="matrix(0.866, -0.5, 0.5, 0.866, 47.72, 56.267)"/>
      <path id="Path_980170" data-name="Path 980170" d="M0,0H2.5V2.5H0Z" transform="translate(51.785 53.572) rotate(-45)"/>
      <path id="Path_980171" data-name="Path 980171" d="M0,0H2.5V2.5H0Z" transform="matrix(0.5, -0.866, 0.866, 0.5, 55.029, 49.89)"/>
      <path id="Path_980172" data-name="Path 980172" d="M0,0H2.5V2.5H0Z" transform="translate(57.195 45.471) rotate(-74.991)"/>
      <path id="Path_980173" data-name="Path 980173" d="M47,31h2.5v2.5H47Z" transform="translate(11.16 7.193)"/>
      <path id="Path_980174" data-name="Path 980174" d="M0,0H2.5V2.5H0Z" transform="translate(57.203 33.409) rotate(-15.009)"/>
      <path id="Path_980175" data-name="Path 980175" d="M0,0H2.5V2.5H0Z" transform="matrix(0.866, -0.5, 0.5, 0.866, 55.025, 28.994)"/>
      <path id="Path_980176" data-name="Path 980176" d="M0,0H2.5V2.5H0Z" transform="translate(51.788 25.324) rotate(-45)"/>
      <path id="Path_980177" data-name="Path 980177" d="M0,0H2.5V2.5H0Z" transform="matrix(0.5, -0.866, 0.866, 0.5, 47.722, 22.61)"/>
      <path id="Path_980178" data-name="Path 980178" d="M0,0H2.5V2.5H0Z" transform="translate(43.09 21.036) rotate(-74.991)"/>
      <path id="Path_980179" data-name="Path 980179" d="M73.135,35.7a3.757,3.757,0,0,0-3.519,2.5H65.585a25.98,25.98,0,0,0-2.87-10.745l3.494-2.022a3.784,3.784,0,0,0,2.421.911,3.714,3.714,0,0,0,1.859-.5,3.769,3.769,0,0,0,1.872-3.257,3.738,3.738,0,1,0-7.413.686l-3.482,2.022a26.324,26.324,0,0,0-7.875-7.875l2.022-3.494a4.23,4.23,0,0,0,.661.087,3.764,3.764,0,1,0-2.82-1.323l-2.022,3.482A25.98,25.98,0,0,0,40.689,13.3V9.265a3.743,3.743,0,1,0-2.5,0V13.3a25.98,25.98,0,0,0-10.745,2.87l-2.022-3.482a3.724,3.724,0,1,0-2.82,1.323,4.23,4.23,0,0,0,.661-.087l2.022,3.494a26.324,26.324,0,0,0-7.875,7.875l-3.482-2.022a3.735,3.735,0,1,0-3.681,3.07,3.784,3.784,0,0,0,2.421-.911l3.494,2.022A25.98,25.98,0,0,0,13.3,38.193H9.265a3.743,3.743,0,1,0,0,2.5H13.3a25.98,25.98,0,0,0,2.87,10.745l-3.482,2.022a3.745,3.745,0,1,0,1.248,2.159l3.482-2.022a26.324,26.324,0,0,0,7.875,7.875l-2.022,3.482a3.739,3.739,0,1,0,2.568,5.545l0,0a3.743,3.743,0,0,0-.412-4.293l2.022-3.482a25.98,25.98,0,0,0,10.745,2.87v4.031a3.743,3.743,0,1,0,2.5,0V65.585a25.981,25.981,0,0,0,10.745-2.87L53.455,66.2a3.74,3.74,0,1,0,2.159-1.248l-2.022-3.482a26.324,26.324,0,0,0,7.875-7.875l3.482,2.022A3.752,3.752,0,1,0,66.2,53.455l-3.482-2.022a25.98,25.98,0,0,0,2.87-10.745h4.031A3.743,3.743,0,1,0,73.135,35.7ZM67.994,21.508a1.252,1.252,0,1,1-.462,1.71A1.253,1.253,0,0,1,67.994,21.508ZM55.2,9.64a1.282,1.282,0,0,1,.761-.587,1.415,1.415,0,0,1,.324-.037,1.229,1.229,0,0,1,.624.162,1.282,1.282,0,0,1,.587.761,1.248,1.248,0,0,1-.881,1.53,1.233,1.233,0,0,1-.953-.132A1.249,1.249,0,0,1,55.2,9.64Zm-31.985,1.7a1.248,1.248,0,0,1-1.834-1.4,1.282,1.282,0,0,1,.587-.761,1.229,1.229,0,0,1,.624-.162,1.415,1.415,0,0,1,.324.037,1.282,1.282,0,0,1,.761.587,1.249,1.249,0,0,1-.462,1.7Zm-11.88,11.88a1.323,1.323,0,1,1,0-.007l0,.007ZM5.746,40.689a1.248,1.248,0,1,1,1.248-1.248A1.248,1.248,0,0,1,5.746,40.689Zm5.142,16.685a1.252,1.252,0,1,1,.449-1.71A1.253,1.253,0,0,1,10.888,57.374ZM23.679,69.242a1.282,1.282,0,0,1-.761.587,1.258,1.258,0,0,1-.948-.125,1.282,1.282,0,0,1-.587-.761,1.258,1.258,0,0,1,.125-.948,1.24,1.24,0,0,1,1.691-.46l.019.011a1.249,1.249,0,0,1,.462,1.7Zm31.985-1.7a1.248,1.248,0,0,1,1.834,1.4,1.282,1.282,0,0,1-.587.761,1.258,1.258,0,0,1-.948.125,1.282,1.282,0,0,1-.761-.587,1.249,1.249,0,0,1,.462-1.7Zm11.88-11.88a1.324,1.324,0,1,1,0,.007ZM39.441,4.5a1.248,1.248,0,1,1-1.248,1.248A1.248,1.248,0,0,1,39.441,4.5Zm0,69.885a1.248,1.248,0,1,1,1.248-1.248A1.248,1.248,0,0,1,39.441,74.383Zm0-11.232A23.711,23.711,0,1,1,63.152,39.441,23.712,23.712,0,0,1,39.441,63.152ZM73.135,40.689a1.248,1.248,0,1,1,1.248-1.248A1.248,1.248,0,0,1,73.135,40.689Z" transform="translate(0 0)"/>
      <path id="Path_980180" data-name="Path 980180" d="M48.455,34.48a6.248,6.248,0,0,0-2.608-5.054,6.23,6.23,0,0,0-11.119-4.9A6.227,6.227,0,0,0,23.5,28.24a5.412,5.412,0,0,0,.125,1.186,6.192,6.192,0,0,0-.012,10.108,6.225,6.225,0,0,0,11.119,4.892,6.221,6.221,0,0,0,11.232-3.706,5.413,5.413,0,0,0-.125-1.186,6.209,6.209,0,0,0,2.621-5.054ZM33.48,40.719a3.744,3.744,0,0,1-7.488,0c0-.05.012-.087.012-.125a6.734,6.734,0,0,0,1.235.125,6.3,6.3,0,0,0,3.12-.836l-1.248-2.171a3.652,3.652,0,0,1-3.507.125,3.726,3.726,0,0,1,.025-6.726,3.678,3.678,0,0,1,3.482.137l1.248-2.171a6.364,6.364,0,0,0-4.355-.7c0-.05-.012-.087-.012-.137a3.744,3.744,0,0,1,7.375-.911,3.4,3.4,0,0,1,.112.911Zm10.345-2.87a3.678,3.678,0,0,1-3.482-.137L39.1,39.883a6.3,6.3,0,0,0,3.12.836,6.734,6.734,0,0,0,1.235-.125c0,.037.012.075.012.125a3.744,3.744,0,1,1-7.488,0V28.24A3.249,3.249,0,0,1,36.1,27.3a3.744,3.744,0,0,1,7.363.936c0,.05-.012.087-.012.137a6.357,6.357,0,0,0-4.355.7l1.248,2.171a3.652,3.652,0,0,1,3.507-.125,3.726,3.726,0,0,1-.025,6.726Z" transform="translate(4.713 4.961)"/>
    </g>
  </g>
</svg>
