<svg xmlns="http://www.w3.org/2000/svg" xmlns:xlink="http://www.w3.org/1999/xlink" width="108" height="108" viewBox="0 0 108 108">
  <defs>
    <filter id="Fondo" x="0" y="0" width="108" height="108" filterUnits="userSpaceOnUse">
      <feOffset dy="3" input="SourceAlpha"/>
      <feGaussianBlur stdDeviation="3" result="blur"/>
      <feFlood flood-opacity="0.161"/>
      <feComposite operator="in" in2="blur"/>
      <feComposite in="SourceGraphic"/>
    </filter>
  </defs>
  <g id="Group_1145751" data-name="Group 1145751" transform="translate(-327.39 -2162.897)">
    <g id="Icono" transform="translate(336.556 1473.897)">
      <g transform="matrix(1, 0, 0, 1, -9.17, 689)" filter="url(#Fondo)">
        <g id="Fondo-2" data-name="Fondo" transform="translate(9 6)" fill="#fffbe8">
          <path d="M 45 88.5 C 39.12687683105469 88.5 33.43022537231445 87.35007476806641 28.06830024719238 85.08217620849609 C 22.88852500915527 82.89131164550781 18.23629951477051 79.75458526611328 14.2408504486084 75.75914764404297 C 10.24541282653809 71.76370239257812 7.108687400817871 67.11147308349609 4.917825222015381 61.93170166015625 C 2.649924993515015 56.56977462768555 1.5 50.87312316894531 1.5 45 C 1.5 39.12687683105469 2.649924993515015 33.43022537231445 4.917825222015381 28.06830024719238 C 7.108687400817871 22.88852500915527 10.24541282653809 18.23629951477051 14.2408504486084 14.2408504486084 C 18.23629951477051 10.24541282653809 22.88852500915527 7.108687400817871 28.06830024719238 4.917825222015381 C 33.43022537231445 2.649924993515015 39.12687683105469 1.5 45 1.5 C 50.87312316894531 1.5 56.56977462768555 2.649924993515015 61.93170166015625 4.917825222015381 C 67.11147308349609 7.108687400817871 71.76370239257812 10.24541282653809 75.75914764404297 14.2408504486084 C 79.75458526611328 18.23629951477051 82.89131164550781 22.88852500915527 85.08217620849609 28.06830024719238 C 87.35007476806641 33.43022537231445 88.5 39.12687683105469 88.5 45 C 88.5 50.87312316894531 87.35007476806641 56.56977462768555 85.08217620849609 61.93170166015625 C 82.89131164550781 67.11147308349609 79.75458526611328 71.76370239257812 75.75914764404297 75.75914764404297 C 71.76370239257812 79.75458526611328 67.11147308349609 82.89131164550781 61.93170166015625 85.08217620849609 C 56.56977462768555 87.35007476806641 50.87312316894531 88.5 45 88.5 Z" stroke="none"/>
          <path d="M 45 3 C 39.32871246337891 3 33.82865524291992 4.110054016113281 28.65262985229492 6.299339294433594 C 23.65165710449219 8.414573669433594 19.15968322753906 11.44334411621094 15.301513671875 15.301513671875 C 11.44334411621094 19.15968322753906 8.414573669433594 23.65165710449219 6.299339294433594 28.65262985229492 C 4.110054016113281 33.82865524291992 3 39.32871246337891 3 45 C 3 50.67128753662109 4.110054016113281 56.17134475708008 6.299339294433594 61.34737396240234 C 8.414573669433594 66.34834289550781 11.44334411621094 70.84031677246094 15.301513671875 74.698486328125 C 19.15968322753906 78.55665588378906 23.65165710449219 81.58542633056641 28.65262985229492 83.70066070556641 C 33.82865524291992 85.88994598388672 39.32871246337891 87 45 87 C 50.67128753662109 87 56.17134475708008 85.88994598388672 61.34737396240234 83.70066070556641 C 66.34834289550781 81.58542633056641 70.84031677246094 78.55665588378906 74.698486328125 74.698486328125 C 78.55665588378906 70.84031677246094 81.58542633056641 66.34834289550781 83.70066070556641 61.34737396240234 C 85.88994598388672 56.17134475708008 87 50.67128753662109 87 45 C 87 39.32871246337891 85.88994598388672 33.82865524291992 83.70066070556641 28.65262985229492 C 81.58542633056641 23.65165710449219 78.55665588378906 19.15968322753906 74.698486328125 15.301513671875 C 70.84031677246094 11.44334411621094 66.34834289550781 8.414573669433594 61.34737396240234 6.299339294433594 C 56.17134475708008 4.110054016113281 50.67128753662109 3 45 3 M 45 0 C 69.85281372070312 0 90 20.14718627929688 90 45 C 90 69.85281372070312 69.85281372070312 90 45 90 C 20.14718627929688 90 0 69.85281372070312 0 45 C 0 20.14718627929688 20.14718627929688 0 45 0 Z" stroke="none" fill="#bca724"/>
        </g>
      </g>
    </g>
    <g id="programmer_360487" transform="translate(343.014 2173.996)">
      <g id="Group_1145749" data-name="Group 1145749" transform="translate(59.48 33.287)">
        <path id="Path_982636" data-name="Path 982636" d="M424.681,232.193V234H411.7v-1.809a1.907,1.907,0,0,1,1.907-1.907h9.168a1.907,1.907,0,0,1,1.907,1.907Z" transform="translate(-411.7 -230.286)" fill="#ecebed"/>
        <path id="Path_982637" data-name="Path 982637" d="M413.675,347.646h11.006v2.322a1.907,1.907,0,0,1-1.907,1.907h-9.168a1.907,1.907,0,0,1-1.907-1.907v-2.322Z" transform="translate(-411.699 -330.69)" fill="#ecebed"/>
      </g>
      <g id="Group_1145750" data-name="Group 1145750" transform="translate(1.517 31.987)">
        <rect id="Rectangle_406119" data-name="Rectangle 406119" width="12.981" height="13.24" transform="translate(57.964 5.015)" fill="#27b5f7"/>
        <path id="Path_982638" data-name="Path 982638" d="M46.247,223.333v23.156H10.5V223.333a2,2,0,0,1,1.949-2.041H44.3a2,2,0,0,1,1.949,2.041Z" transform="translate(-10.499 -221.292)" fill="#27b5f7"/>
      </g>
      <path id="Path_982639" data-name="Path 982639" d="M127.4,319.126v2.941a2.434,2.434,0,0,1-1.5,2.246l-9.715,4.048a5.961,5.961,0,0,0-3.389,5.4v11.716H154.17V333.764a5.961,5.961,0,0,0-3.389-5.4l-9.715-4.048a2.433,2.433,0,0,1-1.5-2.246v-2.941Z" transform="translate(-96.502 -273.004)" fill="#febba0"/>
      <path id="Path_982640" data-name="Path 982640" d="M150.779,347.474l-9.715-4.048a2.433,2.433,0,0,1-1.479-1.959v1.852a6.123,6.123,0,0,1-6.1,6.1h0a6.123,6.123,0,0,1-6.1-6.1V341.5a2.433,2.433,0,0,1-1.475,1.922l-9.715,4.048a5.961,5.961,0,0,0-3.389,5.4v11.716h41.371V352.877A5.961,5.961,0,0,0,150.779,347.474Z" transform="translate(-96.501 -292.117)" fill="#89cd37"/>
      <path id="Path_982641" data-name="Path 982641" d="M169.091,92.837v-4.4a13.559,13.559,0,1,0-27.117,0h-.053v4.4a3.381,3.381,0,0,0,0,6.762v2.524a6.632,6.632,0,0,0,2.773,5.062l8.174,4.673a4.69,4.69,0,0,0,5.278,0l8.149-4.673a6.655,6.655,0,0,0,2.8-5.062V99.6a3.381,3.381,0,1,0,0-6.762Z" transform="translate(-118.524 -64.045)" fill="#febba0"/>
      <path id="Path_982642" data-name="Path 982642" d="M172.867,36.237c-2.558-3.259-5.263-3.955-7.271-2.978a11.555,11.555,0,0,0-7.963-2.72c-9,0-13.925,6.905-13.925,13.042A21.579,21.579,0,0,0,146.343,54.3s.982-6.889,7.726-6.889a11.245,11.245,0,0,0,9.121-3.986c.806,2.1,4.707,2.981,6.24,4.336a18.111,18.111,0,0,1,4.081,4.779S178.291,43.147,172.867,36.237Z" transform="translate(-122.946 -26.111)" fill="#703e41"/>
      <path id="Path_982643" data-name="Path 982643" d="M104.51,252.757h-.02a1.509,1.509,0,0,1,0-3.019h.02a1.509,1.509,0,0,1,0,3.019Z" transform="translate(-88.103 -213.641)"/>
      <path id="Path_982644" data-name="Path 982644" d="M45.185,252.757H40.877a1.509,1.509,0,1,1,0-3.019h4.307a1.509,1.509,0,1,1,0,3.019Z" transform="translate(-33.68 -213.641)"/>
      <path id="Path_982645" data-name="Path 982645" d="M53.071,313.7H40.877a1.509,1.509,0,1,1,0-3.019H53.071a1.509,1.509,0,1,1,0,3.019Z" transform="translate(-33.68 -265.782)"/>
      <path id="Path_982646" data-name="Path 982646" d="M104.51,283.229h-.02a1.509,1.509,0,0,1,0-3.019h.02a1.509,1.509,0,0,1,0,3.019Z" transform="translate(-88.103 -239.71)"/>
      <path id="Path_982647" data-name="Path 982647" d="M45.185,283.23H40.877a1.509,1.509,0,1,1,0-3.019h4.307a1.509,1.509,0,1,1,0,3.019Z" transform="translate(-33.68 -239.711)"/>
      <path id="Path_982648" data-name="Path 982648" d="M135.049,283.23h-.141a1.509,1.509,0,1,1,0-3.019h.141a1.509,1.509,0,1,1,0,3.019Z" transform="translate(-114.126 -239.711)"/>
      <path id="Path_982649" data-name="Path 982649" d="M1.529,494.1h-.02a1.509,1.509,0,1,1,0-3.019h.02a1.509,1.509,0,1,1,0,3.019Z" transform="translate(0 -420.119)"/>
      <path id="Path_982650" data-name="Path 982650" d="M492.445,494.1h-.02a1.509,1.509,0,0,1,0-3.019h.02a1.509,1.509,0,0,1,0,3.019Z" transform="translate(-419.991 -420.119)"/>
      <path id="Path_982651" data-name="Path 982651" d="M284.085,215.5a1.687,1.687,0,1,1,1.687-1.687A1.689,1.689,0,0,1,284.085,215.5Z" transform="translate(-241.598 -181.462)"/>
      <path id="Path_982652" data-name="Path 982652" d="M207.88,215.5a1.687,1.687,0,1,1,1.687-1.687A1.689,1.689,0,0,1,207.88,215.5Z" transform="translate(-176.403 -181.462)"/>
      <path id="Path_982653" data-name="Path 982653" d="M238.345,265.844a2.988,2.988,0,0,1-2.985-2.985,1.51,1.51,0,0,1,1.509-1.509h2.95a1.51,1.51,0,0,1,1.509,1.509A2.988,2.988,0,0,1,238.345,265.844Z" transform="translate(-201.356 -223.575)"/>
      <path id="Path_982654" data-name="Path 982654" d="M193.907,421.09a1.5,1.5,0,0,1-1.067-.442l-3.39-3.39a1.51,1.51,0,0,1,0-2.135l3.39-3.39a1.51,1.51,0,0,1,2.135,2.135l-2.323,2.323,2.323,2.323a1.509,1.509,0,0,1-1.068,2.577Z" transform="translate(-161.7 -351.853)"/>
      <path id="Path_982655" data-name="Path 982655" d="M279.792,421.089a1.51,1.51,0,0,1-1.067-2.577l2.323-2.323-2.323-2.323a1.51,1.51,0,0,1,2.135-2.135l3.39,3.39a1.51,1.51,0,0,1,0,2.135l-3.39,3.39A1.5,1.5,0,0,1,279.792,421.089Z" transform="translate(-238.077 -351.852)"/>
      <path id="Path_982656" data-name="Path 982656" d="M242.88,420.886a1.529,1.529,0,0,1-.275-.025,1.51,1.51,0,0,1-1.211-1.758l1.254-6.815a1.509,1.509,0,0,1,2.969.547l-1.254,6.815A1.51,1.51,0,0,1,242.88,420.886Z" transform="translate(-206.497 -351.649)"/>
      <path id="Path_982657" data-name="Path 982657" d="M54.74,76.508a4.559,4.559,0,0,1-4.554-4.554V68.986a4.554,4.554,0,1,1,9.107,0v2.969A4.559,4.559,0,0,1,54.74,76.508Zm0-9.057A1.536,1.536,0,0,0,53.2,68.985v2.969a1.535,1.535,0,1,0,3.069,0V68.986A1.536,1.536,0,0,0,54.74,67.451Z" transform="translate(-42.935 -55.107)"/>
      <path id="Path_982658" data-name="Path 982658" d="M4.627,76.508A1.51,1.51,0,0,1,3.117,75V69.586l-.49.49A1.51,1.51,0,0,1,.492,67.941l3.067-3.067a1.51,1.51,0,0,1,2.577,1.068V75A1.509,1.509,0,0,1,4.627,76.508Z" transform="translate(-0.043 -55.107)"/>
      <path id="Path_982659" data-name="Path 982659" d="M403.89,12.095a4.559,4.559,0,0,1-4.554-4.554V4.573a4.554,4.554,0,0,1,9.107,0V7.541A4.559,4.559,0,0,1,403.89,12.095Zm0-9.057a1.536,1.536,0,0,0-1.535,1.535V7.541a1.535,1.535,0,0,0,3.069,0V4.573A1.536,1.536,0,0,0,403.89,3.038Z" transform="translate(-341.642)"/>
      <path id="Path_982660" data-name="Path 982660" d="M474.451,12.095a1.51,1.51,0,0,1-1.509-1.509V5.173l-.49.49a1.51,1.51,0,1,1-2.135-2.135L473.383.461a1.51,1.51,0,0,1,2.577,1.068v9.057A1.509,1.509,0,0,1,474.451,12.095Z" transform="translate(-401.989 0)"/>
      <path id="Path_982661" data-name="Path 982661" d="M413.835,219.838h-9.168a3.42,3.42,0,0,0-3.416,3.417v17.371a3.42,3.42,0,0,0,3.416,3.417h9.168a3.42,3.42,0,0,0,3.416-3.417V223.255A3.42,3.42,0,0,0,413.835,219.838Zm-9.565,6.735h9.962v10.221H404.27Zm0-3.318a.4.4,0,0,1,.4-.4h9.168a.4.4,0,0,1,.4.4v.3H404.27v-.3Zm9.962,17.371a.4.4,0,0,1-.4.4h-9.168a.4.4,0,0,1-.4-.4v-.813h9.962v.813Z" transform="translate(-343.28 -188.061)"/>
      <path id="Path_982662" data-name="Path 982662" d="M67.595,88.137H59.221V77.931a7.438,7.438,0,0,0-4.318-6.8l-9.715-4.048a.921.921,0,0,1-.557-.71c0-.007,0-.014,0-.022a.908.908,0,0,1-.009-.121V63.883l3.946-2.262c.027-.016.054-.033.081-.05a8.152,8.152,0,0,0,3.47-6.207c0-.038,0-.077,0-.115V54a4.891,4.891,0,0,0,0-9.3v-.749c.861-1.874,4.437-10.692-.967-17.577-2.5-3.182-5.493-4.535-8.19-3.761a13.342,13.342,0,0,0-8.231-2.515c-9.661,0-15.435,7.4-15.435,14.552a24.38,24.38,0,0,0,2.179,10.225,4.917,4.917,0,0,0-2.619,2.782H3.509A3.509,3.509,0,0,0,.051,51.2V74.355A1.51,1.51,0,0,0,1.56,75.865h8.51v3.064H8.957a1.509,1.509,0,0,0,0,3.019h5.874v6.189H6.456a1.509,1.509,0,1,0,0,3.019H67.595a1.509,1.509,0,1,0,0-3.019ZM52.482,49.344a1.874,1.874,0,0,1-1.872,1.872A1.51,1.51,0,0,0,49.1,52.725v2.463a5.2,5.2,0,0,1-2.083,3.839l-8.1,4.647c-.028.016-.054.033-.081.05a3.193,3.193,0,0,1-3.614,0c-.027-.018-.054-.035-.083-.051l-8.128-4.646a5.116,5.116,0,0,1-2.058-3.839V52.725a1.51,1.51,0,0,0-1.509-1.509,1.87,1.87,0,0,1-.306-3.716l1.671.845A6.261,6.261,0,0,0,37.024,51.09a6.261,6.261,0,0,0,12.222-2.727l1.676-.863A1.873,1.873,0,0,1,52.482,49.344ZM41.6,65.614v2.758a4.575,4.575,0,1,1-9.149,0V65.617l1.147.656a6.207,6.207,0,0,0,6.856,0Zm1.528-22.177a6.272,6.272,0,0,0-6.1,4.871,6.257,6.257,0,0,0-10.87-2.665l-1.112-.562c.349-1.382,1.7-5.095,6.125-5.095a12.9,12.9,0,0,0,8.977-3.2,14.406,14.406,0,0,0,3.3,1.985,11.022,11.022,0,0,1,2.088,1.183A18.869,18.869,0,0,1,49.1,44.01v1.032l-1.2.615A6.249,6.249,0,0,0,43.128,43.437ZM46.372,49.7a3.243,3.243,0,1,1-3.243-3.243A3.247,3.247,0,0,1,46.372,49.7Zm-12.209,0a3.243,3.243,0,1,1-3.243-3.243A3.247,3.247,0,0,1,34.162,49.7Zm.569-26.59a9.995,9.995,0,0,1,6.982,2.358,1.51,1.51,0,0,0,1.641.21c1.55-.754,3.577.2,5.423,2.552h0c3.171,4.04,2.344,9.193,1.431,12.2a25.623,25.623,0,0,0-2.682-2.734,12.428,12.428,0,0,0-2.765-1.635c-1.236-.6-2.774-1.351-3.065-2.11a1.509,1.509,0,0,0-2.552-.445,9.806,9.806,0,0,1-7.979,3.463A8.647,8.647,0,0,0,23.5,41.115c-.053.084-.1.167-.154.251a22.145,22.145,0,0,1-1.029-6.723C22.316,28.973,26.96,23.109,34.731,23.109Zm-19.9,54.822v1H13.089V75.865h2.034A7.543,7.543,0,0,0,14.831,77.931Zm1.948-5.085H3.07V51.2a.5.5,0,0,1,.439-.532H18.736A4.91,4.91,0,0,0,21.931,54v1.253c0,.038,0,.077,0,.115a8.142,8.142,0,0,0,3.446,6.207q.041.027.083.051l3.968,2.269v2.343a.922.922,0,0,1-.569.853l-9.715,4.048A6.619,6.619,0,0,0,16.779,72.846ZM56.2,88.137H17.85V77.931a4.475,4.475,0,0,1,2.46-4.01l9.288-3.87a7.612,7.612,0,0,0,14.851,0l9.292,3.872a4.474,4.474,0,0,1,2.46,4.01V88.137Z" transform="translate(-0.044 -17.171)"/>
    </g>
  </g>
</svg>
