<svg xmlns="http://www.w3.org/2000/svg" width="36.297" height="36.329" viewBox="0 0 36.297 36.329">
  <g id="celulas" transform="translate(2.779 1)">
    <g id="Group_1145420" data-name="Group 1145420" transform="translate(-2.779 -1.001)">
      <g id="Group_1145419" data-name="Group 1145419" transform="translate(0 0)">
        <path id="Path_979648" data-name="Path 979648" d="M35.206,19.12l-8.449-4.828V4.663a.657.657,0,0,0-.313-.563L17.683-.907a.568.568,0,0,0-.626,0L8.3,4.1a.657.657,0,0,0-.313.563v9.629L-.466,19.12a.657.657,0,0,0-.313.563V29.7a.657.657,0,0,0,.313.563L8.3,35.266a.564.564,0,0,0,.313.063.376.376,0,0,0,.25-.063l8.511-3.648,8.511,3.648a.376.376,0,0,0,.25.063.564.564,0,0,0,.313-.063l8.761-5.007a.657.657,0,0,0,.313-.563V19.683A.657.657,0,0,0,35.206,19.12ZM17.37.408l8.136,4.631v9.253l-4.068,2.325L17.37,18.932,13.3,16.616,9.234,14.292V5.039Zm-8.7,33.606L.473,29.32V20.058l8.089-4.667,8.182,4.676V30.51ZM34.2,29.258l-8.136,4.694L18,30.51V20.067l8.151-4.658L34.2,20v9.262Z" transform="translate(0.779 1.001)" fill="#7f35ab"/>
      </g>
    </g>
  </g>
</svg>
