<svg xmlns="http://www.w3.org/2000/svg" width="34.559" height="34.559" viewBox="0 0 34.559 34.559">
  <g id="feedback_11448871" transform="translate(-1 -1)">
    <path id="XMLID_349_" d="M32.25,22.512H28.578V19.974a1.674,1.674,0,1,0-3.348,0v.432a2.834,2.834,0,0,1-1.566,2.484,1.216,1.216,0,0,0-1.188-.918H21.342A1.222,1.222,0,0,0,20.1,23.214v7.02a1.222,1.222,0,0,0,1.242,1.242h1.134a1.228,1.228,0,0,0,1.08-.648,6.882,6.882,0,0,0,4.05,1.35h3.726a1.651,1.651,0,0,0,1.674-1.458,1.7,1.7,0,0,0-.27-1.134,1.734,1.734,0,0,0,.54-1.188,1.82,1.82,0,0,0-.27-.918,1.734,1.734,0,0,0,.54-1.188,1.82,1.82,0,0,0-.27-.918,1.734,1.734,0,0,0,.54-1.188,1.53,1.53,0,0,0-1.566-1.674Zm-9.72,7.83H21.4a.143.143,0,0,1-.162-.162V23.16A.143.143,0,0,1,21.4,23H22.53a.143.143,0,0,1,.162.162v7.02A.143.143,0,0,1,22.53,30.342Zm9.882-5.616a.586.586,0,0,0-.432.432.548.548,0,0,0,.27.54.594.594,0,0,1,.324.54.633.633,0,0,1-.486.594.581.581,0,0,0-.432.486.506.506,0,0,0,.27.54.594.594,0,0,1,.324.54.651.651,0,0,1-.432.594.581.581,0,0,0-.432.486.548.548,0,0,0,.27.54.572.572,0,0,1,.324.594.648.648,0,0,1-.648.486H27.606a5.658,5.658,0,0,1-3.888-1.512V24.024a3.9,3.9,0,0,0,2.592-3.618v-.432a.594.594,0,0,1,1.188,0v3.078a.51.51,0,0,0,.54.54H32.25a.6.6,0,0,1,.594.594.526.526,0,0,1-.432.54Z" transform="translate(-8.786 -7.958)" fill="#7f35ab"/>
    <path id="XMLID_353_" d="M35.127,15.309l-3.132-.756a15.164,15.164,0,0,0-1.4-3.348l1.674-2.754a.566.566,0,0,0-.054-.648L28.755,4.348a.492.492,0,0,0-.648-.054L25.353,5.968a14.154,14.154,0,0,0-3.348-1.4l-.756-3.132A.512.512,0,0,0,20.763,1H15.849a.526.526,0,0,0-.54.432l-.756,3.132a16.1,16.1,0,0,0-3.348,1.35L8.452,4.24a.566.566,0,0,0-.648.054L4.348,7.75a.492.492,0,0,0-.054.648l1.674,2.754a15.164,15.164,0,0,0-1.4,3.348l-3.132.756A.632.632,0,0,0,1,15.849v4.914a.526.526,0,0,0,.432.54l3.132.756a14.154,14.154,0,0,0,1.4,3.348l-1.728,2.7a.566.566,0,0,0,.054.648L7.75,32.211a.492.492,0,0,0,.648.054l2.754-1.674a14.154,14.154,0,0,0,3.348,1.4l.756,3.132a.581.581,0,0,0,.54.432h4.914a.526.526,0,0,0,.54-.432l.756-3.132a13.8,13.8,0,0,0,3.348-1.4l2.754,1.674a.566.566,0,0,0,.648-.054l3.456-3.456a.492.492,0,0,0,.054-.648l-1.674-2.754a15.164,15.164,0,0,0,1.4-3.348l3.132-.756a.526.526,0,0,0,.432-.54V15.8a.512.512,0,0,0-.432-.486Zm-.648,5.022-3.024.7a.455.455,0,0,0-.378.378,14.268,14.268,0,0,1-1.512,3.672.49.49,0,0,0,0,.54l1.62,2.646-2.862,2.862-2.646-1.62a.49.49,0,0,0-.54,0,12.86,12.86,0,0,1-3.672,1.512.533.533,0,0,0-.378.378l-.81,3.078h-4.05l-.756-3.024a.533.533,0,0,0-.378-.378,14.617,14.617,0,0,1-3.672-1.512.49.49,0,0,0-.54,0l-2.646,1.62L5.374,28.323l1.62-2.646a.49.49,0,0,0,0-.54,11.7,11.7,0,0,1-1.512-3.672.533.533,0,0,0-.378-.378l-3.024-.81v-4.05L5.1,15.471a.533.533,0,0,0,.378-.378,13.2,13.2,0,0,1,1.512-3.618.49.49,0,0,0,0-.54L5.374,8.29,8.236,5.428l2.646,1.62a.49.49,0,0,0,.54,0A13.2,13.2,0,0,1,15.04,5.536a.533.533,0,0,0,.378-.378l.864-3.078h4.05l.7,3.024a.533.533,0,0,0,.378.378,13.478,13.478,0,0,1,3.618,1.512.49.49,0,0,0,.54,0l2.7-1.62,2.862,2.862-1.62,2.646a.49.49,0,0,0,0,.54,12.54,12.54,0,0,1,1.512,3.618.533.533,0,0,0,.378.378l3.024.756v4.158Z" fill="#7f35ab"/>
    <path id="XMLID_356_" d="M24.03,13.5a10.53,10.53,0,1,0,10.53,10.53A10.509,10.509,0,0,0,24.03,13.5Zm0,19.979a9.45,9.45,0,1,1,9.45-9.45A9.46,9.46,0,0,1,24.03,33.479Z" transform="translate(-5.75 -5.75)" fill="#7f35ab"/>
  </g>
</svg>
