<svg xmlns="http://www.w3.org/2000/svg" width="37.104" height="36.89" viewBox="0 0 37.104 36.89">
  <g id="rendimiento" transform="translate(0.051 0.062)">
    <path id="Path_979643" data-name="Path 979643" d="M34.469,290.361,21.94,293.515a2.352,2.352,0,0,0-.6-1.007l-3.992-3.992a2.6,2.6,0,0,0-1.853-.767H7.538a2.749,2.749,0,0,0-2.729-2.444H2.744A2.748,2.748,0,0,0,0,288.05v5.524a.544.544,0,0,0,1.087,0V288.05a1.66,1.66,0,0,1,1.658-1.658H4.809a1.661,1.661,0,0,1,1.631,1.357c.04.217.028-.433.028,9.943a1.66,1.66,0,0,1-1.658,1.658H2.744a1.66,1.66,0,0,1-1.658-1.658v-1.944a.544.544,0,0,0-1.087,0v1.944a2.748,2.748,0,0,0,2.745,2.745H4.809a2.748,2.748,0,0,0,2.745-2.745v-.962c4,.691,3.142.44,9.108,3.358.969.475,1.9,1.375,3.882,1.375a5.576,5.576,0,0,0,2.975-.858l10.338-5.242a.544.544,0,0,0-.491-.97c-.037.019-10.372,5.257-10.407,5.28a4.49,4.49,0,0,1-2.414.7c-1.649,0-2.365-.756-3.4-1.265-6.066-2.968-5.2-2.728-9.585-3.485v-6.792H15.5a1.523,1.523,0,0,1,1.085.449l3.991,3.991a1.217,1.217,0,1,1-1.692,1.749l-3.6-3.6a.544.544,0,0,0-.769.769l3.6,3.6a2.3,2.3,0,0,0,3.877-1.171c13.432-3.381,12.69-3.206,12.825-3.206a1.058,1.058,0,0,1,.488,1.994.544.544,0,1,0,.491.97,2.121,2.121,0,0,0,1.166-1.9,2.148,2.148,0,0,0-2.493-2.118Zm0,0" transform="translate(0 -264.687)" fill="#7f35ab" stroke="#7f35ab" stroke-width="0.1"/>
    <path id="Path_979644" data-name="Path 979644" d="M26.73,416.853a1.846,1.846,0,1,0,2.575-1.7.544.544,0,0,0-.43,1,.759.759,0,1,1-1.022.467c.234-.738-1.122-1.229-1.122.23Zm0,0" transform="translate(-24.799 -385.114)" fill="#7f35ab" stroke="#7f35ab" stroke-width="0.1"/>
    <path id="Path_979645" data-name="Path 979645" d="M208.917,13.362l-2.621-.954a8.331,8.331,0,0,0,0-.935l2.621-.954a1.106,1.106,0,0,0,.662-1.419l-.89-2.445a1.108,1.108,0,0,0-1.419-.662l-2.621.954a8.4,8.4,0,0,0-.6-.716l1.395-2.415a1.108,1.108,0,0,0-.405-1.512L202.784,1a1.106,1.106,0,0,0-1.512.405l-1.394,2.414a8.283,8.283,0,0,0-.921-.161L198.473.915a1.108,1.108,0,0,0-1.282-.9l-2.563.452a1.108,1.108,0,0,0-.9,1.282l.484,2.745a8.376,8.376,0,0,0-.81.469l-2.136-1.793a1.106,1.106,0,0,0-1.559.137L188.036,5.3a1.106,1.106,0,0,0,.136,1.559l2.135,1.792a8.328,8.328,0,0,0-.32.88H187.2a1.108,1.108,0,0,0-1.107,1.107v2.6a1.108,1.108,0,0,0,1.107,1.107h2.787a8.305,8.305,0,0,0,.32.88l-2.135,1.791a1.108,1.108,0,0,0-.136,1.56l1.673,1.994a1.108,1.108,0,0,0,1.559.136l2.136-1.793a8.375,8.375,0,0,0,.81.469l-.484,2.745a1.106,1.106,0,0,0,.9,1.282l2.563.452a1.108,1.108,0,0,0,1.282-.9l.484-2.746a8.3,8.3,0,0,0,.922-.161l1.394,2.414a1.108,1.108,0,0,0,1.512.405l2.254-1.3a1.108,1.108,0,0,0,.4-1.512l-1.395-2.416a8.355,8.355,0,0,0,.6-.716l2.621.954a1.106,1.106,0,0,0,1.419-.662l.89-2.445a1.106,1.106,0,0,0-.661-1.419Zm-.36,1.047-.89,2.445a.018.018,0,0,1-.01.011.017.017,0,0,1-.015,0l-3.01-1.1a.544.544,0,0,0-.637.208,7.293,7.293,0,0,1-1,1.192.543.543,0,0,0-.094.664l1.6,2.774a.02.02,0,0,1-.007.027l-2.254,1.3a.02.02,0,0,1-.027-.007l-1.6-2.773a.543.543,0,0,0-.622-.25,7.25,7.25,0,0,1-1.533.268.543.543,0,0,0-.5.448l-.556,3.155a.02.02,0,0,1-.023.016c-.03-.005-2.584-.445-2.579-.475l.556-3.153a.544.544,0,0,0-.315-.591,7.274,7.274,0,0,1-1.347-.779.543.543,0,0,0-.67.022l-2.454,2.059a.02.02,0,0,1-.028,0l-1.673-1.994a.02.02,0,0,1,0-.028l2.453-2.058a.543.543,0,0,0,.138-.656,7.207,7.207,0,0,1-.532-1.463.543.543,0,0,0-.528-.414h-3.2a.02.02,0,0,1-.02-.02v-2.6a.02.02,0,0,1,.02-.02h3.2a.544.544,0,0,0,.528-.414,7.211,7.211,0,0,1,.532-1.462.543.543,0,0,0-.138-.657l-2.453-2.058a.018.018,0,0,1-.007-.013.017.017,0,0,1,0-.014l1.673-1.994A.02.02,0,0,1,190.555,4a.018.018,0,0,1,.014,0l2.454,2.059a.543.543,0,0,0,.67.022,7.243,7.243,0,0,1,1.347-.779.544.544,0,0,0,.315-.591L194.8,1.562a.02.02,0,0,1,.016-.023l2.563-.452a.018.018,0,0,1,.015,0,.018.018,0,0,1,.008.013l.556,3.155a.544.544,0,0,0,.5.448,7.244,7.244,0,0,1,1.533.268.544.544,0,0,0,.622-.25l1.6-2.773a.018.018,0,0,1,.012-.009.017.017,0,0,1,.015,0l2.254,1.3a.02.02,0,0,1,.007.027l-1.6,2.774a.543.543,0,0,0,.094.664A7.3,7.3,0,0,1,204,7.9a.544.544,0,0,0,.637.207l3.01-1.1a.02.02,0,0,1,.025.012l.89,2.445a.018.018,0,0,1,0,.015.018.018,0,0,1-.011.01l-3.01,1.1a.544.544,0,0,0-.354.569,7.31,7.31,0,0,1,0,1.558.544.544,0,0,0,.354.569l3.01,1.1a.018.018,0,0,1,.011.01.017.017,0,0,1,0,.015Zm0,0" transform="translate(-172.646 0)" fill="#7f35ab" stroke="#7f35ab" stroke-width="0.1"/>
    <path id="Path_979646" data-name="Path 979646" d="M285.72,114.241l-6.111,6.111-2.575-2.575a.544.544,0,0,0-.769.769l2.636,2.636a1,1,0,0,0,1.416,0l6.171-6.171a.544.544,0,0,0-.769-.769Zm0,0" transform="translate(-256.153 -105.838)" fill="#7f35ab" stroke="#7f35ab" stroke-width="0.1"/>
  </g>
</svg>
