<svg xmlns="http://www.w3.org/2000/svg" width="33.71" height="34.517" viewBox="0 0 33.71 34.517">
  <g id="escala" transform="translate(-5.984)">
    <g id="Group_1145421" data-name="Group 1145421" transform="translate(5.984)">
      <path id="Path_979649" data-name="Path 979649" d="M447.741,343.876a.674.674,0,1,1,.66-.537A.681.681,0,0,1,447.741,343.876Z" transform="translate(-417.332 -319.438)" fill="#7f35ab"/>
      <path id="Path_979650" data-name="Path 979650" d="M339.313,6.572l1.023-2.711a.674.674,0,0,0-.631-.912h-3.593V.674A.674.674,0,0,0,335.438,0H329.08a.674.674,0,0,0-.674.674V33.843a.674.674,0,0,0,.674.674h8a.674.674,0,0,0,.674-.674V26.824a.674.674,0,1,0-1.348,0v6.345h-6.65V14.385h6.65v6.344a.674.674,0,1,0,1.348,0V13.71a.674.674,0,0,0-.674-.674h-7.325V7.246h1.653V9.521a.674.674,0,0,0,.674.674h7.624a.674.674,0,0,0,.631-.912Zm-9.559-5.224h5.01V5.9h-5.01Zm8.207,5.462.769,2.037h-5.975v-1.6h2.683a.674.674,0,0,0,.674-.674V4.3h2.618l-.769,2.037A.674.674,0,0,0,337.962,6.81Z" transform="translate(-306.669)" fill="#7f35ab"/>
      <path id="Path_979651" data-name="Path 979651" d="M175.868,302.358h-8a.674.674,0,0,1-.674-.674V287.877a.674.674,0,0,1,.674-.674h8a.674.674,0,0,1,.674.674v13.807A.674.674,0,0,1,175.868,302.358Zm-7.325-1.348h6.65V288.551h-6.65Z" transform="translate(-156.327 -267.841)" fill="#7f35ab"/>
      <path id="Path_979652" data-name="Path 979652" d="M14.657,389.868h-8a.674.674,0,0,1-.674-.674v-7.481a.674.674,0,0,1,.674-.674h8a.674.674,0,0,1,.674.674v7.481A.674.674,0,0,1,14.657,389.868ZM7.332,388.52h6.65v-6.132H7.332Z" transform="translate(-5.984 -355.351)" fill="#7f35ab"/>
    </g>
  </g>
</svg>
